<?xml version="1.0" encoding="utf-8"?>
<svg version="1.0" width="450pt" height="720pt" viewBox="-20 -64 40 64" preserveAspectRatio="xMidYMid meet" xmlns="http://www.w3.org/2000/svg">
  <line x1="-0.5" y1="0" x2="-0.5" y2="-0.5" style="stroke:rgb(0,0,0);stroke-width:0.125" />
  <line x1="-0.5" y1="-0.5" x2="-12" y2="-0.5" style="stroke:rgb(0,0,0);stroke-width:0.125" />
  <line x1="-12" y1="-0.5" x2="-12" y2="-31.5" style="stroke:rgb(0,0,0);stroke-width:0.125" />
  <line x1="-12" y1="-31.5" x2="-0.5" y2="-31.5" style="stroke:rgb(0,0,0);stroke-width:0.125" />
  <line x1="-0.5" y1="-31.5" x2="-0.5" y2="-32" style="stroke:rgb(0,0,0);stroke-width:0.125" />
  <line x1="0.5" y1="0" x2="0.5" y2="-0.5" style="stroke:rgb(0,0,0);stroke-width:0.125" />
  <line x1="0.5" y1="-0.5" x2="12" y2="-0.5" style="stroke:rgb(0,0,0);stroke-width:0.125" />
  <line x1="12" y1="-0.5" x2="12" y2="-31.5" style="stroke:rgb(0,0,0);stroke-width:0.125" />
  <line x1="12" y1="-31.5" x2="0.5" y2="-31.5" style="stroke:rgb(0,0,0);stroke-width:0.125" />
  <line x1="0.5" y1="-31.5" x2="0.5" y2="-32" style="stroke:rgb(0,0,0);stroke-width:0.125" />
  <line x1="0" y1="-4" x2="0.059999998658895493" y2="-10.979999542236328" style="stroke:rgb(0,0,255);stroke-width:0.125" />
  <line x1="0.059999998658895493" y1="-10.979999542236328" x2="7.380000114440918" y2="-10.979999542236328" style="stroke:rgb(0,0,255);stroke-width:0.125" />
  <line x1="7.380000114440918" y1="-10.979999542236328" x2="7.4200000762939453" y2="-22.529998779296875" style="stroke:rgb(0,0,255);stroke-width:0.125" />
  <line x1="7.4200000762939453" y1="-22.529998779296875" x2="0.11999999731779099" y2="-22.799999237060547" style="stroke:rgb(0,0,255);stroke-width:0.125" />
  <line x1="0.11999999731779099" y1="-22.799999237060547" x2="0.05000000074505806" y2="-29.900001525878906" style="stroke:rgb(0,0,255);stroke-width:0.125" />
  <line x1="-1.1920928955078125E-06" y1="-1.76287841796875" x2="-1.2195374665679992E-06" y2="-2.2089948654174805" style="stroke:rgb(255,0,0);stroke-width:0.125" />
  <line x1="0.15613952279090881" y1="-2.0333220958709717" x2="-1.2195374665679992E-06" y2="-2.2089948654174805" style="stroke:rgb(255,0,0);stroke-width:0.125" />
  <line x1="-0.15614195168018341" y1="-2.0333220958709717" x2="-1.2195374665679992E-06" y2="-2.2089948654174805" style="stroke:rgb(255,0,0);stroke-width:0.125" />
  <line x1="-1.1920928955078125E-06" y1="-2.9089508056640625" x2="-1.219780529027048E-06" y2="-3.3563835620880127" style="stroke:rgb(255,0,0);stroke-width:0.125" />
  <line x1="0.156600221991539" y1="-3.1801924705505371" x2="-1.219780529027048E-06" y2="-3.3563835620880127" style="stroke:rgb(255,0,0);stroke-width:0.125" />
  <line x1="-0.1566026508808136" y1="-3.1801924705505371" x2="-1.219780529027048E-06" y2="-3.3563835620880127" style="stroke:rgb(255,0,0);stroke-width:0.125" />
  <line x1="-1.430511474609375E-06" y1="-4.0381088256835938" x2="-1.4583805523216142E-06" y2="-4.4863557815551758" style="stroke:rgb(255,0,0);stroke-width:0.125" />
  <line x1="0.15688498318195343" y1="-4.3098440170288086" x2="-1.4583805523216142E-06" y2="-4.4863557815551758" style="stroke:rgb(255,0,0);stroke-width:0.125" />
  <line x1="-0.15688788890838623" y1="-4.3098440170288086" x2="-1.4583805523216142E-06" y2="-4.4863557815551758" style="stroke:rgb(255,0,0);stroke-width:0.125" />
  <line x1="-1.430511474609375E-06" y1="-5.1461181640625" x2="-1.4561204579877085E-06" y2="-5.5574445724487305" style="stroke:rgb(255,0,0);stroke-width:0.125" />
  <line x1="0.1439628005027771" y1="-5.3954715728759766" x2="-1.4561204579877085E-06" y2="-5.5574445724487305" style="stroke:rgb(255,0,0);stroke-width:0.125" />
  <line x1="-0.14396567642688751" y1="-5.3954715728759766" x2="-1.4561204579877085E-06" y2="-5.5574445724487305" style="stroke:rgb(255,0,0);stroke-width:0.125" />
  <line x1="0.047371387481689453" y1="-6.2844161987304688" x2="0.081677362322807312" y2="-6.7271928787231445" style="stroke:rgb(255,0,0);stroke-width:0.125" />
  <line x1="0.22314013540744781" y1="-6.5408282279968262" x2="0.081677362322807312" y2="-6.7271928787231445" style="stroke:rgb(255,0,0);stroke-width:0.125" />
  <line x1="-0.086803585290908813" y1="-6.5648422241210938" x2="0.081677362322807312" y2="-6.7271928787231445" style="stroke:rgb(255,0,0);stroke-width:0.125" />
  <line x1="0.25851082801818848" y1="-7.3544158935546875" x2="0.38516002893447876" y2="-7.75267219543457" style="stroke:rgb(255,0,0);stroke-width:0.125" />
  <line x1="0.47467750310897827" y1="-7.551518440246582" x2="0.38516002893447876" y2="-7.75267219543457" style="stroke:rgb(255,0,0);stroke-width:0.125" />
  <line x1="0.1958981454372406" y1="-7.6401729583740234" x2="0.38516002893447876" y2="-7.75267219543457" style="stroke:rgb(255,0,0);stroke-width:0.125" />
  <line x1="0.72763657569885254" y1="-8.2589187622070313" x2="0.94934827089309692" y2="-8.5874652862548828" style="stroke:rgb(255,0,0);stroke-width:0.125" />
  <line x1="0.97703337669372559" y1="-8.38049030303955" x2="0.94934827089309692" y2="-8.5874652862548828" style="stroke:rgb(255,0,0);stroke-width:0.125" />
  <line x1="0.74705088138580322" y1="-8.5356884002685547" x2="0.94934827089309692" y2="-8.5874652862548828" style="stroke:rgb(255,0,0);stroke-width:0.125" />
  <line x1="1.3955564498901367" y1="-9.034088134765625" x2="1.6803216934204102" y2="-9.3141183853149414" style="stroke:rgb(255,0,0);stroke-width:0.125" />
  <line x1="1.6661967039108276" y1="-9.1041793823242188" x2="1.6803216934204102" y2="-9.3141183853149414" style="stroke:rgb(255,0,0);stroke-width:0.125" />
  <line x1="1.4701756238937378" y1="-9.3035154342651367" x2="1.6803216934204102" y2="-9.3141183853149414" style="stroke:rgb(255,0,0);stroke-width:0.125" />
  <line x1="2.1757540702819824" y1="-9.6999435424804688" x2="2.4965462684631348" y2="-9.9519948959350586" style="stroke:rgb(255,0,0);stroke-width:0.125" />
  <line x1="2.4584417343139648" y1="-9.7404642105102539" x2="2.4965462684631348" y2="-9.9519948959350586" style="stroke:rgb(255,0,0);stroke-width:0.125" />
  <line x1="2.2820060253143311" y1="-9.9650182723999023" x2="2.4965462684631348" y2="-9.9519948959350586" style="stroke:rgb(255,0,0);stroke-width:0.125" />
  <line x1="3.04063081741333" y1="-10.323226928710938" x2="3.3849852085113525" y2="-10.564878463745117" style="stroke:rgb(255,0,0);stroke-width:0.125" />
  <line x1="3.3339624404907227" y1="-10.349196434020996" x2="3.3849852085113525" y2="-10.564878463745117" style="stroke:rgb(255,0,0);stroke-width:0.125" />
  <line x1="3.164806604385376" y1="-10.590244293212891" x2="3.3849852085113525" y2="-10.564878463745117" style="stroke:rgb(255,0,0);stroke-width:0.125" />
  <line x1="3.9090542793273926" y1="-10.953926086425781" x2="4.2530193328857422" y2="-11.212203979492188" style="stroke:rgb(255,0,0);stroke-width:0.125" />
  <line x1="4.2079696655273438" y1="-10.990111351013184" x2="4.2530193328857422" y2="-11.212203979492188" style="stroke:rgb(255,0,0);stroke-width:0.125" />
  <line x1="4.0271749496459961" y1="-11.230886459350586" x2="4.2530193328857422" y2="-11.212203979492188" style="stroke:rgb(255,0,0);stroke-width:0.125" />
  <line x1="4.7604165077209473" y1="-11.626388549804688" x2="5.0939784049987793" y2="-11.905284881591797" style="stroke:rgb(255,0,0);stroke-width:0.125" />
  <line x1="5.06024169921875" y1="-11.678713798522949" x2="5.0939784049987793" y2="-11.905284881591797" style="stroke:rgb(255,0,0);stroke-width:0.125" />
  <line x1="4.86501407623291" y1="-11.91220760345459" x2="5.0939784049987793" y2="-11.905284881591797" style="stroke:rgb(255,0,0);stroke-width:0.125" />
  <line x1="5.5491986274719238" y1="-12.403602600097656" x2="5.8339872360229492" y2="-12.725390434265137" style="stroke:rgb(255,0,0);stroke-width:0.125" />
  <line x1="5.8344683647155762" y1="-12.499000549316406" x2="5.8339872360229492" y2="-12.725390434265137" style="stroke:rgb(255,0,0);stroke-width:0.125" />
  <line x1="5.6092166900634766" y1="-12.698351860046387" x2="5.8339872360229492" y2="-12.725390434265137" style="stroke:rgb(255,0,0);stroke-width:0.125" />
  <line x1="6.1875386238098145" y1="-13.277610778808594" x2="6.4147520065307617" y2="-13.635881423950195" style="stroke:rgb(255,0,0);stroke-width:0.125" />
  <line x1="6.4506740570068359" y1="-13.415275573730469" x2="6.4147520065307617" y2="-13.635881423950195" style="stroke:rgb(255,0,0);stroke-width:0.125" />
  <line x1="6.19988489151001" y1="-13.574325561523438" x2="6.4147520065307617" y2="-13.635881423950195" style="stroke:rgb(255,0,0);stroke-width:0.125" />
  <line x1="6.6779694557189941" y1="-14.222373962402344" x2="6.8448081016540527" y2="-14.608341217041016" style="stroke:rgb(255,0,0);stroke-width:0.125" />
  <line x1="6.9141988754272461" y1="-14.397960662841797" x2="6.8448081016540527" y2="-14.608341217041016" style="stroke:rgb(255,0,0);stroke-width:0.125" />
  <line x1="6.6440215110778809" y1="-14.514747619628906" x2="6.8448081016540527" y2="-14.608341217041016" style="stroke:rgb(255,0,0);stroke-width:0.125" />
  <line x1="6.985954761505127" y1="-15.238998413085938" x2="7.0811924934387207" y2="-15.645987510681152" style="stroke:rgb(255,0,0);stroke-width:0.125" />
  <line x1="7.1861357688903809" y1="-15.452389717102051" x2="7.0811924934387207" y2="-15.645987510681152" style="stroke:rgb(255,0,0);stroke-width:0.125" />
  <line x1="6.9012432098388672" y1="-15.51905632019043" x2="7.0811924934387207" y2="-15.645987510681152" style="stroke:rgb(255,0,0);stroke-width:0.125" />
  <line x1="7.1541733741760254" y1="-16.299217224121094" x2="7.2021365165710449" y2="-16.7200870513916" style="stroke:rgb(255,0,0);stroke-width:0.125" />
  <line x1="7.3305535316467285" y1="-16.537569046020508" x2="7.2021365165710449" y2="-16.7200870513916" style="stroke:rgb(255,0,0);stroke-width:0.125" />
  <line x1="7.035944938659668" y1="-16.571142196655273" x2="7.2021365165710449" y2="-16.7200870513916" style="stroke:rgb(255,0,0);stroke-width:0.125" />
  <line x1="7.2209038734436035" y1="-17.397377014160156" x2="7.2285399436950684" y2="-17.822154998779297" style="stroke:rgb(255,0,0);stroke-width:0.125" />
  <line x1="7.3742051124572754" y1="-17.652212142944336" x2="7.2285399436950684" y2="-17.822154998779297" style="stroke:rgb(255,0,0);stroke-width:0.125" />
  <line x1="7.0768609046936035" y1="-17.657556533813477" x2="7.2285399436950684" y2="-17.822154998779297" style="stroke:rgb(255,0,0);stroke-width:0.125" />
  <line x1="7.1674962043762207" y1="-18.482040405273438" x2="7.1219515800476074" y2="-18.906429290771484" style="stroke:rgb(255,0,0);stroke-width:0.125" />
  <line x1="7.2884225845336914" y1="-18.755252838134766" x2="7.1219515800476074" y2="-18.906429290771484" style="stroke:rgb(255,0,0);stroke-width:0.125" />
  <line x1="6.9913501739501953" y1="-18.723371505737305" x2="7.1219515800476074" y2="-18.906429290771484" style="stroke:rgb(255,0,0);stroke-width:0.125" />
  <line x1="6.9733986854553223" y1="-19.550506591796875" x2="6.8752145767211914" y2="-19.966197967529297" style="stroke:rgb(255,0,0);stroke-width:0.125" />
  <line x1="7.0593695640563965" y1="-19.836870193481445" x2="6.8752145767211914" y2="-19.966197967529297" style="stroke:rgb(255,0,0);stroke-width:0.125" />
  <line x1="6.7683858871459961" y1="-19.76814079284668" x2="6.8752145767211914" y2="-19.966197967529297" style="stroke:rgb(255,0,0);stroke-width:0.125" />
  <line x1="6.6091980934143066" y1="-20.582084655761719" x2="6.4257826805114746" y2="-20.968521118164063" style="stroke:rgb(255,0,0);stroke-width:0.125" />
  <line x1="6.6332612037658691" y1="-20.880544662475586" x2="6.4257826805114746" y2="-20.968521118164063" style="stroke:rgb(255,0,0);stroke-width:0.125" />
  <line x1="6.36275577545166" y1="-20.752153396606445" x2="6.4257826805114746" y2="-20.968521118164063" style="stroke:rgb(255,0,0);stroke-width:0.125" />
  <line x1="5.9358124732971191" y1="-21.462623596191406" x2="5.61691951751709" y2="-21.784761428833008" style="stroke:rgb(255,0,0);stroke-width:0.125" />
  <line x1="5.8552417755126953" y1="-21.769521713256836" x2="5.61691951751709" y2="-21.784761428833008" style="stroke:rgb(255,0,0);stroke-width:0.125" />
  <line x1="5.6297459602355957" y1="-21.546297073364258" x2="5.61691951751709" y2="-21.784761428833008" style="stroke:rgb(255,0,0);stroke-width:0.125" />
  <line x1="4.9872918128967285" y1="-22.216156005859375" x2="4.5725188255310059" y2="-22.499568939208984" style="stroke:rgb(255,0,0);stroke-width:0.125" />
  <line x1="4.8350434303283691" y1="-22.533136367797852" x2="4.5725188255310059" y2="-22.499568939208984" style="stroke:rgb(255,0,0);stroke-width:0.125" />
  <line x1="4.6366548538208008" y1="-22.242794036865234" x2="4.5725188255310059" y2="-22.499568939208984" style="stroke:rgb(255,0,0);stroke-width:0.125" />
  <line x1="3.8550357818603516" y1="-22.891059875488281" x2="3.3851733207702637" y2="-23.144643783569336" style="stroke:rgb(255,0,0);stroke-width:0.125" />
  <line x1="3.6589512825012207" y1="-23.209238052368164" x2="3.3851733207702637" y2="-23.144643783569336" style="stroke:rgb(255,0,0);stroke-width:0.125" />
  <line x1="3.4814424514770508" y1="-22.880334854125977" x2="3.3851733207702637" y2="-23.144643783569336" style="stroke:rgb(255,0,0);stroke-width:0.125" />
  <line x1="2.6606831550598145" y1="-23.391654968261719" x2="2.1917662620544434" y2="-23.537939071655273" style="stroke:rgb(255,0,0);stroke-width:0.125" />
  <line x1="2.4276165962219238" y1="-23.644454956054688" x2="2.1917662620544434" y2="-23.537939071655273" style="stroke:rgb(255,0,0);stroke-width:0.125" />
  <line x1="2.3252179622650146" y1="-23.316213607788086" x2="2.1917662620544434" y2="-23.537939071655273" style="stroke:rgb(255,0,0);stroke-width:0.125" />
  <line x1="1.5497183799743652" y1="-23.613731384277344" x2="1.1415886878967285" y2="-23.6711483001709" style="stroke:rgb(255,0,0);stroke-width:0.125" />
  <line x1="1.3223987817764282" y1="-23.791383743286133" x2="1.1415886878967285" y2="-23.6711483001709" style="stroke:rgb(255,0,0);stroke-width:0.125" />
  <line x1="1.2822071313858032" y1="-23.505693435668945" x2="1.1415886878967285" y2="-23.6711483001709" style="stroke:rgb(255,0,0);stroke-width:0.125" />
  <line x1="0.81938600540161133" y1="-23.641334533691406" x2="0.61805218458175659" y2="-23.606355667114258" style="stroke:rgb(255,0,0);stroke-width:0.125" />
  <line x1="0.68509101867675781" y1="-23.690595626831055" x2="0.61805218458175659" y2="-23.606355667114258" style="stroke:rgb(255,0,0);stroke-width:0.125" />
  <line x1="0.70957666635513306" y1="-23.549661636352539" x2="0.61805218458175659" y2="-23.606355667114258" style="stroke:rgb(255,0,0);stroke-width:0.125" />
  <line x1="0.5867002010345459" y1="-23.333351135253906" x2="0.55135542154312134" y2="-23.166671752929688" style="stroke:rgb(255,0,0);stroke-width:0.125" />
  <line x1="0.50693553686141968" y1="-23.24467658996582" x2="0.55135542154312134" y2="-23.166671752929688" style="stroke:rgb(255,0,0);stroke-width:0.125" />
  <line x1="0.623611569404602" y1="-23.219936370849609" x2="0.55135542154312134" y2="-23.166671752929688" style="stroke:rgb(255,0,0);stroke-width:0.125" />
  <line x1="0.54295015335083008" y1="-22.947853088378906" x2="0.52078676223754883" y2="-22.828876495361328" style="stroke:rgb(255,0,0);stroke-width:0.125" />
  <line x1="0.48787254095077515" y1="-22.88348388671875" x2="0.52078676223754883" y2="-22.828876495361328" style="stroke:rgb(255,0,0);stroke-width:0.125" />
  <line x1="0.57115614414215088" y1="-22.867969512939453" x2="0.52078676223754883" y2="-22.828876495361328" style="stroke:rgb(255,0,0);stroke-width:0.125" />
  <line x1="0.38408279418945313" y1="-22.903739929199219" x2="0.28518122434616089" y2="-22.9689998626709" style="stroke:rgb(255,0,0);stroke-width:0.125" />
  <line x1="0.34696772694587708" y1="-22.977916717529297" x2="0.28518122434616089" y2="-22.9689998626709" style="stroke:rgb(255,0,0);stroke-width:0.125" />
  <line x1="0.30128610134124756" y1="-22.9086856842041" x2="0.28518122434616089" y2="-22.9689998626709" style="stroke:rgb(255,0,0);stroke-width:0.125" />
  <line x1="0.045208930969238281" y1="-23.310874938964844" x2="-0.098702266812324524" y2="-23.534177780151367" style="stroke:rgb(255,0,0);stroke-width:0.125" />
  <line x1="0.036123640835285187" y1="-23.496614456176758" x2="-0.098702266812324524" y2="-23.534177780151367" style="stroke:rgb(255,0,0);stroke-width:0.125" />
  <line x1="-0.12018883228302002" y1="-23.395875930786133" x2="-0.098702266812324524" y2="-23.534177780151367" style="stroke:rgb(255,0,0);stroke-width:0.125" />
  <line x1="-0.24236440658569336" y1="-23.99884033203125" x2="-0.32259231805801392" y2="-24.294713973999023" style="stroke:rgb(255,0,0);stroke-width:0.125" />
  <line x1="-0.1874442845582962" y1="-24.206283569335938" x2="-0.32259231805801392" y2="-24.294713973999023" style="stroke:rgb(255,0,0);stroke-width:0.125" />
  <line x1="-0.39455568790435791" y1="-24.150123596191406" x2="-0.32259231805801392" y2="-24.294713973999023" style="stroke:rgb(255,0,0);stroke-width:0.125" />
  <line x1="-0.33810091018676758" y1="-24.830055236816406" x2="-0.35049858689308167" y2="-25.169729232788086" style="stroke:rgb(255,0,0);stroke-width:0.125" />
  <line x1="-0.22673054039478302" y1="-25.040311813354492" x2="-0.35049858689308167" y2="-25.169729232788086" style="stroke:rgb(255,0,0);stroke-width:0.125" />
  <line x1="-0.46450266242027283" y1="-25.031633377075195" x2="-0.35049858689308167" y2="-25.169729232788086" style="stroke:rgb(255,0,0);stroke-width:0.125" />
  <line x1="-0.30358481407165527" y1="-25.745841979980469" x2="-0.27764043211936951" y2="-26.118715286254883" style="stroke:rgb(255,0,0);stroke-width:0.125" />
  <line x1="-0.15735131502151489" y1="-25.962802886962891" x2="-0.27764043211936951" y2="-26.118715286254883" style="stroke:rgb(255,0,0);stroke-width:0.125" />
  <line x1="-0.41836240887641907" y1="-25.980964660644531" x2="-0.27764043211936951" y2="-26.118715286254883" style="stroke:rgb(255,0,0);stroke-width:0.125" />
  <line x1="-0.23976755142211914" y1="-26.733695983886719" x2="-0.21728998422622681" y2="-27.13262939453125" style="stroke:rgb(255,0,0);stroke-width:0.125" />
  <line x1="-0.086514785885810852" y1="-26.967668533325195" x2="-0.21728998422622681" y2="-27.13262939453125" style="stroke:rgb(255,0,0);stroke-width:0.125" />
  <line x1="-0.3657677173614502" y1="-26.9834041595459" x2="-0.21728998422622681" y2="-27.13262939453125" style="stroke:rgb(255,0,0);stroke-width:0.125" />
  <line x1="-0.19015884399414063" y1="-27.750640869140625" x2="-0.17220838367938995" y2="-28.16265869140625" style="stroke:rgb(255,0,0);stroke-width:0.125" />
  <line x1="-0.035070613026618958" y1="-27.994131088256836" x2="-0.17220838367938995" y2="-28.16265869140625" style="stroke:rgb(255,0,0);stroke-width:0.125" />
  <line x1="-0.32348328828811646" y1="-28.006696701049805" x2="-0.17220838367938995" y2="-28.16265869140625" style="stroke:rgb(255,0,0);stroke-width:0.125" />
</svg>