<?xml version="1.0" encoding="utf-8"?>
<svg version="1.0" width="450pt" height="720pt" viewBox="-20 -64 40 64" preserveAspectRatio="xMidYMid meet" xmlns="http://www.w3.org/2000/svg">
  <line x1="-0.5" y1="0" x2="-0.5" y2="-0.5" style="stroke:rgb(0,0,0);stroke-width:0.125" />
  <line x1="-0.5" y1="-0.5" x2="-12" y2="-0.5" style="stroke:rgb(0,0,0);stroke-width:0.125" />
  <line x1="-12" y1="-0.5" x2="-12" y2="-31.5" style="stroke:rgb(0,0,0);stroke-width:0.125" />
  <line x1="-12" y1="-31.5" x2="-0.5" y2="-31.5" style="stroke:rgb(0,0,0);stroke-width:0.125" />
  <line x1="-0.5" y1="-31.5" x2="-0.5" y2="-32" style="stroke:rgb(0,0,0);stroke-width:0.125" />
  <line x1="0.5" y1="0" x2="0.5" y2="-0.5" style="stroke:rgb(0,0,0);stroke-width:0.125" />
  <line x1="0.5" y1="-0.5" x2="12" y2="-0.5" style="stroke:rgb(0,0,0);stroke-width:0.125" />
  <line x1="12" y1="-0.5" x2="12" y2="-31.5" style="stroke:rgb(0,0,0);stroke-width:0.125" />
  <line x1="12" y1="-31.5" x2="0.5" y2="-31.5" style="stroke:rgb(0,0,0);stroke-width:0.125" />
  <line x1="0.5" y1="-31.5" x2="0.5" y2="-32" style="stroke:rgb(0,0,0);stroke-width:0.125" />
  <line x1="0" y1="-4" x2="0" y2="-6" style="stroke:rgb(0,0,255);stroke-width:0.125" />
  <line x1="0" y1="-6" x2="8" y2="-6" style="stroke:rgb(0,0,255);stroke-width:0.125" />
  <line x1="8" y1="-6" x2="8" y2="-14" style="stroke:rgb(0,0,255);stroke-width:0.125" />
  <line x1="8" y1="-14" x2="-8" y2="-14" style="stroke:rgb(0,0,255);stroke-width:0.125" />
  <line x1="-8" y1="-14" x2="-8" y2="-24" style="stroke:rgb(0,0,255);stroke-width:0.125" />
  <line x1="-8" y1="-24" x2="0" y2="-24" style="stroke:rgb(0,0,255);stroke-width:0.125" />
  <line x1="0" y1="-24" x2="0" y2="-30" style="stroke:rgb(0,0,255);stroke-width:0.125" />
  <line x1="0.34069469571113586" y1="-2.1515235900878906" x2="0.39495307207107544" y2="-2.7322828769683838" style="stroke:rgb(255,0,0);stroke-width:0.125" />
  <line x1="0.57685279846191406" y1="-2.4845998287200928" x2="0.39495307207107544" y2="-2.7322828769683838" style="stroke:rgb(255,0,0);stroke-width:0.125" />
  <line x1="0.17032133042812347" y1="-2.522580623626709" x2="0.39495307207107544" y2="-2.7322828769683838" style="stroke:rgb(255,0,0);stroke-width:0.125" />
  <line x1="0.46070092916488647" y1="-3.4166183471679688" x2="0.50684678554534912" y2="-3.8990459442138672" style="stroke:rgb(255,0,0);stroke-width:0.125" />
  <line x1="0.65752500295639038" y1="-3.6929235458374023" x2="0.50684678554534912" y2="-3.8990459442138672" style="stroke:rgb(255,0,0);stroke-width:0.125" />
  <line x1="0.31982573866844177" y1="-3.7252254486083984" x2="0.50684678554534912" y2="-3.8990459442138672" style="stroke:rgb(255,0,0);stroke-width:0.125" />
  <line x1="0.590877115726471" y1="-4.5163173675537109" x2="0.65468233823776245" y2="-4.8744864463806152" style="stroke:rgb(255,0,0);stroke-width:0.125" />
  <line x1="0.75491619110107422" y1="-4.7111139297485352" x2="0.65468233823776245" y2="-4.8744864463806152" style="stroke:rgb(255,0,0);stroke-width:0.125" />
  <line x1="0.50419777631759644" y1="-4.7557778358459473" x2="0.65468233823776245" y2="-4.8744864463806152" style="stroke:rgb(255,0,0);stroke-width:0.125" />
  <line x1="0.896399199962616" y1="-5.2007961273193359" x2="1.0800143480300903" y2="-5.3902835845947266" style="stroke:rgb(255,0,0);stroke-width:0.125" />
  <line x1="1.0740306377410889" y1="-5.251401424407959" x2="1.0800143480300903" y2="-5.3902835845947266" style="stroke:rgb(255,0,0);stroke-width:0.125" />
  <line x1="0.94138932228088379" y1="-5.3799319267272949" x2="1.0800143480300903" y2="-5.3902835845947266" style="stroke:rgb(255,0,0);stroke-width:0.125" />
  <line x1="1.5615502595901489" y1="-5.5182552337646484" x2="1.9173749685287476" y2="-5.6048688888549805" style="stroke:rgb(255,0,0);stroke-width:0.125" />
  <line x1="1.8075723648071289" y1="-5.446223258972168" x2="1.9173749685287476" y2="-5.6048688888549805" style="stroke:rgb(255,0,0);stroke-width:0.125" />
  <line x1="1.7469427585601807" y1="-5.6953005790710449" x2="1.9173749685287476" y2="-5.6048688888549805" style="stroke:rgb(255,0,0);stroke-width:0.125" />
  <line x1="2.6975662708282471" y1="-5.6517353057861328" x2="3.190626859664917" y2="-5.6936812400817871" style="stroke:rgb(255,0,0);stroke-width:0.125" />
  <line x1="3.0111494064331055" y1="-5.5045924186706543" x2="3.190626859664917" y2="-5.6936812400817871" style="stroke:rgb(255,0,0);stroke-width:0.125" />
  <line x1="2.9817874431610107" y1="-5.8497347831726074" x2="3.190626859664917" y2="-5.6936812400817871" style="stroke:rgb(255,0,0);stroke-width:0.125" />
  <line x1="4.090883731842041" y1="-5.8097343444824219" x2="4.65815544128418" y2="-5.8899416923522949" style="stroke:rgb(255,0,0);stroke-width:0.125" />
  <line x1="4.4628462791442871" y1="-5.6598124504089355" x2="4.65815544128418" y2="-5.8899416923522949" style="stroke:rgb(255,0,0);stroke-width:0.125" />
  <line x1="4.40670108795166" y1="-6.0569024085998535" x2="4.65815544128418" y2="-5.8899416923522949" style="stroke:rgb(255,0,0);stroke-width:0.125" />
  <line x1="5.4667701721191406" y1="-6.1128273010253906" x2="6.0311980247497559" y2="-6.2684578895568848" style="stroke:rgb(255,0,0);stroke-width:0.125" />
  <line x1="5.8634071350097656" y1="-6.0096235275268555" x2="6.0311980247497559" y2="-6.2684578895568848" style="stroke:rgb(255,0,0);stroke-width:0.125" />
  <line x1="5.7544655799865723" y1="-6.4047231674194336" x2="6.0311980247497559" y2="-6.2684578895568848" style="stroke:rgb(255,0,0);stroke-width:0.125" />
  <line x1="6.7954206466674805" y1="-6.5826911926269531" x2="7.2437810897827148" y2="-6.8018498420715332" style="stroke:rgb(255,0,0);stroke-width:0.125" />
  <line x1="7.1439299583435059" y1="-6.55862283706665" x2="7.2437810897827148" y2="-6.8018498420715332" style="stroke:rgb(255,0,0);stroke-width:0.125" />
  <line x1="6.9905190467834473" y1="-6.8724751472473145" x2="7.2437810897827148" y2="-6.8018498420715332" style="stroke:rgb(255,0,0);stroke-width:0.125" />
  <line x1="7.6692681312561035" y1="-7.3564834594726563" x2="7.9059867858886719" y2="-7.7153153419494629" style="stroke:rgb(255,0,0);stroke-width:0.125" />
  <line x1="7.9383621215820313" y1="-7.4911623001098633" x2="7.9059867858886719" y2="-7.7153153419494629" style="stroke:rgb(255,0,0);stroke-width:0.125" />
  <line x1="7.6871800422668457" y1="-7.656865119934082" x2="7.9059867858886719" y2="-7.7153153419494629" style="stroke:rgb(255,0,0);stroke-width:0.125" />
  <line x1="8.0048465728759766" y1="-8.4572563171386719" x2="8.0509090423583984" y2="-8.9322309494018555" style="stroke:rgb(255,0,0);stroke-width:0.125" />
  <line x1="8.19901180267334" y1="-8.7290725708007813" x2="8.0509090423583984" y2="-8.9322309494018555" style="stroke:rgb(255,0,0);stroke-width:0.125" />
  <line x1="7.8665289878845215" y1="-8.7613162994384766" x2="8.0509090423583984" y2="-8.9322309494018555" style="stroke:rgb(255,0,0);stroke-width:0.125" />
  <line x1="7.9723629951477051" y1="-9.6904792785644531" x2="7.9219512939453125" y2="-10.2285737991333" style="stroke:rgb(255,0,0);stroke-width:0.125" />
  <line x1="8.1301355361938477" y1="-10.03432559967041" x2="7.9219512939453125" y2="-10.2285737991333" style="stroke:rgb(255,0,0);stroke-width:0.125" />
  <line x1="7.7534694671630859" y1="-9.9990377426147461" x2="7.9219512939453125" y2="-10.2285737991333" style="stroke:rgb(255,0,0);stroke-width:0.125" />
  <line x1="7.7826409339904785" y1="-11.086483001708984" x2="7.6963028907775879" y2="-11.596235275268555" style="stroke:rgb(255,0,0);stroke-width:0.125" />
  <line x1="7.908714771270752" y1="-11.425722122192383" x2="7.6963028907775879" y2="-11.596235275268555" style="stroke:rgb(255,0,0);stroke-width:0.125" />
  <line x1="7.5518879890441895" y1="-11.365285873413086" x2="7.6963028907775879" y2="-11.596235275268555" style="stroke:rgb(255,0,0);stroke-width:0.125" />
  <line x1="7.5754637718200684" y1="-12.288234710693359" x2="7.4988918304443359" y2="-12.711545944213867" style="stroke:rgb(255,0,0);stroke-width:0.125" />
  <line x1="7.6772031784057617" y1="-12.571653366088867" x2="7.4988918304443359" y2="-12.711545944213867" style="stroke:rgb(255,0,0);stroke-width:0.125" />
  <line x1="7.3808856010437012" y1="-12.51805305480957" x2="7.4988918304443359" y2="-12.711545944213867" style="stroke:rgb(255,0,0);stroke-width:0.125" />
  <line x1="7.3103618621826172" y1="-13.153194427490234" x2="7.1533823013305664" y2="-13.445818901062012" style="stroke:rgb(255,0,0);stroke-width:0.125" />
  <line x1="7.3176164627075195" y1="-13.385531425476074" x2="7.1533823013305664" y2="-13.445818901062012" style="stroke:rgb(255,0,0);stroke-width:0.125" />
  <line x1="7.11277961730957" y1="-13.27564525604248" x2="7.1533823013305664" y2="-13.445818901062012" style="stroke:rgb(255,0,0);stroke-width:0.125" />
  <line x1="6.6843900680541992" y1="-13.636024475097656" x2="6.3752374649047852" y2="-13.732142448425293" style="stroke:rgb(255,0,0);stroke-width:0.125" />
  <line x1="6.5306177139282227" y1="-13.802496910095215" x2="6.3752374649047852" y2="-13.732142448425293" style="stroke:rgb(255,0,0);stroke-width:0.125" />
  <line x1="6.4633350372314453" y1="-13.586090087890625" x2="6.3752374649047852" y2="-13.732142448425293" style="stroke:rgb(255,0,0);stroke-width:0.125" />
  <line x1="5.7004461288452148" y1="-13.697315216064453" x2="5.2683300971984863" y2="-13.683365821838379" style="stroke:rgb(255,0,0);stroke-width:0.125" />
  <line x1="5.4336075782775879" y1="-13.840099334716797" x2="5.2683300971984863" y2="-13.683365821838379" style="stroke:rgb(255,0,0);stroke-width:0.125" />
  <line x1="5.4433722496032715" y1="-13.537617683410645" x2="5.2683300971984863" y2="-13.683365821838379" style="stroke:rgb(255,0,0);stroke-width:0.125" />
  <line x1="4.5509438514709473" y1="-13.668106079101563" x2="4.0381479263305664" y2="-13.663272857666016" style="stroke:rgb(255,0,0);stroke-width:0.125" />
  <line x1="4.2383861541748047" y1="-13.844654083251953" x2="4.0381479263305664" y2="-13.663272857666016" style="stroke:rgb(255,0,0);stroke-width:0.125" />
  <line x1="4.2417697906494141" y1="-13.485697746276855" x2="4.0381479263305664" y2="-13.663272857666016" style="stroke:rgb(255,0,0);stroke-width:0.125" />
  <line x1="3.1071295738220215" y1="-13.683582305908203" x2="2.5180833339691162" y2="-13.701451301574707" style="stroke:rgb(255,0,0);stroke-width:0.125" />
  <line x1="2.7562932968139648" y1="-13.900581359863281" x2="2.5180833339691162" y2="-13.701451301574707" style="stroke:rgb(255,0,0);stroke-width:0.125" />
  <line x1="2.7437851428985596" y1="-13.488248825073242" x2="2.5180833339691162" y2="-13.701451301574707" style="stroke:rgb(255,0,0);stroke-width:0.125" />
  <line x1="1.4934660196304321" y1="-13.772640228271484" x2="0.84699219465255737" y2="-13.81919002532959" style="stroke:rgb(255,0,0);stroke-width:0.125" />
  <line x1="1.1178544759750366" y1="-14.027125358581543" x2="0.84699219465255737" y2="-13.81919002532959" style="stroke:rgb(255,0,0);stroke-width:0.125" />
  <line x1="1.0852696895599365" y1="-13.574593544006348" x2="0.84699219465255737" y2="-13.81919002532959" style="stroke:rgb(255,0,0);stroke-width:0.125" />
  <line x1="-0.12653635442256927" y1="-13.873821258544922" x2="-0.82548844814300537" y2="-13.89621639251709" style="stroke:rgb(255,0,0);stroke-width:0.125" />
  <line x1="-0.54241538047790527" y1="-14.132030487060547" x2="-0.82548844814300537" y2="-13.89621639251709" style="stroke:rgb(255,0,0);stroke-width:0.125" />
  <line x1="-0.55809164047241211" y1="-13.6427640914917" x2="-0.82548844814300537" y2="-13.89621639251709" style="stroke:rgb(255,0,0);stroke-width:0.125" />
  <line x1="-2.0152647495269775" y1="-13.762897491455078" x2="-2.7600359916687012" y2="-13.681487083435059" style="stroke:rgb(255,0,0);stroke-width:0.125" />
  <line x1="-2.4952518939971924" y1="-13.974215507507324" x2="-2.7600359916687012" y2="-13.681487083435059" style="stroke:rgb(255,0,0);stroke-width:0.125" />
  <line x1="-2.4382648468017578" y1="-13.452875137329102" x2="-2.7600359916687012" y2="-13.681487083435059" style="stroke:rgb(255,0,0);stroke-width:0.125" />
  <line x1="-3.8491775989532471" y1="-13.597335815429688" x2="-4.5272517204284668" y2="-13.55866527557373" style="stroke:rgb(255,0,0);stroke-width:0.125" />
  <line x1="-4.2737727165222168" y1="-13.811219215393066" x2="-4.5272517204284668" y2="-13.55866527557373" style="stroke:rgb(255,0,0);stroke-width:0.125" />
  <line x1="-4.2467031478881836" y1="-13.336566925048828" x2="-4.5272517204284668" y2="-13.55866527557373" style="stroke:rgb(255,0,0);stroke-width:0.125" />
  <line x1="-5.4518284797668457" y1="-13.528148651123047" x2="-6.003758430480957" y2="-13.505268096923828" style="stroke:rgb(255,0,0);stroke-width:0.125" />
  <line x1="-5.794426441192627" y1="-13.707453727722168" x2="-6.003758430480957" y2="-13.505268096923828" style="stroke:rgb(255,0,0);stroke-width:0.125" />
  <line x1="-5.7784099578857422" y1="-13.321102142333984" x2="-6.003758430480957" y2="-13.505268096923828" style="stroke:rgb(255,0,0);stroke-width:0.125" />
  <line x1="-6.6977872848510742" y1="-13.525653839111328" x2="-7.1857728958129883" y2="-13.559998512268066" style="stroke:rgb(255,0,0);stroke-width:0.125" />
  <line x1="-6.9815921783447266" y1="-13.717268943786621" x2="-7.1857728958129883" y2="-13.559998512268066" style="stroke:rgb(255,0,0);stroke-width:0.125" />
  <line x1="-7.0056333541870117" y1="-13.375679016113281" x2="-7.1857728958129883" y2="-13.559998512268066" style="stroke:rgb(255,0,0);stroke-width:0.125" />
  <line x1="-7.8455543518066406" y1="-13.828716278076172" x2="-8.24229907989502" y2="-14.014817237854004" style="stroke:rgb(255,0,0);stroke-width:0.125" />
  <line x1="-8.0209331512451172" y1="-14.080394744873047" x2="-8.24229907989502" y2="-14.014817237854004" style="stroke:rgb(255,0,0);stroke-width:0.125" />
  <line x1="-8.1512031555175781" y1="-13.80267333984375" x2="-8.24229907989502" y2="-14.014817237854004" style="stroke:rgb(255,0,0);stroke-width:0.125" />
  <line x1="-8.6455364227294922" y1="-14.500587463378906" x2="-8.8599786758422852" y2="-14.815503120422363" style="stroke:rgb(255,0,0);stroke-width:0.125" />
  <line x1="-8.6653146743774414" y1="-14.766550064086914" x2="-8.8599786758422852" y2="-14.815503120422363" style="stroke:rgb(255,0,0);stroke-width:0.125" />
  <line x1="-8.88575553894043" y1="-14.616439819335938" x2="-8.8599786758422852" y2="-14.815503120422363" style="stroke:rgb(255,0,0);stroke-width:0.125" />
  <line x1="-8.8888111114501953" y1="-15.370063781738281" x2="-8.9066228866577148" y2="-15.7691650390625" style="stroke:rgb(255,0,0);stroke-width:0.125" />
  <line x1="-8.7599239349365234" y1="-15.618240356445313" x2="-8.9066228866577148" y2="-15.7691650390625" style="stroke:rgb(255,0,0);stroke-width:0.125" />
  <line x1="-9.0392942428588867" y1="-15.605772018432617" x2="-8.9066228866577148" y2="-15.7691650390625" style="stroke:rgb(255,0,0);stroke-width:0.125" />
  <line x1="-8.7932043075561523" y1="-16.534786224365234" x2="-8.7303304672241211" y2="-17.023962020874023" style="stroke:rgb(255,0,0);stroke-width:0.125" />
  <line x1="-8.5838775634765625" y1="-16.809326171875" x2="-8.7303304672241211" y2="-17.023962020874023" style="stroke:rgb(255,0,0);stroke-width:0.125" />
  <line x1="-8.926300048828125" y1="-16.853338241577148" x2="-8.7303304672241211" y2="-17.023962020874023" style="stroke:rgb(255,0,0);stroke-width:0.125" />
  <line x1="-8.5897712707519531" y1="-17.907478332519531" x2="-8.5088863372802734" y2="-18.457817077636719" style="stroke:rgb(255,0,0);stroke-width:0.125" />
  <line x1="-8.348118782043457" y1="-18.212793350219727" x2="-8.5088863372802734" y2="-18.457817077636719" style="stroke:rgb(255,0,0);stroke-width:0.125" />
  <line x1="-8.7333564758300781" y1="-18.269412994384766" x2="-8.5088863372802734" y2="-18.457817077636719" style="stroke:rgb(255,0,0);stroke-width:0.125" />
  <line x1="-8.3772182464599609" y1="-19.284309387207031" x2="-8.2995405197143555" y2="-19.770290374755859" style="stroke:rgb(255,0,0);stroke-width:0.125" />
  <line x1="-8.1600351333618164" y1="-19.551733016967773" x2="-8.2995405197143555" y2="-19.770290374755859" style="stroke:rgb(255,0,0);stroke-width:0.125" />
  <line x1="-8.5002222061157227" y1="-19.606107711791992" x2="-8.2995405197143555" y2="-19.770290374755859" style="stroke:rgb(255,0,0);stroke-width:0.125" />
  <line x1="-8.2044563293457031" y1="-20.362960815429688" x2="-8.13672161102295" y2="-20.780342102050781" style="stroke:rgb(255,0,0);stroke-width:0.125" />
  <line x1="-8.01731014251709" y1="-20.592277526855469" x2="-8.13672161102295" y2="-20.780342102050781" style="stroke:rgb(255,0,0);stroke-width:0.125" />
  <line x1="-8.3094778060913086" y1="-20.639692306518555" x2="-8.13672161102295" y2="-20.780342102050781" style="stroke:rgb(255,0,0);stroke-width:0.125" />
  <line x1="-7.9951696395874023" y1="-21.438312530517578" x2="-7.8898544311523438" y2="-21.864248275756836" style="stroke:rgb(255,0,0);stroke-width:0.125" />
  <line x1="-7.7822480201721191" y1="-21.6596622467041" x2="-7.8898544311523438" y2="-21.864248275756836" style="stroke:rgb(255,0,0);stroke-width:0.125" />
  <line x1="-8.0804033279418945" y1="-21.733383178710938" x2="-7.8898544311523438" y2="-21.864248275756836" style="stroke:rgb(255,0,0);stroke-width:0.125" />
  <line x1="-7.5234899520874023" y1="-22.571052551269531" x2="-7.2619137763977051" y2="-22.998212814331055" style="stroke:rgb(255,0,0);stroke-width:0.125" />
  <line x1="-7.2154121398925781" y1="-22.738452911376953" x2="-7.2619137763977051" y2="-22.998212814331055" style="stroke:rgb(255,0,0);stroke-width:0.125" />
  <line x1="-7.5144238471984863" y1="-22.92155647277832" x2="-7.2619137763977051" y2="-22.998212814331055" style="stroke:rgb(255,0,0);stroke-width:0.125" />
  <line x1="-6.67767333984375" y1="-23.497077941894531" x2="-6.2657003402709961" y2="-23.838823318481445" style="stroke:rgb(255,0,0);stroke-width:0.125" />
  <line x1="-6.308316707611084" y1="-23.560060501098633" x2="-6.2657003402709961" y2="-23.838823318481445" style="stroke:rgb(255,0,0);stroke-width:0.125" />
  <line x1="-6.5475387573242188" y1="-23.848440170288086" x2="-6.2657003402709961" y2="-23.838823318481445" style="stroke:rgb(255,0,0);stroke-width:0.125" />
  <line x1="-5.4986319541931152" y1="-24.174560546875" x2="-5.020688533782959" y2="-24.360118865966797" style="stroke:rgb(255,0,0);stroke-width:0.125" />
  <line x1="-5.143949031829834" y1="-24.119770050048828" x2="-5.020688533782959" y2="-24.360118865966797" style="stroke:rgb(255,0,0);stroke-width:0.125" />
  <line x1="-5.2738399505615234" y1="-24.454330444335938" x2="-5.020688533782959" y2="-24.360118865966797" style="stroke:rgb(255,0,0);stroke-width:0.125" />
  <line x1="-4.2025742530822754" y1="-24.444313049316406" x2="-3.6887099742889404" y2="-24.4866943359375" style="stroke:rgb(255,0,0);stroke-width:0.125" />
  <line x1="-3.8762269020080566" y1="-24.290153503417969" x2="-3.6887099742889404" y2="-24.4866943359375" style="stroke:rgb(255,0,0);stroke-width:0.125" />
  <line x1="-3.9058942794799805" y1="-24.649858474731445" x2="-3.6887099742889404" y2="-24.4866943359375" style="stroke:rgb(255,0,0);stroke-width:0.125" />
  <line x1="-2.9794697761535645" y1="-24.455513000488281" x2="-2.4895501136779785" y2="-24.44304084777832" style="stroke:rgb(255,0,0);stroke-width:0.125" />
  <line x1="-2.6868371963500977" y1="-24.276479721069336" x2="-2.4895501136779785" y2="-24.44304084777832" style="stroke:rgb(255,0,0);stroke-width:0.125" />
  <line x1="-2.6781065464019775" y1="-24.619424819946289" x2="-2.4895501136779785" y2="-24.44304084777832" style="stroke:rgb(255,0,0);stroke-width:0.125" />
  <line x1="-1.8302775621414185" y1="-24.432373046875" x2="-1.4343194961547852" y2="-24.438556671142578" style="stroke:rgb(255,0,0);stroke-width:0.125" />
  <line x1="-1.5880762338638306" y1="-24.297536849975586" x2="-1.4343194961547852" y2="-24.438556671142578" style="stroke:rgb(255,0,0);stroke-width:0.125" />
  <line x1="-1.5924052000045776" y1="-24.57470703125" x2="-1.4343194961547852" y2="-24.438556671142578" style="stroke:rgb(255,0,0);stroke-width:0.125" />
  <line x1="-1.0242643356323242" y1="-24.622997283935547" x2="-0.80270290374755859" y2="-24.770759582519531" style="stroke:rgb(255,0,0);stroke-width:0.125" />
  <line x1="-0.83823299407958984" y1="-24.635026931762695" x2="-0.80270290374755859" y2="-24.770759582519531" style="stroke:rgb(255,0,0);stroke-width:0.125" />
  <line x1="-0.94166678190231323" y1="-24.790119171142578" x2="-0.80270290374755859" y2="-24.770759582519531" style="stroke:rgb(255,0,0);stroke-width:0.125" />
  <line x1="-0.73241531848907471" y1="-25.166469573974609" x2="-0.69175267219543457" y2="-25.45313835144043" style="stroke:rgb(255,0,0);stroke-width:0.125" />
  <line x1="-0.60743105411529541" y1="-25.326021194458008" x2="-0.69175267219543457" y2="-25.45313835144043" style="stroke:rgb(255,0,0);stroke-width:0.125" />
  <line x1="-0.80809873342514038" y1="-25.354484558105469" x2="-0.69175267219543457" y2="-25.45313835144043" style="stroke:rgb(255,0,0);stroke-width:0.125" />
  <line x1="-0.82939648628234863" y1="-26.090145111083984" x2="-0.90983855724334717" y2="-26.49958610534668" style="stroke:rgb(255,0,0);stroke-width:0.125" />
  <line x1="-0.73485767841339111" y1="-26.366510391235352" x2="-0.90983855724334717" y2="-26.49958610534668" style="stroke:rgb(255,0,0);stroke-width:0.125" />
  <line x1="-1.0214661359786987" y1="-26.310199737548828" x2="-0.90983855724334717" y2="-26.49958610534668" style="stroke:rgb(255,0,0);stroke-width:0.125" />
  <line x1="-1.029166579246521" y1="-27.290996551513672" x2="-1.0833489894866943" y2="-27.789707183837891" style="stroke:rgb(255,0,0);stroke-width:0.125" />
  <line x1="-0.88746434450149536" y1="-27.612287521362305" x2="-1.0833489894866943" y2="-27.789707183837891" style="stroke:rgb(255,0,0);stroke-width:0.125" />
  <line x1="-1.2365614175796509" y1="-27.574359893798828" x2="-1.0833489894866943" y2="-27.789707183837891" style="stroke:rgb(255,0,0);stroke-width:0.125" />
</svg>