<?xml version="1.0" encoding="utf-8"?>
<svg version="1.0" width="450pt" height="720pt" viewBox="-20 -64 40 64" preserveAspectRatio="xMidYMid meet" xmlns="http://www.w3.org/2000/svg">
  <line x1="-0.5" y1="0" x2="-0.5" y2="-0.5" style="stroke:rgb(0,0,0);stroke-width:0.125" />
  <line x1="-0.5" y1="-0.5" x2="-12" y2="-0.5" style="stroke:rgb(0,0,0);stroke-width:0.125" />
  <line x1="-12" y1="-0.5" x2="-12" y2="-31.5" style="stroke:rgb(0,0,0);stroke-width:0.125" />
  <line x1="-12" y1="-31.5" x2="-0.5" y2="-31.5" style="stroke:rgb(0,0,0);stroke-width:0.125" />
  <line x1="-0.5" y1="-31.5" x2="-0.5" y2="-32" style="stroke:rgb(0,0,0);stroke-width:0.125" />
  <line x1="0.5" y1="0" x2="0.5" y2="-0.5" style="stroke:rgb(0,0,0);stroke-width:0.125" />
  <line x1="0.5" y1="-0.5" x2="12" y2="-0.5" style="stroke:rgb(0,0,0);stroke-width:0.125" />
  <line x1="12" y1="-0.5" x2="12" y2="-31.5" style="stroke:rgb(0,0,0);stroke-width:0.125" />
  <line x1="12" y1="-31.5" x2="0.5" y2="-31.5" style="stroke:rgb(0,0,0);stroke-width:0.125" />
  <line x1="0.5" y1="-31.5" x2="0.5" y2="-32" style="stroke:rgb(0,0,0);stroke-width:0.125" />
  <line x1="0" y1="-4" x2="0" y2="-6" style="stroke:rgb(0,0,255);stroke-width:0.125" />
  <line x1="0" y1="-6" x2="8" y2="-6" style="stroke:rgb(0,0,255);stroke-width:0.125" />
  <line x1="8" y1="-6" x2="8" y2="-14" style="stroke:rgb(0,0,255);stroke-width:0.125" />
  <line x1="8" y1="-14" x2="-8" y2="-14" style="stroke:rgb(0,0,255);stroke-width:0.125" />
  <line x1="-8" y1="-14" x2="-8" y2="-24" style="stroke:rgb(0,0,255);stroke-width:0.125" />
  <line x1="-8" y1="-24" x2="0" y2="-24" style="stroke:rgb(0,0,255);stroke-width:0.125" />
  <line x1="0" y1="-24" x2="0" y2="-30" style="stroke:rgb(0,0,255);stroke-width:0.125" />
  <line x1="0.062224153429269791" y1="-2.2610149383544922" x2="0.12390437722206116" y2="-2.8850417137145996" style="stroke:rgb(255,0,0);stroke-width:0.125" />
  <line x1="0.318025141954422" y1="-2.6177229881286621" x2="0.12390437722206116" y2="-2.8850417137145996" style="stroke:rgb(255,0,0);stroke-width:0.125" />
  <line x1="-0.1187935471534729" y1="-2.6608991622924805" x2="0.12390437722206116" y2="-2.8850417137145996" style="stroke:rgb(255,0,0);stroke-width:0.125" />
  <line x1="0.40061149001121521" y1="-3.6991920471191406" x2="0.60467886924743652" y2="-4.193079948425293" style="stroke:rgb(255,0,0);stroke-width:0.125" />
  <line x1="0.69718146324157715" y1="-3.9271719455718994" x2="0.60467886924743652" y2="-4.193079948425293" style="stroke:rgb(255,0,0);stroke-width:0.125" />
  <line x1="0.35146006941795349" y1="-4.0700192451477051" x2="0.60467886924743652" y2="-4.193079948425293" style="stroke:rgb(255,0,0);stroke-width:0.125" />
  <line x1="1.1209328174591064" y1="-4.6714382171630859" x2="1.4591424465179443" y2="-4.9702644348144531" style="stroke:rgb(255,0,0);stroke-width:0.125" />
  <line x1="1.4305506944656372" y1="-4.7342185974121094" x2="1.4591424465179443" y2="-4.9702644348144531" style="stroke:rgb(255,0,0);stroke-width:0.125" />
  <line x1="1.2213722467422485" y1="-4.9709653854370117" x2="1.4591424465179443" y2="-4.9702644348144531" style="stroke:rgb(255,0,0);stroke-width:0.125" />
  <line x1="2.1387767791748047" y1="-5.1523342132568359" x2="2.5852458477020264" y2="-5.2779374122619629" style="stroke:rgb(255,0,0);stroke-width:0.125" />
  <line x1="2.4533953666687012" y1="-5.0722131729125977" x2="2.5852458477020264" y2="-5.2779374122619629" style="stroke:rgb(255,0,0);stroke-width:0.125" />
  <line x1="2.3654730319976807" y1="-5.3847413063049316" x2="2.5852458477020264" y2="-5.2779374122619629" style="stroke:rgb(255,0,0);stroke-width:0.125" />
  <line x1="3.3617045879364014" y1="-5.419769287109375" x2="3.8579130172729492" y2="-5.5289130210876465" style="stroke:rgb(255,0,0);stroke-width:0.125" />
  <line x1="3.7007153034210205" y1="-5.31226110458374" x2="3.8579130172729492" y2="-5.5289130210876465" style="stroke:rgb(255,0,0);stroke-width:0.125" />
  <line x1="3.6243147850036621" y1="-5.65960693359375" x2="3.8579130172729492" y2="-5.5289130210876465" style="stroke:rgb(255,0,0);stroke-width:0.125" />
  <line x1="4.6486678123474121" y1="-5.767181396484375" x2="5.1617169380187988" y2="-5.9267725944519043" style="stroke:rgb(255,0,0);stroke-width:0.125" />
  <line x1="5.0155444145202637" y1="-5.6843609809875488" x2="5.1617169380187988" y2="-5.9267725944519043" style="stroke:rgb(255,0,0);stroke-width:0.125" />
  <line x1="4.9038305282592773" y1="-6.0434956550598145" x2="5.1617169380187988" y2="-5.9267725944519043" style="stroke:rgb(255,0,0);stroke-width:0.125" />
  <line x1="5.9187164306640625" y1="-6.2647113800048828" x2="6.3998560905456543" y2="-6.5020961761474609" style="stroke:rgb(255,0,0);stroke-width:0.125" />
  <line x1="6.2934765815734863" y1="-6.2402191162109375" x2="6.3998560905456543" y2="-6.5020961761474609" style="stroke:rgb(255,0,0);stroke-width:0.125" />
  <line x1="6.1273074150085449" y1="-6.5770173072814941" x2="6.3998560905456543" y2="-6.5020961761474609" style="stroke:rgb(255,0,0);stroke-width:0.125" />
  <line x1="6.9259247779846191" y1="-7.0106639862060547" x2="7.25320291519165" y2="-7.3403100967407227" style="stroke:rgb(255,0,0);stroke-width:0.125" />
  <line x1="7.2397027015686035" y1="-7.0959539413452148" x2="7.25320291519165" y2="-7.3403100967407227" style="stroke:rgb(255,0,0);stroke-width:0.125" />
  <line x1="7.0089502334594727" y1="-7.3250489234924316" x2="7.25320291519165" y2="-7.3403100967407227" style="stroke:rgb(255,0,0);stroke-width:0.125" />
  <line x1="7.5543680191040039" y1="-7.9360923767089844" x2="7.7571444511413574" y2="-8.32912826538086" style="stroke:rgb(255,0,0);stroke-width:0.125" />
  <line x1="7.814857006072998" y1="-8.1033859252929688" x2="7.7571444511413574" y2="-8.32912826538086" style="stroke:rgb(255,0,0);stroke-width:0.125" />
  <line x1="7.5397319793701172" y1="-8.2453289031982422" x2="7.7571444511413574" y2="-8.32912826538086" style="stroke:rgb(255,0,0);stroke-width:0.125" />
  <line x1="8.0146713256835938" y1="-9.0829505920410156" x2="8.1822786331176758" y2="-9.5581541061401367" style="stroke:rgb(255,0,0);stroke-width:0.125" />
  <line x1="8.2825984954833984" y1="-9.31236457824707" x2="8.1822786331176758" y2="-9.5581541061401367" style="stroke:rgb(255,0,0);stroke-width:0.125" />
  <line x1="7.9499568939208984" y1="-9.4296894073486328" x2="8.1822786331176758" y2="-9.5581541061401367" style="stroke:rgb(255,0,0);stroke-width:0.125" />
  <line x1="8.2785186767578125" y1="-10.347862243652344" x2="8.3267984390258789" y2="-10.845668792724609" style="stroke:rgb(255,0,0);stroke-width:0.125" />
  <line x1="8.4820194244384766" y1="-10.632743835449219" x2="8.3267984390258789" y2="-10.845668792724609" style="stroke:rgb(255,0,0);stroke-width:0.125" />
  <line x1="8.1335544586181641" y1="-10.666539192199707" x2="8.3267984390258789" y2="-10.845668792724609" style="stroke:rgb(255,0,0);stroke-width:0.125" />
  <line x1="8.1814861297607422" y1="-11.554412841796875" x2="8.0762538909912109" y2="-11.977848052978516" style="stroke:rgb(255,0,0);stroke-width:0.125" />
  <line x1="8.265894889831543" y1="-11.847938537597656" x2="8.0762538909912109" y2="-11.977848052978516" style="stroke:rgb(255,0,0);stroke-width:0.125" />
  <line x1="7.9694900512695313" y1="-11.774275779724121" x2="8.0762538909912109" y2="-11.977848052978516" style="stroke:rgb(255,0,0);stroke-width:0.125" />
  <line x1="7.7113666534423828" y1="-12.481151580810547" x2="7.4757280349731445" y2="-12.797348022460938" style="stroke:rgb(255,0,0);stroke-width:0.125" />
  <line x1="7.6791872978210449" y1="-12.755309104919434" x2="7.4757280349731445" y2="-12.797348022460938" style="stroke:rgb(255,0,0);stroke-width:0.125" />
  <line x1="7.4578495025634766" y1="-12.590362548828125" x2="7.4757280349731445" y2="-12.797348022460938" style="stroke:rgb(255,0,0);stroke-width:0.125" />
  <line x1="6.9717326164245605" y1="-13.152187347412109" x2="6.6386489868164063" y2="-13.380595207214355" style="stroke:rgb(255,0,0);stroke-width:0.125" />
  <line x1="6.8497543334960938" y1="-13.407231330871582" x2="6.6386489868164063" y2="-13.380595207214355" style="stroke:rgb(255,0,0);stroke-width:0.125" />
  <line x1="6.6898684501647949" y1="-13.174073219299316" x2="6.6386489868164063" y2="-13.380595207214355" style="stroke:rgb(255,0,0);stroke-width:0.125" />
  <line x1="6.0203127861022949" y1="-13.639999389648438" x2="5.6151118278503418" y2="-13.806891441345215" style="stroke:rgb(255,0,0);stroke-width:0.125" />
  <line x1="5.8330850601196289" y1="-13.8829927444458" x2="5.6151118278503418" y2="-13.806891441345215" style="stroke:rgb(255,0,0);stroke-width:0.125" />
  <line x1="5.7162604331970215" y1="-13.59935188293457" x2="5.6151118278503418" y2="-13.806891441345215" style="stroke:rgb(255,0,0);stroke-width:0.125" />
  <line x1="4.885277271270752" y1="-13.989662170410156" x2="4.4280614852905273" y2="-14.10798454284668" style="stroke:rgb(255,0,0);stroke-width:0.125" />
  <line x1="4.6495180130004883" y1="-14.221417427062988" x2="4.4280614852905273" y2="-14.10798454284668" style="stroke:rgb(255,0,0);stroke-width:0.125" />
  <line x1="4.5666918754577637" y1="-13.901366233825684" x2="4.4280614852905273" y2="-14.10798454284668" style="stroke:rgb(255,0,0);stroke-width:0.125" />
  <line x1="3.6421420574188232" y1="-14.222442626953125" x2="3.133000373840332" y2="-14.293375968933105" style="stroke:rgb(255,0,0);stroke-width:0.125" />
  <line x1="3.3583178520202637" y1="-14.443642616271973" x2="3.133000373840332" y2="-14.293375968933105" style="stroke:rgb(255,0,0);stroke-width:0.125" />
  <line x1="3.3086647987365723" y1="-14.087244033813477" x2="3.133000373840332" y2="-14.293375968933105" style="stroke:rgb(255,0,0);stroke-width:0.125" />
  <line x1="2.3273046016693115" y1="-14.272182464599609" x2="1.795927882194519" y2="-14.241263389587402" style="stroke:rgb(255,0,0);stroke-width:0.125" />
  <line x1="1.9943530559539795" y1="-14.439420700073242" x2="1.795927882194519" y2="-14.241263389587402" style="stroke:rgb(255,0,0);stroke-width:0.125" />
  <line x1="2.0159962177276611" y1="-14.06745719909668" x2="1.795927882194519" y2="-14.241263389587402" style="stroke:rgb(255,0,0);stroke-width:0.125" />
  <line x1="0.92291808128356934" y1="-14.118473052978516" x2="0.36558926105499268" y2="-14.058415412902832" style="stroke:rgb(255,0,0);stroke-width:0.125" />
  <line x1="0.56403529644012451" y1="-14.277130126953125" x2="0.36558926105499268" y2="-14.058415412902832" style="stroke:rgb(255,0,0);stroke-width:0.125" />
  <line x1="0.60607558488845825" y1="-13.88700008392334" x2="0.36558926105499268" y2="-14.058415412902832" style="stroke:rgb(255,0,0);stroke-width:0.125" />
  <line x1="-0.54913973808288574" y1="-14.017093658447266" x2="-1.1293981075286865" y2="-13.995399475097656" style="stroke:rgb(255,0,0);stroke-width:0.125" />
  <line x1="-0.90849578380584717" y1="-14.207032203674316" x2="-1.1293981075286865" y2="-13.995399475097656" style="stroke:rgb(255,0,0);stroke-width:0.125" />
  <line x1="-0.89330971240997314" y1="-13.800851821899414" x2="-1.1293981075286865" y2="-13.995399475097656" style="stroke:rgb(255,0,0);stroke-width:0.125" />
  <line x1="-2.0296063423156738" y1="-14.001060485839844" x2="-2.6253209114074707" y2="-13.999594688415527" style="stroke:rgb(255,0,0);stroke-width:0.125" />
  <line x1="-2.3912520408630371" y1="-14.208672523498535" x2="-2.6253209114074707" y2="-13.999594688415527" style="stroke:rgb(255,0,0);stroke-width:0.125" />
  <line x1="-2.3902261257171631" y1="-13.791671752929688" x2="-2.6253209114074707" y2="-13.999594688415527" style="stroke:rgb(255,0,0);stroke-width:0.125" />
  <line x1="-3.5572261810302734" y1="-14.008934020996094" x2="-4.15186071395874" y2="-14.017570495605469" style="stroke:rgb(255,0,0);stroke-width:0.125" />
  <line x1="-3.9146814346313477" y1="-14.222291946411133" x2="-4.15186071395874" y2="-14.017570495605469" style="stroke:rgb(255,0,0);stroke-width:0.125" />
  <line x1="-3.920727014541626" y1="-13.806047439575195" x2="-4.15186071395874" y2="-14.017570495605469" style="stroke:rgb(255,0,0);stroke-width:0.125" />
  <line x1="-5.08244514465332" y1="-14.207477569580078" x2="-5.659395694732666" y2="-14.324357986450195" style="stroke:rgb(255,0,0);stroke-width:0.125" />
  <line x1="-5.3912944793701172" y1="-14.480265617370605" x2="-5.659395694732666" y2="-14.324357986450195" style="stroke:rgb(255,0,0);stroke-width:0.125" />
  <line x1="-5.4731111526489258" y1="-14.076399803161621" x2="-5.659395694732666" y2="-14.324357986450195" style="stroke:rgb(255,0,0);stroke-width:0.125" />
  <line x1="-6.4417757987976074" y1="-14.686862945556641" x2="-6.9146699905395508" y2="-14.924710273742676" style="stroke:rgb(255,0,0);stroke-width:0.125" />
  <line x1="-6.6452059745788574" y1="-14.996562957763672" x2="-6.9146699905395508" y2="-14.924710273742676" style="stroke:rgb(255,0,0);stroke-width:0.125" />
  <line x1="-6.8116989135742188" y1="-14.665536880493164" x2="-6.9146699905395508" y2="-14.924710273742676" style="stroke:rgb(255,0,0);stroke-width:0.125" />
  <line x1="-7.42016077041626" y1="-15.432643890380859" x2="-7.739832878112793" y2="-15.763483047485352" style="stroke:rgb(255,0,0);stroke-width:0.125" />
  <line x1="-7.4981579780578613" y1="-15.745089530944824" x2="-7.739832878112793" y2="-15.763483047485352" style="stroke:rgb(255,0,0);stroke-width:0.125" />
  <line x1="-7.7297453880310059" y1="-15.521319389343262" x2="-7.739832878112793" y2="-15.763483047485352" style="stroke:rgb(255,0,0);stroke-width:0.125" />
  <line x1="-8.0574750900268555" y1="-16.385288238525391" x2="-8.2575855255126953" y2="-16.787893295288086" style="stroke:rgb(255,0,0);stroke-width:0.125" />
  <line x1="-8.0378732681274414" y1="-16.699392318725586" x2="-8.2575855255126953" y2="-16.787893295288086" style="stroke:rgb(255,0,0);stroke-width:0.125" />
  <line x1="-8.319697380065918" y1="-16.559316635131836" x2="-8.2575855255126953" y2="-16.787893295288086" style="stroke:rgb(255,0,0);stroke-width:0.125" />
  <line x1="-8.4399337768554688" y1="-17.487617492675781" x2="-8.5488290786743164" y2="-17.94145393371582" style="stroke:rgb(255,0,0);stroke-width:0.125" />
  <line x1="-8.3471050262451172" y1="-17.80085563659668" x2="-8.5488290786743164" y2="-17.94145393371582" style="stroke:rgb(255,0,0);stroke-width:0.125" />
  <line x1="-8.6647911071777344" y1="-17.724628448486328" x2="-8.5488290786743164" y2="-17.94145393371582" style="stroke:rgb(255,0,0);stroke-width:0.125" />
  <line x1="-8.5939035415649414" y1="-18.675094604492188" x2="-8.61656379699707" y2="-19.161075592041016" style="stroke:rgb(255,0,0);stroke-width:0.125" />
  <line x1="-8.4375467300415039" y1="-18.977636337280273" x2="-8.61656379699707" y2="-19.161075592041016" style="stroke:rgb(255,0,0);stroke-width:0.125" />
  <line x1="-8.77773380279541" y1="-18.961774826049805" x2="-8.61656379699707" y2="-19.161075592041016" style="stroke:rgb(255,0,0);stroke-width:0.125" />
  <line x1="-8.5201244354248047" y1="-19.918815612792969" x2="-8.4522485733032227" y2="-20.417110443115234" style="stroke:rgb(255,0,0);stroke-width:0.125" />
  <line x1="-8.3045740127563477" y1="-20.197134017944336" x2="-8.4522485733032227" y2="-20.417110443115234" style="stroke:rgb(255,0,0);stroke-width:0.125" />
  <line x1="-8.6533794403076172" y1="-20.244647979736328" x2="-8.4522485733032227" y2="-20.417110443115234" style="stroke:rgb(255,0,0);stroke-width:0.125" />
  <line x1="-8.22779655456543" y1="-21.203277587890625" x2="-8.0691366195678711" y2="-21.691696166992188" style="stroke:rgb(255,0,0);stroke-width:0.125" />
  <line x1="-7.960667610168457" y1="-21.44383430480957" x2="-8.0691366195678711" y2="-21.691696166992188" style="stroke:rgb(255,0,0);stroke-width:0.125" />
  <line x1="-8.3025608062744141" y1="-21.554897308349609" x2="-8.0691366195678711" y2="-21.691696166992188" style="stroke:rgb(255,0,0);stroke-width:0.125" />
  <line x1="-7.6593294143676758" y1="-22.316024780273438" x2="-7.37621545791626" y2="-22.709602355957031" style="stroke:rgb(255,0,0);stroke-width:0.125" />
  <line x1="-7.3499484062194824" y1="-22.455528259277344" x2="-7.37621545791626" y2="-22.709602355957031" style="stroke:rgb(255,0,0);stroke-width:0.125" />
  <line x1="-7.625452995300293" y1="-22.653709411621094" x2="-7.37621545791626" y2="-22.709602355957031" style="stroke:rgb(255,0,0);stroke-width:0.125" />
  <line x1="-6.7326045036315918" y1="-23.073638916015625" x2="-6.3123016357421875" y2="-23.300827026367188" style="stroke:rgb(255,0,0);stroke-width:0.125" />
  <line x1="-6.3982934951782227" y1="-23.064258575439453" x2="-6.3123016357421875" y2="-23.300827026367188" style="stroke:rgb(255,0,0);stroke-width:0.125" />
  <line x1="-6.55732536315918" y1="-23.358470916748047" x2="-6.3123016357421875" y2="-23.300827026367188" style="stroke:rgb(255,0,0);stroke-width:0.125" />
  <line x1="-5.5194988250732422" y1="-23.465183258056641" x2="-4.99935245513916" y2="-23.576332092285156" style="stroke:rgb(255,0,0);stroke-width:0.125" />
  <line x1="-5.1652750968933105" y1="-23.35051155090332" x2="-4.99935245513916" y2="-23.576332092285156" style="stroke:rgb(255,0,0);stroke-width:0.125" />
  <line x1="-5.2430787086486816" y1="-23.714614868164063" x2="-4.99935245513916" y2="-23.576332092285156" style="stroke:rgb(255,0,0);stroke-width:0.125" />
  <line x1="-4.1227116584777832" y1="-23.692920684814453" x2="-3.5613069534301758" y2="-23.785327911376953" style="stroke:rgb(255,0,0);stroke-width:0.125" />
  <line x1="-3.7500355243682861" y1="-23.552448272705078" x2="-3.5613069534301758" y2="-23.785327911376953" style="stroke:rgb(255,0,0);stroke-width:0.125" />
  <line x1="-3.8147208690643311" y1="-23.945430755615234" x2="-3.5613069534301758" y2="-23.785327911376953" style="stroke:rgb(255,0,0);stroke-width:0.125" />
  <line x1="-2.712132453918457" y1="-24.025241851806641" x2="-2.16757869720459" y2="-24.174509048461914" style="stroke:rgb(255,0,0);stroke-width:0.125" />
  <line x1="-2.329770565032959" y1="-23.925136566162109" x2="-2.16757869720459" y2="-24.174509048461914" style="stroke:rgb(255,0,0);stroke-width:0.125" />
  <line x1="-2.4342582225799561" y1="-24.306324005126953" x2="-2.16757869720459" y2="-24.174509048461914" style="stroke:rgb(255,0,0);stroke-width:0.125" />
  <line x1="-1.4921051263809204" y1="-24.615749359130859" x2="-1.0502707958221436" y2="-24.892730712890625" style="stroke:rgb(255,0,0);stroke-width:0.125" />
  <line x1="-1.1273137331008911" y1="-24.629018783569336" x2="-1.0502707958221436" y2="-24.892730712890625" style="stroke:rgb(255,0,0);stroke-width:0.125" />
  <line x1="-1.321200966835022" y1="-24.938302993774414" x2="-1.0502707958221436" y2="-24.892730712890625" style="stroke:rgb(255,0,0);stroke-width:0.125" />
  <line x1="-0.54767054319381714" y1="-25.463367462158203" x2="-0.22724223136901855" y2="-25.828418731689453" style="stroke:rgb(255,0,0);stroke-width:0.125" />
  <line x1="-0.22565317153930664" y1="-25.572517395019531" x2="-0.22724223136901855" y2="-25.828418731689453" style="stroke:rgb(255,0,0);stroke-width:0.125" />
  <line x1="-0.48118925094604492" y1="-25.796817779541016" x2="-0.22724223136901855" y2="-25.828418731689453" style="stroke:rgb(255,0,0);stroke-width:0.125" />
  <line x1="0.1243988573551178" y1="-26.491668701171875" x2="0.35474175214767456" y2="-26.926643371582031" style="stroke:rgb(255,0,0);stroke-width:0.125" />
  <line x1="0.41627773642539978" y1="-26.674737930297852" x2="0.35474175214767456" y2="-26.926643371582031" style="stroke:rgb(255,0,0);stroke-width:0.125" />
  <line x1="0.11179590970277786" y1="-26.835977554321289" x2="0.35474175214767456" y2="-26.926643371582031" style="stroke:rgb(255,0,0);stroke-width:0.125" />
  <line x1="0.54942524433135986" y1="-27.650131225585938" x2="0.66190654039382935" y2="-28.124748229980469" style="stroke:rgb(255,0,0);stroke-width:0.125" />
  <line x1="0.78372931480407715" y1="-27.898483276367188" x2="0.66190654039382935" y2="-28.124748229980469" style="stroke:rgb(255,0,0);stroke-width:0.125" />
  <line x1="0.45149749517440796" y1="-27.97722053527832" x2="0.66190654039382935" y2="-28.124748229980469" style="stroke:rgb(255,0,0);stroke-width:0.125" />
</svg>