<?xml version="1.0" encoding="utf-8"?>
<svg version="1.0" width="450pt" height="720pt" viewBox="-20 -64 40 64" preserveAspectRatio="xMidYMid meet" xmlns="http://www.w3.org/2000/svg">
  <line x1="-0.5" y1="0" x2="-0.5" y2="-0.5" style="stroke:rgb(0,0,0);stroke-width:0.125" />
  <line x1="-0.5" y1="-0.5" x2="-20" y2="-0.5" style="stroke:rgb(0,0,0);stroke-width:0.125" />
  <line x1="-20" y1="-0.5" x2="-20" y2="-63.5" style="stroke:rgb(0,0,0);stroke-width:0.125" />
  <line x1="-20" y1="-63.5" x2="-0.5" y2="-63.5" style="stroke:rgb(0,0,0);stroke-width:0.125" />
  <line x1="-0.5" y1="-63.5" x2="-0.5" y2="-64" style="stroke:rgb(0,0,0);stroke-width:0.125" />
  <line x1="0.5" y1="0" x2="0.5" y2="-0.5" style="stroke:rgb(0,0,0);stroke-width:0.125" />
  <line x1="0.5" y1="-0.5" x2="20" y2="-0.5" style="stroke:rgb(0,0,0);stroke-width:0.125" />
  <line x1="20" y1="-0.5" x2="20" y2="-63.5" style="stroke:rgb(0,0,0);stroke-width:0.125" />
  <line x1="20" y1="-63.5" x2="0.5" y2="-63.5" style="stroke:rgb(0,0,0);stroke-width:0.125" />
  <line x1="0.5" y1="-63.5" x2="0.5" y2="-64" style="stroke:rgb(0,0,0);stroke-width:0.125" />
  <line x1="0" y1="-4" x2="0" y2="-8" style="stroke:rgb(0,0,255);stroke-width:0.125" />
  <line x1="0" y1="-8" x2="9" y2="-8" style="stroke:rgb(0,0,255);stroke-width:0.125" />
  <line x1="9" y1="-8" x2="9" y2="-16" style="stroke:rgb(0,0,255);stroke-width:0.125" />
  <line x1="9" y1="-16" x2="0" y2="-16" style="stroke:rgb(0,0,255);stroke-width:0.125" />
  <line x1="0" y1="-16" x2="0" y2="-48" style="stroke:rgb(0,0,255);stroke-width:0.125" />
  <line x1="0" y1="-48" x2="-7" y2="-48" style="stroke:rgb(0,0,255);stroke-width:0.125" />
  <line x1="-7" y1="-48" x2="-7" y2="-54" style="stroke:rgb(0,0,255);stroke-width:0.125" />
  <line x1="-7" y1="-54" x2="3" y2="-54" style="stroke:rgb(0,0,255);stroke-width:0.125" />
  <line x1="3" y1="-54" x2="3" y2="-60" style="stroke:rgb(0,0,255);stroke-width:0.125" />
  <line x1="3" y1="-60" x2="0" y2="-60" style="stroke:rgb(0,0,255);stroke-width:0.125" />
  <line x1="0" y1="-60" x2="0" y2="-62" style="stroke:rgb(0,0,255);stroke-width:0.125" />
  <line x1="0.45177793502807617" y1="-2.2396202087402344" x2="0.51376992464065552" y2="-2.861854076385498" style="stroke:rgb(255,0,0);stroke-width:0.125" />
  <line x1="0.70714038610458374" y1="-2.5951321125030518" x2="0.51376992464065552" y2="-2.861854076385498" style="stroke:rgb(255,0,0);stroke-width:0.125" />
  <line x1="0.27157676219940186" y1="-2.638526439666748" x2="0.51376992464065552" y2="-2.861854076385498" style="stroke:rgb(255,0,0);stroke-width:0.125" />
  <line x1="0.69745522737503052" y1="-3.7916221618652344" x2="0.82247352600097656" y2="-4.3927083015441895" style="stroke:rgb(255,0,0);stroke-width:0.125" />
  <line x1="0.98362362384796143" y1="-4.1122546195983887" x2="0.82247352600097656" y2="-4.3927083015441895" style="stroke:rgb(255,0,0);stroke-width:0.125" />
  <line x1="0.56286346912384033" y1="-4.1997675895690918" x2="0.82247352600097656" y2="-4.3927083015441895" style="stroke:rgb(255,0,0);stroke-width:0.125" />
  <line x1="1.0324896574020386" y1="-5.2228374481201172" x2="1.1674046516418457" y2="-5.7580180168151855" style="stroke:rgb(255,0,0);stroke-width:0.125" />
  <line x1="1.3015906810760498" y1="-5.5000534057617188" x2="1.1674046516418457" y2="-5.7580180168151855" style="stroke:rgb(255,0,0);stroke-width:0.125" />
  <line x1="0.92696434259414673" y1="-5.5944938659667969" x2="1.1674046516418457" y2="-5.7580180168151855" style="stroke:rgb(255,0,0);stroke-width:0.125" />
  <line x1="1.534368634223938" y1="-6.3465824127197266" x2="1.8003585338592529" y2="-6.7311758995056152" style="stroke:rgb(255,0,0);stroke-width:0.125" />
  <line x1="1.8302241563796997" y1="-6.48663330078125" x2="1.8003585338592529" y2="-6.7311758995056152" style="stroke:rgb(255,0,0);stroke-width:0.125" />
  <line x1="1.5610085725784302" y1="-6.6728262901306152" x2="1.8003585338592529" y2="-6.7311758995056152" style="stroke:rgb(255,0,0);stroke-width:0.125" />
  <line x1="2.4184291362762451" y1="-7.1276836395263672" x2="2.8270943164825439" y2="-7.3837218284606934" style="stroke:rgb(255,0,0);stroke-width:0.125" />
  <line x1="2.7557826042175293" y1="-7.1398658752441406" x2="2.8270943164825439" y2="-7.3837218284606934" style="stroke:rgb(255,0,0);stroke-width:0.125" />
  <line x1="2.5765559673309326" y1="-7.425931453704834" x2="2.8270943164825439" y2="-7.3837218284606934" style="stroke:rgb(255,0,0);stroke-width:0.125" />
  <line x1="3.639169454574585" y1="-7.5997028350830078" x2="4.1646013259887695" y2="-7.7378482818603516" style="stroke:rgb(255,0,0);stroke-width:0.125" />
  <line x1="4.0060462951660156" y1="-7.4995474815368652" x2="4.1646013259887695" y2="-7.7378482818603516" style="stroke:rgb(255,0,0);stroke-width:0.125" />
  <line x1="3.9093449115753174" y1="-7.8673501014709473" x2="4.1646013259887695" y2="-7.7378482818603516" style="stroke:rgb(255,0,0);stroke-width:0.125" />
  <line x1="5.0774240493774414" y1="-7.8173656463623047" x2="5.6760883331298828" y2="-7.8655562400817871" style="stroke:rgb(255,0,0);stroke-width:0.125" />
  <line x1="5.457211971282959" y1="-7.637047290802002" x2="5.6760883331298828" y2="-7.8655562400817871" style="stroke:rgb(255,0,0);stroke-width:0.125" />
  <line x1="5.4234781265258789" y1="-8.0561122894287109" x2="5.6760883331298828" y2="-7.8655562400817871" style="stroke:rgb(255,0,0);stroke-width:0.125" />
  <line x1="6.5413622856140137" y1="-7.8978443145751953" x2="7.0868558883666992" y2="-7.9340524673461914" style="stroke:rgb(255,0,0);stroke-width:0.125" />
  <line x1="6.88472318649292" y1="-7.7288718223571777" x2="7.0868558883666992" y2="-7.9340524673461914" style="stroke:rgb(255,0,0);stroke-width:0.125" />
  <line x1="6.859377384185791" y1="-8.1107168197631836" x2="7.0868558883666992" y2="-7.9340524673461914" style="stroke:rgb(255,0,0);stroke-width:0.125" />
  <line x1="7.75570821762085" y1="-8.1703948974609375" x2="8.1927413940429688" y2="-8.35222053527832" style="stroke:rgb(255,0,0);stroke-width:0.125" />
  <line x1="8.0842838287353516" y1="-8.12765884399414" x2="8.1927413940429688" y2="-8.35222053527832" style="stroke:rgb(255,0,0);stroke-width:0.125" />
  <line x1="7.9570064544677734" y1="-8.4335823059082031" x2="8.1927413940429688" y2="-8.35222053527832" style="stroke:rgb(255,0,0);stroke-width:0.125" />
  <line x1="8.6341638565063477" y1="-8.866302490234375" x2="8.9031524658203125" y2="-9.19614315032959" style="stroke:rgb(255,0,0);stroke-width:0.125" />
  <line x1="8.9126739501953125" y1="-8.972111701965332" x2="8.9031524658203125" y2="-9.19614315032959" style="stroke:rgb(255,0,0);stroke-width:0.125" />
  <line x1="8.6817855834960938" y1="-9.1604042053222656" x2="8.9031524658203125" y2="-9.19614315032959" style="stroke:rgb(255,0,0);stroke-width:0.125" />
  <line x1="9.0003986358642578" y1="-9.8414192199707031" x2="9.0591707229614258" y2="-10.251473426818848" style="stroke:rgb(255,0,0);stroke-width:0.125" />
  <line x1="9.1795463562011719" y1="-10.069431304931641" x2="9.0591707229614258" y2="-10.251473426818848" style="stroke:rgb(255,0,0);stroke-width:0.125" />
  <line x1="8.8925085067749023" y1="-10.11057186126709" x2="9.0591707229614258" y2="-10.251473426818848" style="stroke:rgb(255,0,0);stroke-width:0.125" />
  <line x1="8.9073171615600586" y1="-10.920001983642578" x2="8.8440465927124023" y2="-11.36740779876709" style="stroke:rgb(255,0,0);stroke-width:0.125" />
  <line x1="9.0255537033081055" y1="-11.213372230529785" x2="8.8440465927124023" y2="-11.36740779876709" style="stroke:rgb(255,0,0);stroke-width:0.125" />
  <line x1="8.7123689651489258" y1="-11.169082641601563" x2="8.8440465927124023" y2="-11.36740779876709" style="stroke:rgb(255,0,0);stroke-width:0.125" />
  <line x1="8.7821617126464844" y1="-12.134883880615234" x2="8.73674488067627" y2="-12.645709991455078" style="stroke:rgb(255,0,0);stroke-width:0.125" />
  <line x1="8.9334182739257813" y1="-12.460451126098633" x2="8.73674488067627" y2="-12.645709991455078" style="stroke:rgb(255,0,0);stroke-width:0.125" />
  <line x1="8.57583999633789" y1="-12.42866039276123" x2="8.73674488067627" y2="-12.645709991455078" style="stroke:rgb(255,0,0);stroke-width:0.125" />
  <line x1="8.5560884475708" y1="-13.432369232177734" x2="8.4114017486572266" y2="-13.925639152526855" style="stroke:rgb(255,0,0);stroke-width:0.125" />
  <line x1="8.641021728515625" y1="-13.782038688659668" x2="8.4114017486572266" y2="-13.925639152526855" style="stroke:rgb(255,0,0);stroke-width:0.125" />
  <line x1="8.2957324981689453" y1="-13.680758476257324" x2="8.4114017486572266" y2="-13.925639152526855" style="stroke:rgb(255,0,0);stroke-width:0.125" />
  <line x1="7.9574708938598633" y1="-14.494308471679688" x2="7.6463356018066406" y2="-14.84517765045166" style="stroke:rgb(255,0,0);stroke-width:0.125" />
  <line x1="7.8916592597961426" y1="-14.815909385681152" x2="7.6463356018066406" y2="-14.84517765045166" style="stroke:rgb(255,0,0);stroke-width:0.125" />
  <line x1="7.6460509300231934" y1="-14.598114013671875" x2="7.6463356018066406" y2="-14.84517765045166" style="stroke:rgb(255,0,0);stroke-width:0.125" />
  <line x1="6.9983377456665039" y1="-15.14898681640625" x2="6.5599560737609863" y2="-15.341876983642578" style="stroke:rgb(255,0,0);stroke-width:0.125" />
  <line x1="6.8000946044921875" y1="-15.419353485107422" x2="6.5599560737609863" y2="-15.341876983642578" style="stroke:rgb(255,0,0);stroke-width:0.125" />
  <line x1="6.6650714874267578" y1="-15.112486839294434" x2="6.5599560737609863" y2="-15.341876983642578" style="stroke:rgb(255,0,0);stroke-width:0.125" />
  <line x1="5.731961727142334" y1="-15.474700927734375" x2="5.1900863647460938" y2="-15.56134033203125" style="stroke:rgb(255,0,0);stroke-width:0.125" />
  <line x1="5.4337911605834961" y1="-15.716879844665527" x2="5.1900863647460938" y2="-15.56134033203125" style="stroke:rgb(255,0,0);stroke-width:0.125" />
  <line x1="5.373143196105957" y1="-15.337567329406738" x2="5.1900863647460938" y2="-15.56134033203125" style="stroke:rgb(255,0,0);stroke-width:0.125" />
  <line x1="4.22976016998291" y1="-15.579029083251953" x2="3.6047301292419434" y2="-15.595123291015625" style="stroke:rgb(255,0,0);stroke-width:0.125" />
  <line x1="3.8564887046813965" y1="-15.807546615600586" x2="3.6047301292419434" y2="-15.595123291015625" style="stroke:rgb(255,0,0);stroke-width:0.125" />
  <line x1="3.8452227115631104" y1="-15.370025634765625" x2="3.6047301292419434" y2="-15.595123291015625" style="stroke:rgb(255,0,0);stroke-width:0.125" />
  <line x1="2.6966283321380615" y1="-15.6331787109375" x2="2.1165013313293457" y2="-15.660989761352539" style="stroke:rgb(255,0,0);stroke-width:0.125" />
  <line x1="2.3546788692474365" y1="-15.853082656860352" x2="2.1165013313293457" y2="-15.660989761352539" style="stroke:rgb(255,0,0);stroke-width:0.125" />
  <line x1="2.3352110385894775" y1="-15.446993827819824" x2="2.1165013313293457" y2="-15.660989761352539" style="stroke:rgb(255,0,0);stroke-width:0.125" />
  <line x1="1.4364112615585327" y1="-15.699390411376953" x2="1.0097875595092773" y2="-15.730918884277344" style="stroke:rgb(255,0,0);stroke-width:0.125" />
  <line x1="1.1888191699981689" y1="-15.86782169342041" x2="1.0097875595092773" y2="-15.730918884277344" style="stroke:rgb(255,0,0);stroke-width:0.125" />
  <line x1="1.1667495965957642" y1="-15.569185256958008" x2="1.0097875595092773" y2="-15.730918884277344" style="stroke:rgb(255,0,0);stroke-width:0.125" />
  <line x1="0.64514565467834473" y1="-15.895793914794922" x2="0.41523727774620056" y2="-16.021816253662109" style="stroke:rgb(255,0,0);stroke-width:0.125" />
  <line x1="0.54987889528274536" y1="-16.052658081054688" x2="0.41523727774620056" y2="-16.021816253662109" style="stroke:rgb(255,0,0);stroke-width:0.125" />
  <line x1="0.46166333556175232" y1="-15.891722679138184" x2="0.41523727774620056" y2="-16.021816253662109" style="stroke:rgb(255,0,0);stroke-width:0.125" />
  <line x1="0.33917838335037231" y1="-16.429401397705078" x2="0.27477109432220459" y2="-16.69403076171875" style="stroke:rgb(255,0,0);stroke-width:0.125" />
  <line x1="0.39275351166725159" y1="-16.61236572265625" x2="0.27477109432220459" y2="-16.69403076171875" style="stroke:rgb(255,0,0);stroke-width:0.125" />
  <line x1="0.20751357078552246" y1="-16.567281723022461" x2="0.27477109432220459" y2="-16.69403076171875" style="stroke:rgb(255,0,0);stroke-width:0.125" />
  <line x1="0.232728511095047" y1="-17.239540100097656" x2="0.19351255893707275" y2="-17.597269058227539" style="stroke:rgb(255,0,0);stroke-width:0.125" />
  <line x1="0.33416038751602173" y1="-17.470127105712891" x2="0.19351255893707275" y2="-17.597269058227539" style="stroke:rgb(255,0,0);stroke-width:0.125" />
  <line x1="0.08374980092048645" y1="-17.442676544189453" x2="0.19351255893707275" y2="-17.597269058227539" style="stroke:rgb(255,0,0);stroke-width:0.125" />
  <line x1="0.13493254780769348" y1="-18.237331390380859" x2="0.096835590898990631" y2="-18.662382125854492" style="stroke:rgb(255,0,0);stroke-width:0.125" />
  <line x1="0.26060551404953003" y1="-18.508338928222656" x2="0.096835590898990631" y2="-18.662382125854492" style="stroke:rgb(255,0,0);stroke-width:0.125" />
  <line x1="-0.036930501461029053" y1="-18.481670379638672" x2="0.096835590898990631" y2="-18.662382125854492" style="stroke:rgb(255,0,0);stroke-width:0.125" />
  <line x1="0.048169471323490143" y1="-19.384342193603516" x2="0.016144473105669022" y2="-19.860694885253906" style="stroke:rgb(255,0,0);stroke-width:0.125" />
  <line x1="0.19547873735427856" y1="-19.684324264526367" x2="0.016144473105669022" y2="-19.860694885253906" style="stroke:rgb(255,0,0);stroke-width:0.125" />
  <line x1="-0.1379680335521698" y1="-19.661907196044922" x2="0.016144473105669022" y2="-19.860694885253906" style="stroke:rgb(255,0,0);stroke-width:0.125" />
  <line x1="-0.026880489662289619" y1="-20.815719604492188" x2="-0.054855078458786011" y2="-21.554994583129883" style="stroke:rgb(255,0,0);stroke-width:0.125" />
  <line x1="0.21490691602230072" y1="-21.273672103881836" x2="-0.054855078458786011" y2="-21.554994583129883" style="stroke:rgb(255,0,0);stroke-width:0.125" />
  <line x1="-0.30258527398109436" y1="-21.25408935546875" x2="-0.054855078458786011" y2="-21.554994583129883" style="stroke:rgb(255,0,0);stroke-width:0.125" />
  <line x1="-0.077497497200965881" y1="-22.784618377685547" x2="-0.092119395732879639" y2="-23.580896377563477" style="stroke:rgb(255,0,0);stroke-width:0.125" />
  <line x1="0.19233544170856476" y1="-23.272453308105469" x2="-0.092119395732879639" y2="-23.580896377563477" style="stroke:rgb(255,0,0);stroke-width:0.125" />
  <line x1="-0.3650585412979126" y1="-23.262218475341797" x2="-0.092119395732879639" y2="-23.580896377563477" style="stroke:rgb(255,0,0);stroke-width:0.125" />
  <line x1="-0.10267000645399094" y1="-24.798027038574219" x2="-0.11016903817653656" y2="-25.59644889831543" style="stroke:rgb(255,0,0);stroke-width:0.125" />
  <line x1="0.17223179340362549" y1="-25.284669876098633" x2="-0.11016903817653656" y2="-25.59644889831543" style="stroke:rgb(255,0,0);stroke-width:0.125" />
  <line x1="-0.38666388392448425" y1="-25.279420852661133" x2="-0.11016903817653656" y2="-25.59644889831543" style="stroke:rgb(255,0,0);stroke-width:0.125" />
  <line x1="-0.1172049269080162" y1="-26.847145080566406" x2="-0.12151495367288589" y2="-27.64561653137207" style="stroke:rgb(255,0,0);stroke-width:0.125" />
  <line x1="0.15964755415916443" y1="-27.33270263671875" x2="-0.12151495367288589" y2="-27.64561653137207" style="stroke:rgb(255,0,0);stroke-width:0.125" />
  <line x1="-0.39928305149078369" y1="-27.329685211181641" x2="-0.12151495367288589" y2="-27.64561653137207" style="stroke:rgb(255,0,0);stroke-width:0.125" />
  <line x1="-0.12009336054325104" y1="-28.852584838867188" x2="-0.11920665949583054" y2="-29.651065826416016" style="stroke:rgb(255,0,0);stroke-width:0.125" />
  <line x1="0.15991277992725372" y1="-29.336328506469727" x2="-0.11920665949583054" y2="-29.651065826416016" style="stroke:rgb(255,0,0);stroke-width:0.125" />
  <line x1="-0.39902442693710327" y1="-29.336948394775391" x2="-0.11920665949583054" y2="-29.651065826416016" style="stroke:rgb(255,0,0);stroke-width:0.125" />
  <line x1="-0.11791264265775681" y1="-31.943370819091797" x2="-0.11707095801830292" y2="-33.239330291748047" style="stroke:rgb(255,0,0);stroke-width:0.125" />
  <line x1="0.33618319034576416" y1="-32.728710174560547" x2="-0.11707095801830292" y2="-33.239330291748047" style="stroke:rgb(255,0,0);stroke-width:0.125" />
  <line x1="-0.5709879994392395" y1="-32.729297637939453" x2="-0.11707095801830292" y2="-33.239330291748047" style="stroke:rgb(255,0,0);stroke-width:0.125" />
  <line x1="-0.11582848429679871" y1="-35.152400970458984" x2="-0.11502953618764877" y2="-36.382564544677734" style="stroke:rgb(255,0,0);stroke-width:0.125" />
  <line x1="0.31521278619766235" y1="-35.897869110107422" x2="-0.11502953618764877" y2="-36.382564544677734" style="stroke:rgb(255,0,0);stroke-width:0.125" />
  <line x1="-0.54590111970901489" y1="-35.8984260559082" x2="-0.11502953618764877" y2="-36.382564544677734" style="stroke:rgb(255,0,0);stroke-width:0.125" />
  <line x1="-0.11387751251459122" y1="-38.156352996826172" x2="-0.1131160780787468" y2="-39.328750610351563" style="stroke:rgb(255,0,0);stroke-width:0.125" />
  <line x1="0.2969229519367218" y1="-38.866813659667969" x2="-0.1131160780787468" y2="-39.328750610351563" style="stroke:rgb(255,0,0);stroke-width:0.125" />
  <line x1="-0.5237547755241394" y1="-38.867347717285156" x2="-0.1131160780787468" y2="-39.328750610351563" style="stroke:rgb(255,0,0);stroke-width:0.125" />
  <line x1="-0.1120191365480423" y1="-41.017730712890625" x2="-0.11129636317491531" y2="-42.1306037902832" style="stroke:rgb(255,0,0);stroke-width:0.125" />
  <line x1="0.27792489528656006" y1="-41.692123413085938" x2="-0.11129636317491531" y2="-42.1306037902832" style="stroke:rgb(255,0,0);stroke-width:0.125" />
  <line x1="-0.50108683109283447" y1="-41.692626953125" x2="-0.11129636317491531" y2="-42.1306037902832" style="stroke:rgb(255,0,0);stroke-width:0.125" />
  <line x1="-0.13923139870166779" y1="-43.542724609375" x2="-0.16968090832233429" y2="-44.3535270690918" style="stroke:rgb(255,0,0);stroke-width:0.125" />
  <line x1="0.12609092891216278" y1="-44.044906616210938" x2="-0.16968090832233429" y2="-44.3535270690918" style="stroke:rgb(255,0,0);stroke-width:0.125" />
  <line x1="-0.44147181510925293" y1="-44.023590087890625" x2="-0.16968090832233429" y2="-44.3535270690918" style="stroke:rgb(255,0,0);stroke-width:0.125" />
  <line x1="-0.20448605716228485" y1="-45.011932373046875" x2="-0.22897209227085114" y2="-45.461711883544922" style="stroke:rgb(255,0,0);stroke-width:0.125" />
  <line x1="-0.061906993389129639" y1="-45.293167114257813" x2="-0.22897209227085114" y2="-45.461711883544922" style="stroke:rgb(255,0,0);stroke-width:0.125" />
  <line x1="-0.37675285339355469" y1="-45.276027679443359" x2="-0.22897209227085114" y2="-45.461711883544922" style="stroke:rgb(255,0,0);stroke-width:0.125" />
  <line x1="-0.25415521860122681" y1="-45.795867919921875" x2="-0.26606160402297974" y2="-46.019615173339844" style="stroke:rgb(255,0,0);stroke-width:0.125" />
  <line x1="-0.18306213617324829" y1="-45.935672760009766" x2="-0.26606160402297974" y2="-46.019615173339844" style="stroke:rgb(255,0,0);stroke-width:0.125" />
  <line x1="-0.33968400955200195" y1="-45.927337646484375" x2="-0.26606160402297974" y2="-46.019615173339844" style="stroke:rgb(255,0,0);stroke-width:0.125" />
  <line x1="-0.36449477076530457" y1="-46.193626403808594" x2="-0.45450577139854431" y2="-46.307987213134766" style="stroke:rgb(255,0,0);stroke-width:0.125" />
  <line x1="-0.37903523445129395" y1="-46.294456481933594" x2="-0.45450577139854431" y2="-46.307987213134766" style="stroke:rgb(255,0,0);stroke-width:0.125" />
  <line x1="-0.45908686518669128" y1="-46.231449127197266" x2="-0.45450577139854431" y2="-46.307987213134766" style="stroke:rgb(255,0,0);stroke-width:0.125" />
  <line x1="-0.802679717540741" y1="-46.39544677734375" x2="-1.0244832038879395" y2="-46.494895935058594" style="stroke:rgb(255,0,0);stroke-width:0.125" />
  <line x1="-0.90233349800109863" y1="-46.533367156982422" x2="-1.0244832038879395" y2="-46.494895935058594" style="stroke:rgb(255,0,0);stroke-width:0.125" />
  <line x1="-0.97194844484329224" y1="-46.378105163574219" x2="-1.0244832038879395" y2="-46.494895935058594" style="stroke:rgb(255,0,0);stroke-width:0.125" />
  <line x1="-1.4457352161407471" y1="-46.779716491699219" x2="-1.7339828014373779" y2="-46.954082489013672" style="stroke:rgb(255,0,0);stroke-width:0.125" />
  <line x1="-1.5594475269317627" y1="-46.986309051513672" x2="-1.7339828014373779" y2="-46.954082489013672" style="stroke:rgb(255,0,0);stroke-width:0.125" />
  <line x1="-1.681504487991333" y1="-46.7845344543457" x2="-1.7339828014373779" y2="-46.954082489013672" style="stroke:rgb(255,0,0);stroke-width:0.125" />
  <line x1="-2.3364033699035645" y1="-47.149711608886719" x2="-2.7381179332733154" y2="-47.258502960205078" style="stroke:rgb(255,0,0);stroke-width:0.125" />
  <line x1="-2.5418527126312256" y1="-47.35626220703125" x2="-2.7381179332733154" y2="-47.258502960205078" style="stroke:rgb(255,0,0);stroke-width:0.125" />
  <line x1="-2.6180069446563721" y1="-47.0750617980957" x2="-2.7381179332733154" y2="-47.258502960205078" style="stroke:rgb(255,0,0);stroke-width:0.125" />
  <line x1="-3.4965229034423828" y1="-47.298721313476563" x2="-3.994786262512207" y2="-47.336097717285156" style="stroke:rgb(255,0,0);stroke-width:0.125" />
  <line x1="-3.7854979038238525" y1="-47.495769500732422" x2="-3.994786262512207" y2="-47.336097717285156" style="stroke:rgb(255,0,0);stroke-width:0.125" />
  <line x1="-3.8116602897644043" y1="-47.146987915039063" x2="-3.994786262512207" y2="-47.336097717285156" style="stroke:rgb(255,0,0);stroke-width:0.125" />
  <line x1="-4.75459623336792" y1="-47.484947204589844" x2="-5.2240180969238281" y2="-47.617889404296875" style="stroke:rgb(255,0,0);stroke-width:0.125" />
  <line x1="-4.9926390647888184" y1="-47.729835510253906" x2="-5.2240180969238281" y2="-47.617889404296875" style="stroke:rgb(255,0,0);stroke-width:0.125" />
  <line x1="-5.0856971740722656" y1="-47.401241302490234" x2="-5.2240180969238281" y2="-47.617889404296875" style="stroke:rgb(255,0,0);stroke-width:0.125" />
  <line x1="-5.7155122756958008" y1="-48.052497863769531" x2="-6.0173768997192383" y2="-48.344032287597656" style="stroke:rgb(255,0,0);stroke-width:0.125" />
  <line x1="-5.7964706420898438" y1="-48.334884643554688" x2="-6.0173768997192383" y2="-48.344032287597656" style="stroke:rgb(255,0,0);stroke-width:0.125" />
  <line x1="-6.0005455017089844" y1="-48.123580932617188" x2="-6.0173768997192383" y2="-48.344032287597656" style="stroke:rgb(255,0,0);stroke-width:0.125" />
  <line x1="-6.2879753112792969" y1="-48.920127868652344" x2="-6.4635014533996582" y2="-49.295440673828125" style="stroke:rgb(255,0,0);stroke-width:0.125" />
  <line x1="-6.2630224227905273" y1="-49.209083557128906" x2="-6.4635014533996582" y2="-49.295440673828125" style="stroke:rgb(255,0,0);stroke-width:0.125" />
  <line x1="-6.5257420539855957" y1="-49.086215972900391" x2="-6.4635014533996582" y2="-49.295440673828125" style="stroke:rgb(255,0,0);stroke-width:0.125" />
  <line x1="-6.6008853912353516" y1="-49.948989868164063" x2="-6.6916074752807617" y2="-50.383453369140625" style="stroke:rgb(255,0,0);stroke-width:0.125" />
  <line x1="-6.5038204193115234" y1="-50.244121551513672" x2="-6.6916074752807617" y2="-50.383453369140625" style="stroke:rgb(255,0,0);stroke-width:0.125" />
  <line x1="-6.8079447746276855" y1="-50.180618286132813" x2="-6.6916074752807617" y2="-50.383453369140625" style="stroke:rgb(255,0,0);stroke-width:0.125" />
  <line x1="-6.7265591621398926" y1="-51.109046936035156" x2="-6.7429256439208984" y2="-51.579280853271484" style="stroke:rgb(255,0,0);stroke-width:0.125" />
  <line x1="-6.5718994140625" y1="-51.399837493896484" x2="-6.7429256439208984" y2="-51.579280853271484" style="stroke:rgb(255,0,0);stroke-width:0.125" />
  <line x1="-6.9010624885559082" y1="-51.388381958007813" x2="-6.7429256439208984" y2="-51.579280853271484" style="stroke:rgb(255,0,0);stroke-width:0.125" />
  <line x1="-6.5363130569458008" y1="-52.247634887695313" x2="-6.3848371505737305" y2="-52.665565490722656" style="stroke:rgb(255,0,0);stroke-width:0.125" />
  <line x1="-6.2982091903686523" y1="-52.447975158691406" x2="-6.3848371505737305" y2="-52.665565490722656" style="stroke:rgb(255,0,0);stroke-width:0.125" />
  <line x1="-6.590761661529541" y1="-52.554008483886719" x2="-6.3848371505737305" y2="-52.665565490722656" style="stroke:rgb(255,0,0);stroke-width:0.125" />
  <line x1="-5.9047307968139648" y1="-53.053215026855469" x2="-5.5852870941162109" y2="-53.2967414855957" style="stroke:rgb(255,0,0);stroke-width:0.125" />
  <line x1="-5.6258440017700195" y1="-53.089038848876953" x2="-5.5852870941162109" y2="-53.2967414855957" style="stroke:rgb(255,0,0);stroke-width:0.125" />
  <line x1="-5.7963128089904785" y1="-53.312652587890625" x2="-5.5852870941162109" y2="-53.2967414855957" style="stroke:rgb(255,0,0);stroke-width:0.125" />
  <line x1="-4.9304599761962891" y1="-53.469131469726563" x2="-4.49182653427124" y2="-53.5802001953125" style="stroke:rgb(255,0,0);stroke-width:0.125" />
  <line x1="-4.6256790161132813" y1="-53.382942199707031" x2="-4.49182653427124" y2="-53.5802001953125" style="stroke:rgb(255,0,0);stroke-width:0.125" />
  <line x1="-4.7034263610839844" y1="-53.689983367919922" x2="-4.49182653427124" y2="-53.5802001953125" style="stroke:rgb(255,0,0);stroke-width:0.125" />
  <line x1="-3.6928706169128418" y1="-53.592926025390625" x2="-3.1842296123504639" y2="-53.615676879882813" style="stroke:rgb(255,0,0);stroke-width:0.125" />
  <line x1="-3.3765606880187988" y1="-53.428691864013672" x2="-3.1842296123504639" y2="-53.615676879882813" style="stroke:rgb(255,0,0);stroke-width:0.125" />
  <line x1="-3.3924860954284668" y1="-53.784740447998047" x2="-3.1842296123504639" y2="-53.615676879882813" style="stroke:rgb(255,0,0);stroke-width:0.125" />
  <line x1="-2.2859115600585938" y1="-53.564910888671875" x2="-1.7086089849472046" y2="-53.558437347412109" style="stroke:rgb(255,0,0);stroke-width:0.125" />
  <line x1="-1.9382059574127197" y1="-53.358932495117188" x2="-1.7086089849472046" y2="-53.558437347412109" style="stroke:rgb(255,0,0);stroke-width:0.125" />
  <line x1="-1.9336749315261841" y1="-53.763042449951172" x2="-1.7086089849472046" y2="-53.558437347412109" style="stroke:rgb(255,0,0);stroke-width:0.125" />
  <line x1="-1.1245981454849243" y1="-53.804786682128906" x2="-0.75561356544494629" y2="-54.011806488037109" style="stroke:rgb(255,0,0);stroke-width:0.125" />
  <line x1="-0.828456461429596" y1="-53.801139831542969" x2="-0.75561356544494629" y2="-54.011806488037109" style="stroke:rgb(255,0,0);stroke-width:0.125" />
  <line x1="-0.973369836807251" y1="-54.059429168701172" x2="-0.75561356544494629" y2="-54.011806488037109" style="stroke:rgb(255,0,0);stroke-width:0.125" />
  <line x1="-0.23920007050037384" y1="-54.477561950683594" x2="0.090130552649497986" y2="-54.796283721923828" style="stroke:rgb(255,0,0);stroke-width:0.125" />
  <line x1="0.07199801504611969" y1="-54.555511474609375" x2="0.090130552649497986" y2="-54.796283721923828" style="stroke:rgb(255,0,0);stroke-width:0.125" />
  <line x1="-0.15110599994659424" y1="-54.786041259765625" x2="0.090130552649497986" y2="-54.796283721923828" style="stroke:rgb(255,0,0);stroke-width:0.125" />
  <line x1="0.61214661598205566" y1="-55.313117980957031" x2="0.95800483226776123" y2="-55.6369514465332" style="stroke:rgb(255,0,0);stroke-width:0.125" />
  <line x1="0.93515348434448242" y1="-55.388381958007813" x2="0.95800483226776123" y2="-55.6369514465332" style="stroke:rgb(255,0,0);stroke-width:0.125" />
  <line x1="0.70847052335739136" y1="-55.6304817199707" x2="0.95800483226776123" y2="-55.6369514465332" style="stroke:rgb(255,0,0);stroke-width:0.125" />
  <line x1="1.2949690818786621" y1="-56.054824829101563" x2="1.3964396715164185" y2="-56.265113830566406" style="stroke:rgb(255,0,0);stroke-width:0.125" />
  <line x1="1.430083155632019" y1="-56.14678955078125" x2="1.3964396715164185" y2="-56.265113830566406" style="stroke:rgb(255,0,0);stroke-width:0.125" />
  <line x1="1.282881498336792" y1="-56.217819213867188" x2="1.3964396715164185" y2="-56.265113830566406" style="stroke:rgb(255,0,0);stroke-width:0.125" />
  <line x1="1.608393669128418" y1="-56.397148132324219" x2="1.7520593404769897" y2="-56.484203338623047" style="stroke:rgb(255,0,0);stroke-width:0.125" />
  <line x1="1.7259562015533447" y1="-56.399639129638672" x2="1.7520593404769897" y2="-56.484203338623047" style="stroke:rgb(255,0,0);stroke-width:0.125" />
  <line x1="1.6650164127349854" y1="-56.500205993652344" x2="1.7520593404769897" y2="-56.484203338623047" style="stroke:rgb(255,0,0);stroke-width:0.125" />
  <line x1="2.0862376689910889" y1="-56.476715087890625" x2="2.3098907470703125" y2="-56.494098663330078" style="stroke:rgb(255,0,0);stroke-width:0.125" />
  <line x1="2.2279040813446045" y1="-56.408973693847656" x2="2.3098907470703125" y2="-56.494098663330078" style="stroke:rgb(255,0,0);stroke-width:0.125" />
  <line x1="2.2157361507415771" y1="-56.565532684326172" x2="2.3098907470703125" y2="-56.494098663330078" style="stroke:rgb(255,0,0);stroke-width:0.125" />
  <line x1="2.5208449363708496" y1="-56.69000244140625" x2="2.6420643329620361" y2="-56.830928802490234" style="stroke:rgb(255,0,0);stroke-width:0.125" />
  <line x1="2.6436545848846436" y1="-56.733009338378906" x2="2.6420643329620361" y2="-56.830928802490234" style="stroke:rgb(255,0,0);stroke-width:0.125" />
  <line x1="2.5450060367584229" y1="-56.8178596496582" x2="2.6420643329620361" y2="-56.830928802490234" style="stroke:rgb(255,0,0);stroke-width:0.125" />
  <line x1="2.5614969730377197" y1="-57.227981567382813" x2="2.5018680095672607" y2="-57.486625671386719" style="stroke:rgb(255,0,0);stroke-width:0.125" />
  <line x1="2.6158740520477295" y1="-57.405647277832031" x2="2.5018680095672607" y2="-57.486625671386719" style="stroke:rgb(255,0,0);stroke-width:0.125" />
  <line x1="2.4348235130310059" y1="-57.363906860351563" x2="2.5018680095672607" y2="-57.486625671386719" style="stroke:rgb(255,0,0);stroke-width:0.125" />
  <line x1="2.2245879173278809" y1="-58.003211975097656" x2="2.070775032043457" y2="-58.344009399414063" style="stroke:rgb(255,0,0);stroke-width:0.125" />
  <line x1="2.2506229877471924" y1="-58.263645172119141" x2="2.070775032043457" y2="-58.344009399414063" style="stroke:rgb(255,0,0);stroke-width:0.125" />
  <line x1="2.0120646953582764" y1="-58.155975341796875" x2="2.070775032043457" y2="-58.344009399414063" style="stroke:rgb(255,0,0);stroke-width:0.125" />
  <line x1="1.9343839883804321" y1="-58.981277465820313" x2="1.8208687305450439" y2="-59.396995544433594" style="stroke:rgb(255,0,0);stroke-width:0.125" />
  <line x1="2.0110702514648438" y1="-59.273021697998047" x2="1.8208687305450439" y2="-59.396995544433594" style="stroke:rgb(255,0,0);stroke-width:0.125" />
  <line x1="1.7200678586959839" y1="-59.193561553955078" x2="1.8208687305450439" y2="-59.396995544433594" style="stroke:rgb(255,0,0);stroke-width:0.125" />
</svg>