<?xml version="1.0" encoding="utf-8"?>
<svg version="1.0" width="450pt" height="720pt" viewBox="-20 -64 40 64" preserveAspectRatio="xMidYMid meet" xmlns="http://www.w3.org/2000/svg">
  <line x1="-0.5" y1="0" x2="-0.5" y2="-0.5" style="stroke:rgb(0,0,0);stroke-width:0.125" />
  <line x1="-0.5" y1="-0.5" x2="-20" y2="-0.5" style="stroke:rgb(0,0,0);stroke-width:0.125" />
  <line x1="-20" y1="-0.5" x2="-20" y2="-63.5" style="stroke:rgb(0,0,0);stroke-width:0.125" />
  <line x1="-20" y1="-63.5" x2="-0.5" y2="-63.5" style="stroke:rgb(0,0,0);stroke-width:0.125" />
  <line x1="-0.5" y1="-63.5" x2="-0.5" y2="-64" style="stroke:rgb(0,0,0);stroke-width:0.125" />
  <line x1="0.5" y1="0" x2="0.5" y2="-0.5" style="stroke:rgb(0,0,0);stroke-width:0.125" />
  <line x1="0.5" y1="-0.5" x2="20" y2="-0.5" style="stroke:rgb(0,0,0);stroke-width:0.125" />
  <line x1="20" y1="-0.5" x2="20" y2="-63.5" style="stroke:rgb(0,0,0);stroke-width:0.125" />
  <line x1="20" y1="-63.5" x2="0.5" y2="-63.5" style="stroke:rgb(0,0,0);stroke-width:0.125" />
  <line x1="0.5" y1="-63.5" x2="0.5" y2="-64" style="stroke:rgb(0,0,0);stroke-width:0.125" />
  <line x1="-0.25999975204467773" y1="-3.779998779296875" x2="-0.090000152587890625" y2="-10.379997253417969" style="stroke:rgb(0,0,255);stroke-width:0.125" />
  <line x1="-0.090000152587890625" y1="-10.379997253417969" x2="-13.029999732971191" y2="-10" style="stroke:rgb(0,0,255);stroke-width:0.125" />
  <line x1="-13.029999732971191" y1="-10" x2="-12.979999542236328" y2="-30.529998779296875" style="stroke:rgb(0,0,255);stroke-width:0.125" />
  <line x1="-12.979999542236328" y1="-30.529998779296875" x2="10.60999870300293" y2="-30.529998779296875" style="stroke:rgb(0,0,255);stroke-width:0.125" />
  <line x1="10.60999870300293" y1="-30.529998779296875" x2="10.829999923706055" y2="-48.770004272460938" style="stroke:rgb(0,0,255);stroke-width:0.125" />
  <line x1="10.829999923706055" y1="-48.770004272460938" x2="-10.010000228881836" y2="-48.680000305175781" style="stroke:rgb(0,0,255);stroke-width:0.125" />
  <line x1="-10.010000228881836" y1="-48.680000305175781" x2="-9.9700002670288086" y2="-57.639999389648438" style="stroke:rgb(0,0,255);stroke-width:0.125" />
  <line x1="-9.9700002670288086" y1="-57.639999389648438" x2="-0.17000007629394531" y2="-57.770004272460938" style="stroke:rgb(0,0,255);stroke-width:0.125" />
  <line x1="-0.17000007629394531" y1="-57.770004272460938" x2="-0.21000003814697266" y2="-61.479995727539063" style="stroke:rgb(0,0,255);stroke-width:0.125" />
  <line x1="-0.2443385124206543" y1="-1.537384033203125" x2="-0.24397812783718109" y2="-1.968881368637085" style="stroke:rgb(255,0,0);stroke-width:0.125" />
  <line x1="-0.093095958232879639" y1="-1.7988393306732178" x2="-0.24397812783718109" y2="-1.968881368637085" style="stroke:rgb(255,0,0);stroke-width:0.125" />
  <line x1="-0.39514410495758057" y1="-1.7990915775299072" x2="-0.24397812783718109" y2="-1.968881368637085" style="stroke:rgb(255,0,0);stroke-width:0.125" />
  <line x1="-0.24685192108154297" y1="-2.6346893310546875" x2="-0.24910610914230347" y2="-3.0720515251159668" style="stroke:rgb(255,0,0);stroke-width:0.125" />
  <line x1="-0.09514172375202179" y1="-2.9006149768829346" x2="-0.24910610914230347" y2="-3.0720515251159668" style="stroke:rgb(255,0,0);stroke-width:0.125" />
  <line x1="-0.40129518508911133" y1="-2.8990371227264404" x2="-0.24910610914230347" y2="-3.0720515251159668" style="stroke:rgb(255,0,0);stroke-width:0.125" />
  <line x1="-0.25545740127563477" y1="-3.7516632080078125" x2="-0.26037976145744324" y2="-4.1932735443115234" style="stroke:rgb(255,0,0);stroke-width:0.125" />
  <line x1="-0.10387778282165527" y1="-4.0210981369018555" x2="-0.26037976145744324" y2="-4.1932735443115234" style="stroke:rgb(255,0,0);stroke-width:0.125" />
  <line x1="-0.41300505399703979" y1="-4.01765251159668" x2="-0.26037976145744324" y2="-4.1932735443115234" style="stroke:rgb(255,0,0);stroke-width:0.125" />
  <line x1="-0.28132295608520508" y1="-4.8776321411132813" x2="-0.29923388361930847" y2="-5.3213305473327637" style="stroke:rgb(255,0,0);stroke-width:0.125" />
  <line x1="-0.13688640296459198" y1="-5.1528787612915039" x2="-0.29923388361930847" y2="-5.3213305473327637" style="stroke:rgb(255,0,0);stroke-width:0.125" />
  <line x1="-0.44747531414031982" y1="-5.1403412818908691" x2="-0.29923388361930847" y2="-5.3213305473327637" style="stroke:rgb(255,0,0);stroke-width:0.125" />
  <line x1="-0.36073589324951172" y1="-6.0100173950195313" x2="-0.41006219387054443" y2="-6.4503507614135742" style="stroke:rgb(255,0,0);stroke-width:0.125" />
  <line x1="-0.23652172088623047" y1="-6.2942194938659668" x2="-0.41006219387054443" y2="-6.4503507614135742" style="stroke:rgb(255,0,0);stroke-width:0.125" />
  <line x1="-0.54475498199462891" y1="-6.25969123840332" x2="-0.41006219387054443" y2="-6.4503507614135742" style="stroke:rgb(255,0,0);stroke-width:0.125" />
  <line x1="-0.555931568145752" y1="-7.1058883666992188" x2="-0.65706068277359009" y2="-7.5332450866699219" style="stroke:rgb(255,0,0);stroke-width:0.125" />
  <line x1="-0.467663049697876" y1="-7.4003548622131348" x2="-0.65706068277359009" y2="-7.5332450866699219" style="stroke:rgb(255,0,0);stroke-width:0.125" />
  <line x1="-0.76681262254714966" y1="-7.329564094543457" x2="-0.65706068277359009" y2="-7.5332450866699219" style="stroke:rgb(255,0,0);stroke-width:0.125" />
  <line x1="-0.88866758346557617" y1="-8.1269302368164063" x2="-1.0664582252502441" y2="-8.50710678100586" style="stroke:rgb(255,0,0);stroke-width:0.125" />
  <line x1="-0.86338561773300171" y1="-8.41962718963623" x2="-1.0664582252502441" y2="-8.50710678100586" style="stroke:rgb(255,0,0);stroke-width:0.125" />
  <line x1="-1.1295093297958374" y1="-8.2951736450195313" x2="-1.0664582252502441" y2="-8.50710678100586" style="stroke:rgb(255,0,0);stroke-width:0.125" />
  <line x1="-1.4578752517700195" y1="-8.916015625" x2="-1.7265021800994873" y2="-9.1371078491210938" style="stroke:rgb(255,0,0);stroke-width:0.125" />
  <line x1="-1.5433394908905029" y1="-9.1440649032592773" x2="-1.7265021800994873" y2="-9.1371078491210938" style="stroke:rgb(255,0,0);stroke-width:0.125" />
  <line x1="-1.6981037855148315" y1="-8.9560260772705078" x2="-1.7265021800994873" y2="-9.1371078491210938" style="stroke:rgb(255,0,0);stroke-width:0.125" />
  <line x1="-2.2210052013397217" y1="-9.2884140014648438" x2="-2.5505146980285645" y2="-9.37921142578125" style="stroke:rgb(255,0,0);stroke-width:0.125" />
  <line x1="-2.3889806270599365" y1="-9.4587850570678711" x2="-2.5505146980285645" y2="-9.37921142578125" style="stroke:rgb(255,0,0);stroke-width:0.125" />
  <line x1="-2.4525387287139893" y1="-9.2281284332275391" x2="-2.5505146980285645" y2="-9.37921142578125" style="stroke:rgb(255,0,0);stroke-width:0.125" />
  <line x1="-3.0997443199157715" y1="-9.3854217529296875" x2="-3.4646506309509277" y2="-9.3906450271606445" style="stroke:rgb(255,0,0);stroke-width:0.125" />
  <line x1="-3.3191287517547607" y1="-9.5163049697875977" x2="-3.4646506309509277" y2="-9.3906450271606445" style="stroke:rgb(255,0,0);stroke-width:0.125" />
  <line x1="-3.3227851390838623" y1="-9.2608709335327148" x2="-3.4646506309509277" y2="-9.3906450271606445" style="stroke:rgb(255,0,0);stroke-width:0.125" />
  <line x1="-4.0569887161254883" y1="-9.3798980712890625" x2="-4.448432445526123" y2="-9.3740777969360352" style="stroke:rgb(255,0,0);stroke-width:0.125" />
  <line x1="-4.29632568359375" y1="-9.5133752822875977" x2="-4.448432445526123" y2="-9.3740777969360352" style="stroke:rgb(255,0,0);stroke-width:0.125" />
  <line x1="-4.2922515869140625" y1="-9.2393646240234375" x2="-4.448432445526123" y2="-9.3740777969360352" style="stroke:rgb(255,0,0);stroke-width:0.125" />
  <line x1="-5.0847010612487793" y1="-9.3956298828125" x2="-5.49545431137085" y2="-9.41999340057373" style="stroke:rgb(255,0,0);stroke-width:0.125" />
  <line x1="-5.3251795768737793" y1="-9.5541629791259766" x2="-5.49545431137085" y2="-9.41999340057373" style="stroke:rgb(255,0,0);stroke-width:0.125" />
  <line x1="-5.3422341346740723" y1="-9.26663589477539" x2="-5.49545431137085" y2="-9.41999340057373" style="stroke:rgb(255,0,0);stroke-width:0.125" />
  <line x1="-6.1491107940673828" y1="-9.4529876708984375" x2="-6.57314395904541" y2="-9.4730377197265625" style="stroke:rgb(255,0,0);stroke-width:0.125" />
  <line x1="-6.3991498947143555" y1="-9.6135540008544922" x2="-6.57314395904541" y2="-9.4730377197265625" style="stroke:rgb(255,0,0);stroke-width:0.125" />
  <line x1="-6.4131851196289063" y1="-9.3167304992675781" x2="-6.57314395904541" y2="-9.4730377197265625" style="stroke:rgb(255,0,0);stroke-width:0.125" />
  <line x1="-7.2377467155456543" y1="-9.5011520385742188" x2="-7.6661767959594727" y2="-9.5224790573120117" style="stroke:rgb(255,0,0);stroke-width:0.125" />
  <line x1="-7.4900040626525879" y1="-9.664031982421875" x2="-7.6661767959594727" y2="-9.5224790573120117" style="stroke:rgb(255,0,0);stroke-width:0.125" />
  <line x1="-7.5049328804016113" y1="-9.364130973815918" x2="-7.6661767959594727" y2="-9.5224790573120117" style="stroke:rgb(255,0,0);stroke-width:0.125" />
  <line x1="-8.3355112075805664" y1="-9.578369140625" x2="-8.7685947418212891" y2="-9.6181211471557617" style="stroke:rgb(255,0,0);stroke-width:0.125" />
  <line x1="-8.58414077758789" y1="-9.7540464401245117" x2="-8.7685947418212891" y2="-9.6181211471557617" style="stroke:rgb(255,0,0);stroke-width:0.125" />
  <line x1="-8.6119670867919922" y1="-9.4508876800537109" x2="-8.7685947418212891" y2="-9.6181211471557617" style="stroke:rgb(255,0,0);stroke-width:0.125" />
  <line x1="-9.4441699981689453" y1="-9.685760498046875" x2="-9.8841981887817383" y2="-9.742457389831543" style="stroke:rgb(255,0,0);stroke-width:0.125" />
  <line x1="-9.6910791397094727" y1="-9.874140739440918" x2="-9.8841981887817383" y2="-9.742457389831543" style="stroke:rgb(255,0,0);stroke-width:0.125" />
  <line x1="-9.7307662963867188" y1="-9.5661211013793945" x2="-9.8841981887817383" y2="-9.742457389831543" style="stroke:rgb(255,0,0);stroke-width:0.125" />
  <line x1="-10.538664817810059" y1="-9.8865814208984375" x2="-10.977643966674805" y2="-9.9801721572875977" style="stroke:rgb(255,0,0);stroke-width:0.125" />
  <line x1="-10.772025108337402" y1="-10.096960067749023" x2="-10.977643966674805" y2="-9.9801721572875977" style="stroke:rgb(255,0,0);stroke-width:0.125" />
  <line x1="-10.837538719177246" y1="-9.78967571258545" x2="-10.977643966674805" y2="-9.9801721572875977" style="stroke:rgb(255,0,0);stroke-width:0.125" />
  <line x1="-11.606328964233398" y1="-10.21026611328125" x2="-11.995702743530273" y2="-10.381403923034668" style="stroke:rgb(255,0,0);stroke-width:0.125" />
  <line x1="-11.782476425170898" y1="-10.45029354095459" x2="-11.995702743530273" y2="-10.381403923034668" style="stroke:rgb(255,0,0);stroke-width:0.125" />
  <line x1="-11.90227222442627" y1="-10.177732467651367" x2="-11.995702743530273" y2="-10.381403923034668" style="stroke:rgb(255,0,0);stroke-width:0.125" />
  <line x1="-12.452630043029785" y1="-10.770790100097656" x2="-12.717800140380859" y2="-11.035795211791992" style="stroke:rgb(255,0,0);stroke-width:0.125" />
  <line x1="-12.520628929138184" y1="-11.024250030517578" x2="-12.717800140380859" y2="-11.035795211791992" style="stroke:rgb(255,0,0);stroke-width:0.125" />
  <line x1="-12.706132888793945" y1="-10.838631629943848" x2="-12.717800140380859" y2="-11.035795211791992" style="stroke:rgb(255,0,0);stroke-width:0.125" />
  <line x1="-12.884574890136719" y1="-11.530052185058594" x2="-12.944720268249512" y2="-11.8616361618042" style="stroke:rgb(255,0,0);stroke-width:0.125" />
  <line x1="-12.80498218536377" y1="-11.752115249633789" x2="-12.944720268249512" y2="-11.8616361618042" style="stroke:rgb(255,0,0);stroke-width:0.125" />
  <line x1="-13.037090301513672" y1="-11.710013389587402" x2="-12.944720268249512" y2="-11.8616361618042" style="stroke:rgb(255,0,0);stroke-width:0.125" />
  <line x1="-12.888410568237305" y1="-12.423446655273438" x2="-12.855565071105957" y2="-12.792606353759766" style="stroke:rgb(255,0,0);stroke-width:0.125" />
  <line x1="-12.739293098449707" y1="-12.6357421875" x2="-12.855565071105957" y2="-12.792606353759766" style="stroke:rgb(255,0,0);stroke-width:0.125" />
  <line x1="-12.99770450592041" y1="-12.658733367919922" x2="-12.855565071105957" y2="-12.792606353759766" style="stroke:rgb(255,0,0);stroke-width:0.125" />
  <line x1="-12.816131591796875" y1="-13.399429321289063" x2="-12.794968605041504" y2="-13.796089172363281" style="stroke:rgb(255,0,0);stroke-width:0.125" />
  <line x1="-12.664471626281738" y1="-13.632484436035156" x2="-12.794968605041504" y2="-13.796089172363281" style="stroke:rgb(255,0,0);stroke-width:0.125" />
  <line x1="-12.942133903503418" y1="-13.647298812866211" x2="-12.794968605041504" y2="-13.796089172363281" style="stroke:rgb(255,0,0);stroke-width:0.125" />
  <line x1="-12.777500152587891" y1="-14.43310546875" x2="-12.769536018371582" y2="-14.847779273986816" style="stroke:rgb(255,0,0);stroke-width:0.125" />
  <line x1="-12.627536773681641" y1="-14.681700706481934" x2="-12.769536018371582" y2="-14.847779273986816" style="stroke:rgb(255,0,0);stroke-width:0.125" />
  <line x1="-12.917807579040527" y1="-14.687274932861328" x2="-12.769536018371582" y2="-14.847779273986816" style="stroke:rgb(255,0,0);stroke-width:0.125" />
  <line x1="-12.790243148803711" y1="-15.505867004394531" x2="-12.799355506896973" y2="-15.927596092224121" style="stroke:rgb(255,0,0);stroke-width:0.125" />
  <line x1="-12.648161888122559" y1="-15.764716148376465" x2="-12.799355506896973" y2="-15.927596092224121" style="stroke:rgb(255,0,0);stroke-width:0.125" />
  <line x1="-12.94337272644043" y1="-15.758337020874023" x2="-12.799355506896973" y2="-15.927596092224121" style="stroke:rgb(255,0,0);stroke-width:0.125" />
  <line x1="-12.81422233581543" y1="-16.578041076660156" x2="-12.824158668518066" y2="-17.00816535949707" style="stroke:rgb(255,0,0);stroke-width:0.125" />
  <line x1="-12.669702529907227" y1="-16.842267990112305" x2="-12.824158668518066" y2="-17.00816535949707" style="stroke:rgb(255,0,0);stroke-width:0.125" />
  <line x1="-12.970788955688477" y1="-16.835311889648438" x2="-12.824158668518066" y2="-17.00816535949707" style="stroke:rgb(255,0,0);stroke-width:0.125" />
  <line x1="-12.840362548828125" y1="-17.6817626953125" x2="-12.850925445556641" y2="-18.118583679199219" style="stroke:rgb(255,0,0);stroke-width:0.125" />
  <line x1="-12.693878173828125" y1="-17.950267791748047" x2="-12.850925445556641" y2="-18.118583679199219" style="stroke:rgb(255,0,0);stroke-width:0.125" />
  <line x1="-12.999652862548828" y1="-17.942874908447266" x2="-12.850925445556641" y2="-18.118583679199219" style="stroke:rgb(255,0,0);stroke-width:0.125" />
  <line x1="-12.867684364318848" y1="-18.795097351074219" x2="-12.878660202026367" y2="-19.236339569091797" style="stroke:rgb(255,0,0);stroke-width:0.125" />
  <line x1="-12.719902992248535" y1="-19.066429138183594" x2="-12.878660202026367" y2="-19.236339569091797" style="stroke:rgb(255,0,0);stroke-width:0.125" />
  <line x1="-13.028773307800293" y1="-19.058744430541992" x2="-12.878660202026367" y2="-19.236339569091797" style="stroke:rgb(255,0,0);stroke-width:0.125" />
  <line x1="-12.89527702331543" y1="-19.891281127929688" x2="-12.906532287597656" y2="-20.333017349243164" style="stroke:rgb(255,0,0);stroke-width:0.125" />
  <line x1="-12.747492790222168" y1="-20.163009643554688" x2="-12.906532287597656" y2="-20.333017349243164" style="stroke:rgb(255,0,0);stroke-width:0.125" />
  <line x1="-13.056708335876465" y1="-20.155130386352539" x2="-12.906532287597656" y2="-20.333017349243164" style="stroke:rgb(255,0,0);stroke-width:0.125" />
  <line x1="-12.925048828125" y1="-21.00433349609375" x2="-12.942765235900879" y2="-21.448648452758789" style="stroke:rgb(255,0,0);stroke-width:0.125" />
  <line x1="-12.780279159545898" y1="-21.279886245727539" x2="-12.942765235900879" y2="-21.448648452758789" style="stroke:rgb(255,0,0);stroke-width:0.125" />
  <line x1="-13.091299057006836" y1="-21.267484664916992" x2="-12.942765235900879" y2="-21.448648452758789" style="stroke:rgb(255,0,0);stroke-width:0.125" />
  <line x1="-13.059707641601563" y1="-22.136398315429688" x2="-13.1533842086792" y2="-22.580432891845703" style="stroke:rgb(255,0,0);stroke-width:0.125" />
  <line x1="-12.961084365844727" y1="-22.438365936279297" x2="-13.1533842086792" y2="-22.580432891845703" style="stroke:rgb(255,0,0);stroke-width:0.125" />
  <line x1="-13.271907806396484" y1="-22.372793197631836" x2="-13.1533842086792" y2="-22.580432891845703" style="stroke:rgb(255,0,0);stroke-width:0.125" />
  <line x1="-13.315099716186523" y1="-23.268272399902344" x2="-13.402057647705078" y2="-23.711568832397461" style="stroke:rgb(255,0,0);stroke-width:0.125" />
  <line x1="-13.212661743164063" y1="-23.567441940307617" x2="-13.402057647705078" y2="-23.711568832397461" style="stroke:rgb(255,0,0);stroke-width:0.125" />
  <line x1="-13.522968292236328" y1="-23.506570816040039" x2="-13.402057647705078" y2="-23.711568832397461" style="stroke:rgb(255,0,0);stroke-width:0.125" />
  <line x1="-13.422445297241211" y1="-24.391166687011719" x2="-13.42100715637207" y2="-24.836837768554688" style="stroke:rgb(255,0,0);stroke-width:0.125" />
  <line x1="-13.265588760375977" y1="-24.660837173461914" x2="-13.42100715637207" y2="-24.836837768554688" style="stroke:rgb(255,0,0);stroke-width:0.125" />
  <line x1="-13.577558517456055" y1="-24.661844253540039" x2="-13.42100715637207" y2="-24.836837768554688" style="stroke:rgb(255,0,0);stroke-width:0.125" />
  <line x1="-13.404376983642578" y1="-25.517829895019531" x2="-13.392498016357422" y2="-25.964637756347656" style="stroke:rgb(255,0,0);stroke-width:0.125" />
  <line x1="-13.240793228149414" y1="-25.784534454345703" x2="-13.392498016357422" y2="-25.964637756347656" style="stroke:rgb(255,0,0);stroke-width:0.125" />
  <line x1="-13.553558349609375" y1="-25.792850494384766" x2="-13.392498016357422" y2="-25.964637756347656" style="stroke:rgb(255,0,0);stroke-width:0.125" />
  <line x1="-13.351779937744141" y1="-26.655891418457031" x2="-13.333971977233887" y2="-27.106216430664063" style="stroke:rgb(255,0,0);stroke-width:0.125" />
  <line x1="-13.183370590209961" y1="-26.922653198242188" x2="-13.333971977233887" y2="-27.106216430664063" style="stroke:rgb(255,0,0);stroke-width:0.125" />
  <line x1="-13.498598098754883" y1="-26.93511962890625" x2="-13.333971977233887" y2="-27.106216430664063" style="stroke:rgb(255,0,0);stroke-width:0.125" />
  <line x1="-13.275575637817383" y1="-27.781021118164063" x2="-13.2170991897583" y2="-28.220577239990234" style="stroke:rgb(255,0,0);stroke-width:0.125" />
  <line x1="-13.086281776428223" y1="-28.027021408081055" x2="-13.2170991897583" y2="-28.220577239990234" style="stroke:rgb(255,0,0);stroke-width:0.125" />
  <line x1="-13.39397144317627" y1="-28.067955017089844" x2="-13.2170991897583" y2="-28.220577239990234" style="stroke:rgb(255,0,0);stroke-width:0.125" />
  <line x1="-13.027542114257813" y1="-28.8580322265625" x2="-12.8826322555542" y2="-29.256137847900391" style="stroke:rgb(255,0,0);stroke-width:0.125" />
  <line x1="-12.800357818603516" y1="-29.048652648925781" x2="-12.8826322555542" y2="-29.256137847900391" style="stroke:rgb(255,0,0);stroke-width:0.125" />
  <line x1="-13.079031944274902" y1="-29.150089263916016" x2="-12.8826322555542" y2="-29.256137847900391" style="stroke:rgb(255,0,0);stroke-width:0.125" />
  <line x1="-12.550483703613281" y1="-29.789726257324219" x2="-12.321414947509766" y2="-30.118772506713867" style="stroke:rgb(255,0,0);stroke-width:0.125" />
  <line x1="-12.296451568603516" y1="-29.909025192260742" x2="-12.321414947509766" y2="-30.118772506713867" style="stroke:rgb(255,0,0);stroke-width:0.125" />
  <line x1="-12.52678394317627" y1="-30.069374084472656" x2="-12.321414947509766" y2="-30.118772506713867" style="stroke:rgb(255,0,0);stroke-width:0.125" />
  <line x1="-11.881607055664063" y1="-30.433387756347656" x2="-11.584381103515625" y2="-30.602924346923828" style="stroke:rgb(255,0,0);stroke-width:0.125" />
  <line x1="-11.642086029052734" y1="-30.4321346282959" x2="-11.584381103515625" y2="-30.602924346923828" style="stroke:rgb(255,0,0);stroke-width:0.125" />
  <line x1="-11.760761260986328" y1="-30.640192031860352" x2="-11.584381103515625" y2="-30.602924346923828" style="stroke:rgb(255,0,0);stroke-width:0.125" />
  <line x1="-11.090544700622559" y1="-30.604774475097656" x2="-10.759492874145508" y2="-30.577365875244141" style="stroke:rgb(255,0,0);stroke-width:0.125" />
  <line x1="-10.899448394775391" y1="-30.4722900390625" x2="-10.759492874145508" y2="-30.577365875244141" style="stroke:rgb(255,0,0);stroke-width:0.125" />
  <line x1="-10.88026237487793" y1="-30.70402717590332" x2="-10.759492874145508" y2="-30.577365875244141" style="stroke:rgb(255,0,0);stroke-width:0.125" />
  <line x1="-10.21356201171875" y1="-30.397079467773438" x2="-9.8484430313110352" y2="-30.297147750854492" style="stroke:rgb(255,0,0);stroke-width:0.125" />
  <line x1="-10.027196884155273" y1="-30.208707809448242" x2="-9.8484430313110352" y2="-30.297147750854492" style="stroke:rgb(255,0,0);stroke-width:0.125" />
  <line x1="-9.9572439193725586" y1="-30.464290618896484" x2="-9.8484430313110352" y2="-30.297147750854492" style="stroke:rgb(255,0,0);stroke-width:0.125" />
  <line x1="-9.2568845748901367" y1="-30.223388671875" x2="-8.8661861419677734" y2="-30.188833236694336" style="stroke:rgb(255,0,0);stroke-width:0.125" />
  <line x1="-9.032130241394043" y1="-30.065696716308594" x2="-8.8661861419677734" y2="-30.188833236694336" style="stroke:rgb(255,0,0);stroke-width:0.125" />
  <line x1="-9.0079421997070313" y1="-30.33918571472168" x2="-8.8661861419677734" y2="-30.188833236694336" style="stroke:rgb(255,0,0);stroke-width:0.125" />
  <line x1="-8.2410764694213867" y1="-30.181976318359375" x2="-7.8379173278808594" y2="-30.182050704956055" style="stroke:rgb(255,0,0);stroke-width:0.125" />
  <line x1="-7.99664831161499" y1="-30.040916442871094" x2="-7.8379173278808594" y2="-30.182050704956055" style="stroke:rgb(255,0,0);stroke-width:0.125" />
  <line x1="-7.9967002868652344" y1="-30.323127746582031" x2="-7.8379173278808594" y2="-30.182050704956055" style="stroke:rgb(255,0,0);stroke-width:0.125" />
  <line x1="-7.1974506378173828" y1="-30.217300415039063" x2="-6.7809252738952637" y2="-30.242620468139648" style="stroke:rgb(255,0,0);stroke-width:0.125" />
  <line x1="-6.9360837936401367" y1="-30.08686637878418" x2="-6.7809252738952637" y2="-30.242620468139648" style="stroke:rgb(255,0,0);stroke-width:0.125" />
  <line x1="-6.9538073539733887" y1="-30.378433227539063" x2="-6.7809252738952637" y2="-30.242620468139648" style="stroke:rgb(255,0,0);stroke-width:0.125" />
  <line x1="-6.1200237274169922" y1="-30.303413391113281" x2="-5.6937603950500488" y2="-30.341983795166016" style="stroke:rgb(255,0,0);stroke-width:0.125" />
  <line x1="-5.84811544418335" y1="-30.177602767944336" x2="-5.6937603950500488" y2="-30.341983795166016" style="stroke:rgb(255,0,0);stroke-width:0.125" />
  <line x1="-5.875114917755127" y1="-30.475988388061523" x2="-5.6937603950500488" y2="-30.341983795166016" style="stroke:rgb(255,0,0);stroke-width:0.125" />
  <line x1="-5.0361790657043457" y1="-30.399429321289063" x2="-4.6028327941894531" y2="-30.437236785888672" style="stroke:rgb(255,0,0);stroke-width:0.125" />
  <line x1="-4.7602438926696777" y1="-30.27067756652832" x2="-4.6028327941894531" y2="-30.437236785888672" style="stroke:rgb(255,0,0);stroke-width:0.125" />
  <line x1="-4.7867097854614258" y1="-30.574020385742188" x2="-4.6028327941894531" y2="-30.437236785888672" style="stroke:rgb(255,0,0);stroke-width:0.125" />
  <line x1="-3.9502778053283691" y1="-30.491012573242188" x2="-3.5166645050048828" y2="-30.526657104492188" style="stroke:rgb(255,0,0);stroke-width:0.125" />
  <line x1="-3.6749379634857178" y1="-30.360857009887695" x2="-3.5166645050048828" y2="-30.526657104492188" style="stroke:rgb(255,0,0);stroke-width:0.125" />
  <line x1="-3.6998894214630127" y1="-30.664386749267578" x2="-3.5166645050048828" y2="-30.526657104492188" style="stroke:rgb(255,0,0);stroke-width:0.125" />
  <line x1="-2.8422713279724121" y1="-30.575271606445313" x2="-2.4032282829284668" y2="-30.604070663452148" style="stroke:rgb(255,0,0);stroke-width:0.125" />
  <line x1="-2.5660362243652344" y1="-30.439064025878906" x2="-2.4032282829284668" y2="-30.604070663452148" style="stroke:rgb(255,0,0);stroke-width:0.125" />
  <line x1="-2.5861952304840088" y1="-30.746395111083984" x2="-2.4032282829284668" y2="-30.604070663452148" style="stroke:rgb(255,0,0);stroke-width:0.125" />
  <line x1="-1.7274389266967773" y1="-30.640663146972656" x2="-1.2849591970443726" y2="-30.66400146484375" style="stroke:rgb(255,0,0);stroke-width:0.125" />
  <line x1="-1.4510316848754883" y1="-30.499942779541016" x2="-1.2849591970443726" y2="-30.66400146484375" style="stroke:rgb(255,0,0);stroke-width:0.125" />
  <line x1="-1.4673680067062378" y1="-30.80967903137207" x2="-1.2849591970443726" y2="-30.66400146484375" style="stroke:rgb(255,0,0);stroke-width:0.125" />
  <line x1="-0.59348535537719727" y1="-30.694961547851563" x2="-0.14850109815597534" y2="-30.714017868041992" style="stroke:rgb(255,0,0);stroke-width:0.125" />
  <line x1="-0.31705829501152039" y1="-30.550769805908203" x2="-0.14850109815597534" y2="-30.714017868041992" style="stroke:rgb(255,0,0);stroke-width:0.125" />
  <line x1="-0.33039769530296326" y1="-30.862258911132813" x2="-0.14850109815597534" y2="-30.714017868041992" style="stroke:rgb(255,0,0);stroke-width:0.125" />
  <line x1="0.50176620483398438" y1="-30.736907958984375" x2="0.94304966926574707" y2="-30.751527786254883" style="stroke:rgb(255,0,0);stroke-width:0.125" />
  <line x1="0.77439671754837036" y1="-30.59132194519043" x2="0.94304966926574707" y2="-30.751527786254883" style="stroke:rgb(255,0,0);stroke-width:0.125" />
  <line x1="0.76416349411010742" y1="-30.900218963623047" x2="0.94304966926574707" y2="-30.751527786254883" style="stroke:rgb(255,0,0);stroke-width:0.125" />
  <line x1="1.6127486228942871" y1="-30.769966125488281" x2="2.0542728900909424" y2="-30.781639099121094" style="stroke:rgb(255,0,0);stroke-width:0.125" />
  <line x1="1.8844937086105347" y1="-30.622509002685547" x2="2.0542728900909424" y2="-30.781639099121094" style="stroke:rgb(255,0,0);stroke-width:0.125" />
  <line x1="1.8763231039047241" y1="-30.931575775146484" x2="2.0542728900909424" y2="-30.781639099121094" style="stroke:rgb(255,0,0);stroke-width:0.125" />
  <line x1="2.7406706809997559" y1="-30.771255493164063" x2="3.185272216796875" y2="-30.750087738037109" style="stroke:rgb(255,0,0);stroke-width:0.125" />
  <line x1="3.0027875900268555" y1="-30.602813720703125" x2="3.185272216796875" y2="-30.750087738037109" style="stroke:rgb(255,0,0);stroke-width:0.125" />
  <line x1="3.0176045894622803" y1="-30.914033889770508" x2="3.185272216796875" y2="-30.750087738037109" style="stroke:rgb(255,0,0);stroke-width:0.125" />
  <line x1="3.8709874153137207" y1="-30.718254089355469" x2="4.31838846206665" y2="-30.704219818115234" style="stroke:rgb(255,0,0);stroke-width:0.125" />
  <line x1="4.1372981071472168" y1="-30.553155899047852" x2="4.31838846206665" y2="-30.704219818115234" style="stroke:rgb(255,0,0);stroke-width:0.125" />
  <line x1="4.1471219062805176" y1="-30.866336822509766" x2="4.31838846206665" y2="-30.704219818115234" style="stroke:rgb(255,0,0);stroke-width:0.125" />
  <line x1="4.9908185005187988" y1="-30.700950622558594" x2="5.438605785369873" y2="-30.700141906738281" style="stroke:rgb(255,0,0);stroke-width:0.125" />
  <line x1="5.26199197769165" y1="-30.543735504150391" x2="5.438605785369873" y2="-30.700141906738281" style="stroke:rgb(255,0,0);stroke-width:0.125" />
  <line x1="5.2625579833984375" y1="-30.857185363769531" x2="5.438605785369873" y2="-30.700141906738281" style="stroke:rgb(255,0,0);stroke-width:0.125" />
  <line x1="6.1499180793762207" y1="-30.678207397460938" x2="6.6184377670288086" y2="-30.657649993896484" style="stroke:rgb(255,0,0);stroke-width:0.125" />
  <line x1="6.4267477989196777" y1="-30.501762390136719" x2="6.6184377670288086" y2="-30.657649993896484" style="stroke:rgb(255,0,0);stroke-width:0.125" />
  <line x1="6.44113826751709" y1="-30.829727172851563" x2="6.6184377670288086" y2="-30.657649993896484" style="stroke:rgb(255,0,0);stroke-width:0.125" />
  <line x1="7.3529515266418457" y1="-30.656143188476563" x2="7.8322038650512695" y2="-30.658527374267578" style="stroke:rgb(255,0,0);stroke-width:0.125" />
  <line x1="7.6443171501159668" y1="-30.489850997924805" x2="7.8322038650512695" y2="-30.658527374267578" style="stroke:rgb(255,0,0);stroke-width:0.125" />
  <line x1="7.6426482200622559" y1="-30.825326919555664" x2="7.8322038650512695" y2="-30.658527374267578" style="stroke:rgb(255,0,0);stroke-width:0.125" />
  <line x1="8.6082878112792969" y1="-30.658653259277344" x2="9.1186466217041016" y2="-30.672380447387695" style="stroke:rgb(255,0,0);stroke-width:0.125" />
  <line x1="8.922480583190918" y1="-30.488348007202148" x2="9.1186466217041016" y2="-30.672380447387695" style="stroke:rgb(255,0,0);stroke-width:0.125" />
  <line x1="8.912872314453125" y1="-30.845600128173828" x2="9.1186466217041016" y2="-30.672380447387695" style="stroke:rgb(255,0,0);stroke-width:0.125" />
  <line x1="9.8263759613037109" y1="-30.814292907714844" x2="10.247591972351074" y2="-30.935770034790039" style="stroke:rgb(255,0,0);stroke-width:0.125" />
  <line x1="10.124241828918457" y1="-30.740509033203125" x2="10.247591972351074" y2="-30.935770034790039" style="stroke:rgb(255,0,0);stroke-width:0.125" />
  <line x1="10.039207458496094" y1="-31.035360336303711" x2="10.247591972351074" y2="-30.935770034790039" style="stroke:rgb(255,0,0);stroke-width:0.125" />
  <line x1="10.610414505004883" y1="-31.286544799804688" x2="10.808928489685059" y2="-31.521081924438477" style="stroke:rgb(255,0,0);stroke-width:0.125" />
  <line x1="10.812844276428223" y1="-31.359245300292969" x2="10.808928489685059" y2="-31.521081924438477" style="stroke:rgb(255,0,0);stroke-width:0.125" />
  <line x1="10.648669242858887" y1="-31.498205184936523" x2="10.808928489685059" y2="-31.521081924438477" style="stroke:rgb(255,0,0);stroke-width:0.125" />
  <line x1="10.819980621337891" y1="-31.980880737304688" x2="10.81085205078125" y2="-32.289760589599609" style="stroke:rgb(255,0,0);stroke-width:0.125" />
  <line x1="10.922554016113281" y1="-32.17132568359375" x2="10.81085205078125" y2="-32.289760589599609" style="stroke:rgb(255,0,0);stroke-width:0.125" />
  <line x1="10.706338882446289" y1="-32.164932250976563" x2="10.81085205078125" y2="-32.289760589599609" style="stroke:rgb(255,0,0);stroke-width:0.125" />
  <line x1="10.721904754638672" y1="-32.81158447265625" x2="10.673724174499512" y2="-33.164627075195313" style="stroke:rgb(255,0,0);stroke-width:0.125" />
  <line x1="10.816262245178223" y1="-33.0424690246582" x2="10.673724174499512" y2="-33.164627075195313" style="stroke:rgb(255,0,0);stroke-width:0.125" />
  <line x1="10.569131851196289" y1="-33.008743286132813" x2="10.673724174499512" y2="-33.164627075195313" style="stroke:rgb(255,0,0);stroke-width:0.125" />
  <line x1="10.618398666381836" y1="-33.743881225585938" x2="10.583251953125" y2="-34.129825592041016" style="stroke:rgb(255,0,0);stroke-width:0.125" />
  <line x1="10.732172012329102" y1="-33.990146636962891" x2="10.583251953125" y2="-34.129825592041016" style="stroke:rgb(255,0,0);stroke-width:0.125" />
  <line x1="10.46201229095459" y1="-33.965545654296875" x2="10.583251953125" y2="-34.129825592041016" style="stroke:rgb(255,0,0);stroke-width:0.125" />
  <line x1="10.540876388549805" y1="-34.743087768554688" x2="10.513792991638184" y2="-35.149383544921875" style="stroke:rgb(255,0,0);stroke-width:0.125" />
  <line x1="10.666662216186523" y1="-34.998870849609375" x2="10.513792991638184" y2="-35.149383544921875" style="stroke:rgb(255,0,0);stroke-width:0.125" />
  <line x1="10.382253646850586" y1="-34.979911804199219" x2="10.513792991638184" y2="-35.149383544921875" style="stroke:rgb(255,0,0);stroke-width:0.125" />
  <line x1="10.481340408325195" y1="-35.76971435546875" x2="10.460114479064941" y2="-36.187408447265625" style="stroke:rgb(255,0,0);stroke-width:0.125" />
  <line x1="10.614665985107422" y1="-36.030357360839844" x2="10.460114479064941" y2="-36.187408447265625" style="stroke:rgb(255,0,0);stroke-width:0.125" />
  <line x1="10.322279930114746" y1="-36.015499114990234" x2="10.460114479064941" y2="-36.187408447265625" style="stroke:rgb(255,0,0);stroke-width:0.125" />
  <line x1="10.43719482421875" y1="-36.841140747070313" x2="10.426673889160156" y2="-37.269687652587891" style="stroke:rgb(255,0,0);stroke-width:0.125" />
  <line x1="10.580808639526367" y1="-37.1046142578125" x2="10.426673889160156" y2="-37.269687652587891" style="stroke:rgb(255,0,0);stroke-width:0.125" />
  <line x1="10.2808256149292" y1="-37.097251892089844" x2="10.426673889160156" y2="-37.269687652587891" style="stroke:rgb(255,0,0);stroke-width:0.125" />
  <line x1="10.431718826293945" y1="-37.940460205078125" x2="10.437700271606445" y2="-38.375225067138672" style="stroke:rgb(255,0,0);stroke-width:0.125" />
  <line x1="10.587512969970703" y1="-38.201927185058594" x2="10.437700271606445" y2="-38.375225067138672" style="stroke:rgb(255,0,0);stroke-width:0.125" />
  <line x1="10.283177375793457" y1="-38.20611572265625" x2="10.437700271606445" y2="-38.375225067138672" style="stroke:rgb(255,0,0);stroke-width:0.125" />
  <line x1="10.47559928894043" y1="-39.035018920898438" x2="10.512747764587402" y2="-39.470424652099609" style="stroke:rgb(255,0,0);stroke-width:0.125" />
  <line x1="10.650511741638184" y1="-39.285968780517578" x2="10.512747764587402" y2="-39.470424652099609" style="stroke:rgb(255,0,0);stroke-width:0.125" />
  <line x1="10.34572696685791" y1="-39.311969757080078" x2="10.512747764587402" y2="-39.470424652099609" style="stroke:rgb(255,0,0);stroke-width:0.125" />
  <line x1="10.653553009033203" y1="-40.107650756835938" x2="10.752331733703613" y2="-40.531837463378906" style="stroke:rgb(255,0,0);stroke-width:0.125" />
  <line x1="10.861900329589844" y1="-40.330226898193359" x2="10.752331733703613" y2="-40.531837463378906" style="stroke:rgb(255,0,0);stroke-width:0.125" />
  <line x1="10.564969062805176" y1="-40.399372100830078" x2="10.752331733703613" y2="-40.531837463378906" style="stroke:rgb(255,0,0);stroke-width:0.125" />
  <line x1="10.969213485717773" y1="-41.2015380859375" x2="11.130929946899414" y2="-41.647747039794922" style="stroke:rgb(255,0,0);stroke-width:0.125" />
  <line x1="11.223423004150391" y1="-41.415439605712891" x2="11.130929946899414" y2="-41.647747039794922" style="stroke:rgb(255,0,0);stroke-width:0.125" />
  <line x1="10.911075592041016" y1="-41.528640747070313" x2="11.130929946899414" y2="-41.647747039794922" style="stroke:rgb(255,0,0);stroke-width:0.125" />
  <line x1="11.414257049560547" y1="-42.310646057128906" x2="11.588155746459961" y2="-42.750751495361328" style="stroke:rgb(255,0,0);stroke-width:0.125" />
  <line x1="11.673714637756348" y1="-42.516582489013672" x2="11.588155746459961" y2="-42.750751495361328" style="stroke:rgb(255,0,0);stroke-width:0.125" />
  <line x1="11.365640640258789" y1="-42.638309478759766" x2="11.588155746459961" y2="-42.750751495361328" style="stroke:rgb(255,0,0);stroke-width:0.125" />
  <line x1="11.73298454284668" y1="-43.301338195800781" x2="11.802055358886719" y2="-43.579986572265625" style="stroke:rgb(255,0,0);stroke-width:0.125" />
  <line x1="11.872383117675781" y1="-43.446083068847656" x2="11.802055358886719" y2="-43.579986572265625" style="stroke:rgb(255,0,0);stroke-width:0.125" />
  <line x1="11.677330017089844" y1="-43.494434356689453" x2="11.802055358886719" y2="-43.579986572265625" style="stroke:rgb(255,0,0);stroke-width:0.125" />
  <line x1="11.758050918579102" y1="-43.763084411621094" x2="11.708282470703125" y2="-43.882297515869141" style="stroke:rgb(255,0,0);stroke-width:0.125" />
  <line x1="11.769604682922363" y1="-43.8527717590332" x2="11.708282470703125" y2="-43.882297515869141" style="stroke:rgb(255,0,0);stroke-width:0.125" />
  <line x1="11.686156272888184" y1="-43.81793212890625" x2="11.708282470703125" y2="-43.882297515869141" style="stroke:rgb(255,0,0);stroke-width:0.125" />
  <line x1="11.523548126220703" y1="-44.104843139648438" x2="11.397298812866211" y2="-44.278762817382813" style="stroke:rgb(255,0,0);stroke-width:0.125" />
  <line x1="11.507885932922363" y1="-44.254463195800781" x2="11.397298812866211" y2="-44.278762817382813" style="stroke:rgb(255,0,0);stroke-width:0.125" />
  <line x1="11.386141777038574" y1="-44.166088104248047" x2="11.397298812866211" y2="-44.278762817382813" style="stroke:rgb(255,0,0);stroke-width:0.125" />
  <line x1="11.182512283325195" y1="-44.64190673828125" x2="11.047622680664063" y2="-44.899810791015625" style="stroke:rgb(255,0,0);stroke-width:0.125" />
  <line x1="11.191005706787109" y1="-44.845462799072266" x2="11.047622680664063" y2="-44.899810791015625" style="stroke:rgb(255,0,0);stroke-width:0.125" />
  <line x1="11.010473251342773" y1="-44.751041412353516" x2="11.047622680664063" y2="-44.899810791015625" style="stroke:rgb(255,0,0);stroke-width:0.125" />
  <line x1="10.864355087280273" y1="-45.426223754882813" x2="10.731448173522949" y2="-45.7886848449707" style="stroke:rgb(255,0,0);stroke-width:0.125" />
  <line x1="10.910646438598633" y1="-45.692470550537109" x2="10.731448173522949" y2="-45.7886848449707" style="stroke:rgb(255,0,0);stroke-width:0.125" />
  <line x1="10.656922340393066" y1="-45.599437713623047" x2="10.731448173522949" y2="-45.7886848449707" style="stroke:rgb(255,0,0);stroke-width:0.125" />
  <line x1="10.475301742553711" y1="-46.374015808105469" x2="10.303454399108887" y2="-46.769382476806641" style="stroke:rgb(255,0,0);stroke-width:0.125" />
  <line x1="10.509503364562988" y1="-46.673843383789063" x2="10.303454399108887" y2="-46.769382476806641" style="stroke:rgb(255,0,0);stroke-width:0.125" />
  <line x1="10.232746124267578" y1="-46.553546905517578" x2="10.303454399108887" y2="-46.769382476806641" style="stroke:rgb(255,0,0);stroke-width:0.125" />
  <line x1="10.001928329467773" y1="-47.455574035644531" x2="9.7946739196777344" y2="-47.891502380371094" style="stroke:rgb(255,0,0);stroke-width:0.125" />
  <line x1="10.028861045837402" y1="-47.792381286621094" x2="9.7946739196777344" y2="-47.891502380371094" style="stroke:rgb(255,0,0);stroke-width:0.125" />
  <line x1="9.7237119674682617" y1="-47.647300720214844" x2="9.7946739196777344" y2="-47.891502380371094" style="stroke:rgb(255,0,0);stroke-width:0.125" />
  <line x1="9.401153564453125" y1="-48.485488891601563" x2="9.1273136138916016" y2="-48.843299865722656" style="stroke:rgb(255,0,0);stroke-width:0.125" />
  <line x1="9.3603811264038086" y1="-48.798244476318359" x2="9.1273136138916016" y2="-48.843299865722656" style="stroke:rgb(255,0,0);stroke-width:0.125" />
  <line x1="9.1099128723144531" y1="-48.6065559387207" x2="9.1273136138916016" y2="-48.843299865722656" style="stroke:rgb(255,0,0);stroke-width:0.125" />
  <line x1="8.6315708160400391" y1="-49.189598083496094" x2="8.2989501953125" y2="-49.3768196105957" style="stroke:rgb(255,0,0);stroke-width:0.125" />
  <line x1="8.4954586029052734" y1="-49.419513702392578" x2="8.2989501953125" y2="-49.3768196105957" style="stroke:rgb(255,0,0);stroke-width:0.125" />
  <line x1="8.3644018173217773" y1="-49.186679840087891" x2="8.2989501953125" y2="-49.3768196105957" style="stroke:rgb(255,0,0);stroke-width:0.125" />
  <line x1="7.7409310340881348" y1="-49.36773681640625" x2="7.3709039688110352" y2="-49.338088989257813" style="stroke:rgb(255,0,0);stroke-width:0.125" />
  <line x1="7.5062375068664551" y1="-49.479274749755859" x2="7.3709039688110352" y2="-49.338088989257813" style="stroke:rgb(255,0,0);stroke-width:0.125" />
  <line x1="7.52699089050293" y1="-49.220252990722656" x2="7.3709039688110352" y2="-49.338088989257813" style="stroke:rgb(255,0,0);stroke-width:0.125" />
  <line x1="6.7746758460998535" y1="-49.114227294921875" x2="6.3797664642333984" y2="-48.962425231933594" style="stroke:rgb(255,0,0);stroke-width:0.125" />
  <line x1="6.4821443557739258" y1="-49.160419464111328" x2="6.3797664642333984" y2="-48.962425231933594" style="stroke:rgb(255,0,0);stroke-width:0.125" />
  <line x1="6.5884056091308594" y1="-48.883983612060547" x2="6.3797664642333984" y2="-48.962425231933594" style="stroke:rgb(255,0,0);stroke-width:0.125" />
  <line x1="5.7562012672424316" y1="-48.735870361328125" x2="5.3442521095275879" y2="-48.6032829284668" style="stroke:rgb(255,0,0);stroke-width:0.125" />
  <line x1="5.4600653648376465" y1="-48.799674987792969" x2="5.3442521095275879" y2="-48.6032829284668" style="stroke:rgb(255,0,0);stroke-width:0.125" />
  <line x1="5.55287504196167" y1="-48.511310577392578" x2="5.3442521095275879" y2="-48.6032829284668" style="stroke:rgb(255,0,0);stroke-width:0.125" />
  <line x1="4.7152266502380371" y1="-48.45953369140625" x2="4.29512357711792" y2="-48.368625640869141" style="stroke:rgb(255,0,0);stroke-width:0.125" />
  <line x1="4.4287352561950684" y1="-48.551460266113281" x2="4.29512357711792" y2="-48.368625640869141" style="stroke:rgb(255,0,0);stroke-width:0.125" />
  <line x1="4.4923701286315918" y1="-48.257389068603516" x2="4.29512357711792" y2="-48.368625640869141" style="stroke:rgb(255,0,0);stroke-width:0.125" />
  <line x1="3.6398491859436035" y1="-48.269233703613281" x2="3.2102906703948975" y2="-48.214889526367188" style="stroke:rgb(255,0,0);stroke-width:0.125" />
  <line x1="3.3604230880737305" y1="-48.386634826660156" x2="3.2102906703948975" y2="-48.214889526367188" style="stroke:rgb(255,0,0);stroke-width:0.125" />
  <line x1="3.398463249206543" y1="-48.085945129394531" x2="3.2102906703948975" y2="-48.214889526367188" style="stroke:rgb(255,0,0);stroke-width:0.125" />
  <line x1="2.541710376739502" y1="-48.211654663085938" x2="2.1054978370666504" y2="-48.200893402099609" style="stroke:rgb(255,0,0);stroke-width:0.125" />
  <line x1="2.2735044956207275" y1="-48.357807159423828" x2="2.1054978370666504" y2="-48.200893402099609" style="stroke:rgb(255,0,0);stroke-width:0.125" />
  <line x1="2.2810366153717041" y1="-48.052455902099609" x2="2.1054978370666504" y2="-48.200893402099609" style="stroke:rgb(255,0,0);stroke-width:0.125" />
  <line x1="1.4283361434936523" y1="-48.191864013671875" x2="0.98745572566986084" y2="-48.186759948730469" style="stroke:rgb(255,0,0);stroke-width:0.125" />
  <line x1="1.1592804193496704" y1="-48.34307861328125" x2="0.98745572566986084" y2="-48.186759948730469" style="stroke:rgb(255,0,0);stroke-width:0.125" />
  <line x1="1.1628527641296387" y1="-48.034461975097656" x2="0.98745572566986084" y2="-48.186759948730469" style="stroke:rgb(255,0,0);stroke-width:0.125" />
  <line x1="0.32384252548217773" y1="-48.183670043945313" x2="-0.1180272102355957" y2="-48.18206787109375" style="stroke:rgb(255,0,0);stroke-width:0.125" />
  <line x1="0.0554119348526001" y1="-48.337352752685547" x2="-0.1180272102355957" y2="-48.18206787109375" style="stroke:rgb(255,0,0);stroke-width:0.125" />
  <line x1="0.056534558534622192" y1="-48.028041839599609" x2="-0.1180272102355957" y2="-48.18206787109375" style="stroke:rgb(255,0,0);stroke-width:0.125" />
  <line x1="-0.78852272033691406" y1="-48.183761596679688" x2="-1.2330806255340576" y2="-48.186542510986328" style="stroke:rgb(255,0,0);stroke-width:0.125" />
  <line x1="-1.0570487976074219" y1="-48.341041564941406" x2="-1.2330806255340576" y2="-48.186542510986328" style="stroke:rgb(255,0,0);stroke-width:0.125" />
  <line x1="-1.0589944124221802" y1="-48.029850006103516" x2="-1.2330806255340576" y2="-48.186542510986328" style="stroke:rgb(255,0,0);stroke-width:0.125" />
  <line x1="-1.917872428894043" y1="-48.207420349121094" x2="-2.36356782913208" y2="-48.223873138427734" style="stroke:rgb(255,0,0);stroke-width:0.125" />
  <line x1="-2.1823024749755859" y1="-48.373386383056641" x2="-2.36356782913208" y2="-48.223873138427734" style="stroke:rgb(255,0,0);stroke-width:0.125" />
  <line x1="-2.1938190460205078" y1="-48.0614013671875" x2="-2.36356782913208" y2="-48.223873138427734" style="stroke:rgb(255,0,0);stroke-width:0.125" />
  <line x1="-3.0269918441772461" y1="-48.267120361328125" x2="-3.468250036239624" y2="-48.299468994140625" style="stroke:rgb(255,0,0);stroke-width:0.125" />
  <line x1="-3.2831680774688721" y1="-48.441169738769531" x2="-3.468250036239624" y2="-48.299468994140625" style="stroke:rgb(255,0,0);stroke-width:0.125" />
  <line x1="-3.3058125972747803" y1="-48.132289886474609" x2="-3.468250036239624" y2="-48.299468994140625" style="stroke:rgb(255,0,0);stroke-width:0.125" />
  <line x1="-4.1407022476196289" y1="-48.366798400878906" x2="-4.5827054977416992" y2="-48.4127082824707" style="stroke:rgb(255,0,0);stroke-width:0.125" />
  <line x1="-4.3925838470458984" y1="-48.549331665039063" x2="-4.5827054977416992" y2="-48.4127082824707" style="stroke:rgb(255,0,0);stroke-width:0.125" />
  <line x1="-4.4247212409973145" y1="-48.23992919921875" x2="-4.5827054977416992" y2="-48.4127082824707" style="stroke:rgb(255,0,0);stroke-width:0.125" />
  <line x1="-5.2521705627441406" y1="-48.4681396484375" x2="-5.7031168937683105" y2="-48.490516662597656" style="stroke:rgb(255,0,0);stroke-width:0.125" />
  <line x1="-5.5177106857299805" y1="-48.639533996582031" x2="-5.7031168937683105" y2="-48.490516662597656" style="stroke:rgb(255,0,0);stroke-width:0.125" />
  <line x1="-5.5333738327026367" y1="-48.323871612548828" x2="-5.7031168937683105" y2="-48.490516662597656" style="stroke:rgb(255,0,0);stroke-width:0.125" />
  <line x1="-6.4498920440673828" y1="-48.432846069335938" x2="-6.9375767707824707" y2="-48.396354675292969" style="stroke:rgb(255,0,0);stroke-width:0.125" />
  <line x1="-6.7583069801330566" y1="-48.581413269042969" x2="-6.9375767707824707" y2="-48.396354675292969" style="stroke:rgb(255,0,0);stroke-width:0.125" />
  <line x1="-6.7327637672424316" y1="-48.240036010742188" x2="-6.9375767707824707" y2="-48.396354675292969" style="stroke:rgb(255,0,0);stroke-width:0.125" />
  <line x1="-7.7198762893676758" y1="-48.313064575195313" x2="-8.2449464797973633" y2="-48.262771606445313" style="stroke:rgb(255,0,0);stroke-width:0.125" />
  <line x1="-8.0557861328125" y1="-48.466350555419922" x2="-8.2449464797973633" y2="-48.262771606445313" style="stroke:rgb(255,0,0);stroke-width:0.125" />
  <line x1="-8.02057933807373" y1="-48.098800659179688" x2="-8.2449464797973633" y2="-48.262771606445313" style="stroke:rgb(255,0,0);stroke-width:0.125" />
  <line x1="-8.9858341217041016" y1="-48.216514587402344" x2="-9.42767333984375" y2="-48.194549560546875" style="stroke:rgb(255,0,0);stroke-width:0.125" />
  <line x1="-9.2613716125488281" y1="-48.357845306396484" x2="-9.42767333984375" y2="-48.194549560546875" style="stroke:rgb(255,0,0);stroke-width:0.125" />
  <line x1="-9.245997428894043" y1="-48.048557281494141" x2="-9.42767333984375" y2="-48.194549560546875" style="stroke:rgb(255,0,0);stroke-width:0.125" />
  <line x1="-9.8551406860351563" y1="-48.25592041015625" x2="-10.110352516174316" y2="-48.304782867431641" style="stroke:rgb(255,0,0);stroke-width:0.125" />
  <line x1="-9.9927530288696289" y1="-48.3748664855957" x2="-10.110352516174316" y2="-48.304782867431641" style="stroke:rgb(255,0,0);stroke-width:0.125" />
  <line x1="-10.026956558227539" y1="-48.196216583251953" x2="-10.110352516174316" y2="-48.304782867431641" style="stroke:rgb(255,0,0);stroke-width:0.125" />
  <line x1="-10.344729423522949" y1="-48.339584350585938" x2="-10.470471382141113" y2="-48.337924957275391" style="stroke:rgb(255,0,0);stroke-width:0.125" />
  <line x1="-10.421537399291992" y1="-48.382587432861328" x2="-10.470471382141113" y2="-48.337924957275391" style="stroke:rgb(255,0,0);stroke-width:0.125" />
  <line x1="-10.420375823974609" y1="-48.2945671081543" x2="-10.470471382141113" y2="-48.337924957275391" style="stroke:rgb(255,0,0);stroke-width:0.125" />
  <line x1="-10.451985359191895" y1="-48.323707580566406" x2="-10.415785789489746" y2="-48.334434509277344" style="stroke:rgb(255,0,0);stroke-width:0.125" />
  <line x1="-10.426285743713379" y1="-48.317539215087891" x2="-10.415785789489746" y2="-48.334434509277344" style="stroke:rgb(255,0,0);stroke-width:0.125" />
  <line x1="-10.433794975280762" y1="-48.342880249023438" x2="-10.415785789489746" y2="-48.334434509277344" style="stroke:rgb(255,0,0);stroke-width:0.125" />
  <line x1="-10.185803413391113" y1="-48.48968505859375" x2="-10.017691612243652" y2="-48.621978759765625" style="stroke:rgb(255,0,0);stroke-width:0.125" />
  <line x1="-10.037588119506836" y1="-48.511043548583984" x2="-10.017691612243652" y2="-48.621978759765625" style="stroke:rgb(255,0,0);stroke-width:0.125" />
  <line x1="-10.130193710327148" y1="-48.62872314453125" x2="-10.017691612243652" y2="-48.621978759765625" style="stroke:rgb(255,0,0);stroke-width:0.125" />
  <line x1="-9.7214822769165039" y1="-48.96563720703125" x2="-9.5401020050048828" y2="-49.205245971679688" style="stroke:rgb(255,0,0);stroke-width:0.125" />
  <line x1="-9.5276632308959961" y1="-49.047409057617188" x2="-9.5401020050048828" y2="-49.205245971679688" style="stroke:rgb(255,0,0);stroke-width:0.125" />
  <line x1="-9.6953897476196289" y1="-49.17437744140625" x2="-9.5401020050048828" y2="-49.205245971679688" style="stroke:rgb(255,0,0);stroke-width:0.125" />
  <line x1="-9.3298454284667969" y1="-49.6458740234375" x2="-9.2307348251342773" y2="-49.946807861328125" style="stroke:rgb(255,0,0);stroke-width:0.125" />
  <line x1="-9.1644363403320313" y1="-49.793617248535156" x2="-9.2307348251342773" y2="-49.946807861328125" style="stroke:rgb(255,0,0);stroke-width:0.125" />
  <line x1="-9.3750896453857422" y1="-49.862995147705078" x2="-9.2307348251342773" y2="-49.946807861328125" style="stroke:rgb(255,0,0);stroke-width:0.125" />
  <line x1="-9.2614421844482422" y1="-50.4508056640625" x2="-9.2841997146606445" y2="-50.793636322021484" style="stroke:rgb(255,0,0);stroke-width:0.125" />
  <line x1="-9.155247688293457" y1="-50.666599273681641" x2="-9.2841997146606445" y2="-50.793636322021484" style="stroke:rgb(255,0,0);stroke-width:0.125" />
  <line x1="-9.395228385925293" y1="-50.650669097900391" x2="-9.2841997146606445" y2="-50.793636322021484" style="stroke:rgb(255,0,0);stroke-width:0.125" />
  <line x1="-9.3351469039917" y1="-51.364952087402344" x2="-9.36802864074707" y2="-51.740848541259766" style="stroke:rgb(255,0,0);stroke-width:0.125" />
  <line x1="-9.2235174179077148" y1="-51.604335784912109" x2="-9.36802864074707" y2="-51.740848541259766" style="stroke:rgb(255,0,0);stroke-width:0.125" />
  <line x1="-9.48664379119873" y1="-51.581317901611328" x2="-9.36802864074707" y2="-51.740848541259766" style="stroke:rgb(255,0,0);stroke-width:0.125" />
  <line x1="-9.42531967163086" y1="-52.343856811523438" x2="-9.46367359161377" y2="-52.744014739990234" style="stroke:rgb(255,0,0);stroke-width:0.125" />
  <line x1="-9.3085145950317383" y1="-52.5998649597168" x2="-9.46367359161377" y2="-52.744014739990234" style="stroke:rgb(255,0,0);stroke-width:0.125" />
  <line x1="-9.5886268615722656" y1="-52.573017120361328" x2="-9.46367359161377" y2="-52.744014739990234" style="stroke:rgb(255,0,0);stroke-width:0.125" />
  <line x1="-9.5264673233032227" y1="-53.371994018554688" x2="-9.56691837310791" y2="-53.783855438232422" style="stroke:rgb(255,0,0);stroke-width:0.125" />
  <line x1="-9.4068384170532227" y1="-53.635829925537109" x2="-9.56691837310791" y2="-53.783855438232422" style="stroke:rgb(255,0,0);stroke-width:0.125" />
  <line x1="-9.6951408386230469" y1="-53.607513427734375" x2="-9.56691837310791" y2="-53.783855438232422" style="stroke:rgb(255,0,0);stroke-width:0.125" />
  <line x1="-9.6555576324462891" y1="-54.44512939453125" x2="-9.72030258178711" y2="-54.8804931640625" style="stroke:rgb(255,0,0);stroke-width:0.125" />
  <line x1="-9.5424289703369141" y1="-54.731716156005859" x2="-9.72030258178711" y2="-54.8804931640625" style="stroke:rgb(255,0,0);stroke-width:0.125" />
  <line x1="-9.8471851348876953" y1="-54.686393737792969" x2="-9.72030258178711" y2="-54.8804931640625" style="stroke:rgb(255,0,0);stroke-width:0.125" />
  <line x1="-9.7657041549682617" y1="-55.566665649414063" x2="-9.7816762924194336" y2="-56.015274047851563" style="stroke:rgb(255,0,0);stroke-width:0.125" />
  <line x1="-9.61837387084961" y1="-55.844207763671875" x2="-9.7816762924194336" y2="-56.015274047851563" style="stroke:rgb(255,0,0);stroke-width:0.125" />
  <line x1="-9.932398796081543" y1="-55.833030700683594" x2="-9.7816762924194336" y2="-56.015274047851563" style="stroke:rgb(255,0,0);stroke-width:0.125" />
  <line x1="-9.7416877746582031" y1="-56.7391357421875" x2="-9.6816349029541016" y2="-57.183891296386719" style="stroke:rgb(255,0,0);stroke-width:0.125" />
  <line x1="-9.5496177673339844" y1="-56.987735748291016" x2="-9.6816349029541016" y2="-57.183891296386719" style="stroke:rgb(255,0,0);stroke-width:0.125" />
  <line x1="-9.8609466552734375" y1="-57.0297737121582" x2="-9.6816349029541016" y2="-57.183891296386719" style="stroke:rgb(255,0,0);stroke-width:0.125" />
  <line x1="-9.4165506362915039" y1="-57.685440063476563" x2="-9.2108430862426758" y2="-57.980827331542969" style="stroke:rgb(255,0,0);stroke-width:0.125" />
  <line x1="-9.1884613037109375" y1="-57.792510986328125" x2="-9.2108430862426758" y2="-57.980827331542969" style="stroke:rgb(255,0,0);stroke-width:0.125" />
  <line x1="-9.395233154296875" y1="-57.936508178710938" x2="-9.2108430862426758" y2="-57.980827331542969" style="stroke:rgb(255,0,0);stroke-width:0.125" />
  <line x1="-8.70366382598877" y1="-58.2034912109375" x2="-8.3633871078491211" y2="-58.329582214355469" style="stroke:rgb(255,0,0);stroke-width:0.125" />
  <line x1="-8.4532489776611328" y1="-58.160835266113281" x2="-8.3633871078491211" y2="-58.329582214355469" style="stroke:rgb(255,0,0);stroke-width:0.125" />
  <line x1="-8.54151439666748" y1="-58.399028778076172" x2="-8.3633871078491211" y2="-58.329582214355469" style="stroke:rgb(255,0,0);stroke-width:0.125" />
  <line x1="-7.7173905372619629" y1="-58.373382568359375" x2="-7.28798770904541" y2="-58.387138366699219" style="stroke:rgb(255,0,0);stroke-width:0.125" />
  <line x1="-7.4522643089294434" y1="-58.231430053710938" x2="-7.28798770904541" y2="-58.387138366699219" style="stroke:rgb(255,0,0);stroke-width:0.125" />
  <line x1="-7.4618935585021973" y1="-58.532012939453125" x2="-7.28798770904541" y2="-58.387138366699219" style="stroke:rgb(255,0,0);stroke-width:0.125" />
  <line x1="-6.56168794631958" y1="-58.31427001953125" x2="-6.081021785736084" y2="-58.258441925048828" style="stroke:rgb(255,0,0);stroke-width:0.125" />
  <line x1="-6.2898387908935547" y1="-58.1121940612793" x2="-6.081021785736084" y2="-58.258441925048828" style="stroke:rgb(255,0,0);stroke-width:0.125" />
  <line x1="-6.250760555267334" y1="-58.448661804199219" x2="-6.081021785736084" y2="-58.258441925048828" style="stroke:rgb(255,0,0);stroke-width:0.125" />
  <line x1="-5.2766385078430176" y1="-58.1044921875" x2="-4.7600078582763672" y2="-58.0108757019043" style="stroke:rgb(255,0,0);stroke-width:0.125" />
  <line x1="-4.996213436126709" y1="-57.866920471191406" x2="-4.7600078582763672" y2="-58.0108757019043" style="stroke:rgb(255,0,0);stroke-width:0.125" />
  <line x1="-4.93068265914917" y1="-58.228561401367188" x2="-4.7600078582763672" y2="-58.0108757019043" style="stroke:rgb(255,0,0);stroke-width:0.125" />
  <line x1="-3.9757044315338135" y1="-57.935928344726563" x2="-3.4826037883758545" y2="-57.91351318359375" style="stroke:rgb(255,0,0);stroke-width:0.125" />
  <line x1="-3.6846237182617188" y1="-57.749755859375" x2="-3.4826037883758545" y2="-57.91351318359375" style="stroke:rgb(255,0,0);stroke-width:0.125" />
  <line x1="-3.6689324378967285" y1="-58.094924926757813" x2="-3.4826037883758545" y2="-57.91351318359375" style="stroke:rgb(255,0,0);stroke-width:0.125" />
  <line x1="-2.816885232925415" y1="-58.0389404296875" x2="-2.4138162136077881" y2="-58.150009155273438" style="stroke:rgb(255,0,0);stroke-width:0.125" />
  <line x1="-2.533663272857666" y1="-57.9651985168457" x2="-2.4138162136077881" y2="-58.150009155273438" style="stroke:rgb(255,0,0);stroke-width:0.125" />
  <line x1="-2.6114120483398438" y1="-58.247344970703125" x2="-2.4138162136077881" y2="-58.150009155273438" style="stroke:rgb(255,0,0);stroke-width:0.125" />
  <line x1="-1.9780247211456299" y1="-58.482711791992188" x2="-1.7090609073638916" y2="-58.716388702392578" style="stroke:rgb(255,0,0);stroke-width:0.125" />
  <line x1="-1.7331869602203369" y1="-58.530235290527344" x2="-1.7090609073638916" y2="-58.716388702392578" style="stroke:rgb(255,0,0);stroke-width:0.125" />
  <line x1="-1.8967611789703369" y1="-58.718509674072266" x2="-1.7090609073638916" y2="-58.716388702392578" style="stroke:rgb(255,0,0);stroke-width:0.125" />
  <line x1="-1.3770298957824707" y1="-59.1734619140625" x2="-1.1675236225128174" y2="-59.4797248840332" style="stroke:rgb(255,0,0);stroke-width:0.125" />
  <line x1="-1.1428321599960327" y1="-59.285797119140625" x2="-1.1675236225128174" y2="-59.4797248840332" style="stroke:rgb(255,0,0);stroke-width:0.125" />
  <line x1="-1.3572149276733398" y1="-59.432449340820313" x2="-1.1675236225128174" y2="-59.4797248840332" style="stroke:rgb(255,0,0);stroke-width:0.125" />
</svg>