<?xml version="1.0" encoding="utf-8"?>
<svg version="1.0" width="450pt" height="720pt" viewBox="-20 -64 40 64" preserveAspectRatio="xMidYMid meet" xmlns="http://www.w3.org/2000/svg">
  <line x1="-0.5" y1="0" x2="-0.5" y2="-0.5" style="stroke:rgb(0,0,0);stroke-width:0.125" />
  <line x1="-0.5" y1="-0.5" x2="-12" y2="-0.5" style="stroke:rgb(0,0,0);stroke-width:0.125" />
  <line x1="-12" y1="-0.5" x2="-12" y2="-31.5" style="stroke:rgb(0,0,0);stroke-width:0.125" />
  <line x1="-12" y1="-31.5" x2="-0.5" y2="-31.5" style="stroke:rgb(0,0,0);stroke-width:0.125" />
  <line x1="-0.5" y1="-31.5" x2="-0.5" y2="-32" style="stroke:rgb(0,0,0);stroke-width:0.125" />
  <line x1="0.5" y1="0" x2="0.5" y2="-0.5" style="stroke:rgb(0,0,0);stroke-width:0.125" />
  <line x1="0.5" y1="-0.5" x2="12" y2="-0.5" style="stroke:rgb(0,0,0);stroke-width:0.125" />
  <line x1="12" y1="-0.5" x2="12" y2="-31.5" style="stroke:rgb(0,0,0);stroke-width:0.125" />
  <line x1="12" y1="-31.5" x2="0.5" y2="-31.5" style="stroke:rgb(0,0,0);stroke-width:0.125" />
  <line x1="0.5" y1="-31.5" x2="0.5" y2="-32" style="stroke:rgb(0,0,0);stroke-width:0.125" />
  <line x1="0" y1="-4" x2="0.059999942779541016" y2="-10.980003356933594" style="stroke:rgb(0,0,255);stroke-width:0.125" />
  <line x1="0.059999942779541016" y1="-10.980003356933594" x2="7.37999963760376" y2="-10.980003356933594" style="stroke:rgb(0,0,255);stroke-width:0.125" />
  <line x1="7.37999963760376" y1="-10.980003356933594" x2="7.4200005531311035" y2="-22.529998779296875" style="stroke:rgb(0,0,255);stroke-width:0.125" />
  <line x1="7.4200005531311035" y1="-22.529998779296875" x2="0.11999988555908203" y2="-22.799995422363281" style="stroke:rgb(0,0,255);stroke-width:0.125" />
  <line x1="0.11999988555908203" y1="-22.799995422363281" x2="0.050000190734863281" y2="-29.900001525878906" style="stroke:rgb(0,0,255);stroke-width:0.125" />
  <line x1="-0.14936447143554688" y1="-1.6397705078125" x2="-0.16187664866447449" y2="-1.8912589550018311" style="stroke:rgb(255,0,0);stroke-width:0.125" />
  <line x1="-0.068928636610507965" y1="-1.7966065406799316" x2="-0.16187664866447449" y2="-1.8912589550018311" style="stroke:rgb(255,0,0);stroke-width:0.125" />
  <line x1="-0.24497050046920776" y1="-1.7878479957580566" x2="-0.16187664866447449" y2="-1.8912589550018311" style="stroke:rgb(255,0,0);stroke-width:0.125" />
  <line x1="-0.17898321151733398" y1="-2.284576416015625" x2="-0.18986482918262482" y2="-2.5480527877807617" style="stroke:rgb(255,0,0);stroke-width:0.125" />
  <line x1="-0.093363121151924133" y1="-2.4481089115142822" x2="-0.18986482918262482" y2="-2.5480527877807617" style="stroke:rgb(255,0,0);stroke-width:0.125" />
  <line x1="-0.27779656648635864" y1="-2.4404919147491455" x2="-0.18986482918262482" y2="-2.5480527877807617" style="stroke:rgb(255,0,0);stroke-width:0.125" />
  <line x1="-0.20310449600219727" y1="-2.969635009765625" x2="-0.21051405370235443" y2="-3.2410752773284912" style="stroke:rgb(255,0,0);stroke-width:0.125" />
  <line x1="-0.11259224265813828" y1="-3.1367802619934082" x2="-0.21051405370235443" y2="-3.2410752773284912" style="stroke:rgb(255,0,0);stroke-width:0.125" />
  <line x1="-0.30260038375854492" y1="-3.1315934658050537" x2="-0.21051405370235443" y2="-3.2410752773284912" style="stroke:rgb(255,0,0);stroke-width:0.125" />
  <line x1="-0.21783113479614258" y1="-3.6580047607421875" x2="-0.22170284390449524" y2="-3.9337763786315918" style="stroke:rgb(255,0,0);stroke-width:0.125" />
  <line x1="-0.12365818023681641" y1="-3.8265376091003418" x2="-0.22170284390449524" y2="-3.9337763786315918" style="stroke:rgb(255,0,0);stroke-width:0.125" />
  <line x1="-0.316698282957077" y1="-3.8238272666931152" x2="-0.22170284390449524" y2="-3.9337763786315918" style="stroke:rgb(255,0,0);stroke-width:0.125" />
  <line x1="-0.21729469299316406" y1="-4.3546371459960938" x2="-0.21156631410121918" y2="-4.6331596374511719" style="stroke:rgb(255,0,0);stroke-width:0.125" />
  <line x1="-0.11633921414613724" y1="-4.521477222442627" x2="-0.21156631410121918" y2="-4.6331596374511719" style="stroke:rgb(255,0,0);stroke-width:0.125" />
  <line x1="-0.31130486726760864" y1="-4.5254874229431152" x2="-0.21156631410121918" y2="-4.6331596374511719" style="stroke:rgb(255,0,0);stroke-width:0.125" />
  <line x1="-0.18687820434570313" y1="-5.0610198974609375" x2="-0.16898854076862335" y2="-5.3501229286193848" style="stroke:rgb(255,0,0);stroke-width:0.125" />
  <line x1="-0.07484705001115799" y1="-5.230018138885498" x2="-0.16898854076862335" y2="-5.3501229286193848" style="stroke:rgb(255,0,0);stroke-width:0.125" />
  <line x1="-0.277219295501709" y1="-5.2425408363342285" x2="-0.16898854076862335" y2="-5.3501229286193848" style="stroke:rgb(255,0,0);stroke-width:0.125" />
  <line x1="-0.12638282775878906" y1="-5.7909698486328125" x2="-0.097822949290275574" y2="-6.0791692733764648" style="stroke:rgb(255,0,0);stroke-width:0.125" />
  <line x1="-0.00819946825504303" y1="-5.9556856155395508" x2="-0.097822949290275574" y2="-6.0791692733764648" style="stroke:rgb(255,0,0);stroke-width:0.125" />
  <line x1="-0.20993918180465698" y1="-5.975677490234375" x2="-0.097822949290275574" y2="-6.0791692733764648" style="stroke:rgb(255,0,0);stroke-width:0.125" />
  <line x1="-0.0459742546081543" y1="-6.5106658935546875" x2="-0.010992448776960373" y2="-6.7953987121582031" style="stroke:rgb(255,0,0);stroke-width:0.125" />
  <line x1="0.074888750910758972" y1="-6.6710324287414551" x2="-0.010992448776960373" y2="-6.7953987121582031" style="stroke:rgb(255,0,0);stroke-width:0.125" />
  <line x1="-0.12442407011985779" y1="-6.69551944732666" x2="-0.010992448776960373" y2="-6.7953987121582031" style="stroke:rgb(255,0,0);stroke-width:0.125" />
  <line x1="0.048585414886474609" y1="-7.22125244140625" x2="0.08853660523891449" y2="-7.5035262107849121" style="stroke:rgb(255,0,0);stroke-width:0.125" />
  <line x1="0.17160028219223022" y1="-7.37838888168335" x2="0.08853660523891449" y2="-7.5035262107849121" style="stroke:rgb(255,0,0);stroke-width:0.125" />
  <line x1="-0.02599121630191803" y1="-7.4063544273376465" x2="0.08853660523891449" y2="-7.5035262107849121" style="stroke:rgb(255,0,0);stroke-width:0.125" />
  <line x1="0.15292596817016602" y1="-7.9255828857421875" x2="0.19607402384281158" y2="-8.2063846588134766" style="stroke:rgb(255,0,0);stroke-width:0.125" />
  <line x1="0.27736353874206543" y1="-8.0807075500488281" x2="0.19607402384281158" y2="-8.2063846588134766" style="stroke:rgb(255,0,0);stroke-width:0.125" />
  <line x1="0.080802634358406067" y1="-8.11091136932373" x2="0.19607402384281158" y2="-8.2063846588134766" style="stroke:rgb(255,0,0);stroke-width:0.125" />
  <line x1="0.28135919570922852" y1="-8.6272048950195313" x2="0.3498876690864563" y2="-8.9023761749267578" style="stroke:rgb(255,0,0);stroke-width:0.125" />
  <line x1="0.41921225190162659" y1="-8.7700338363647461" x2="0.3498876690864563" y2="-8.9023761749267578" style="stroke:rgb(255,0,0);stroke-width:0.125" />
  <line x1="0.22659248113632202" y1="-8.81800365447998" x2="0.3498876690864563" y2="-8.9023761749267578" style="stroke:rgb(255,0,0);stroke-width:0.125" />
  <line x1="0.54760313034057617" y1="-9.3094253540039063" x2="0.70137172937393188" y2="-9.5744457244873047" style="stroke:rgb(255,0,0);stroke-width:0.125" />
  <line x1="0.7335776686668396" y1="-9.4162664413452148" x2="0.70137172937393188" y2="-9.5744457244873047" style="stroke:rgb(255,0,0);stroke-width:0.125" />
  <line x1="0.54806309938430786" y1="-9.5239048004150391" x2="0.70137172937393188" y2="-9.5744457244873047" style="stroke:rgb(255,0,0);stroke-width:0.125" />
  <line x1="1.0378222465515137" y1="-9.8805160522460938" x2="1.2708737850189209" y2="-10.067104339599609" style="stroke:rgb(255,0,0);stroke-width:0.125" />
  <line x1="1.2444080114364624" y1="-9.9120607376098633" x2="1.2708737850189209" y2="-10.067104339599609" style="stroke:rgb(255,0,0);stroke-width:0.125" />
  <line x1="1.1137964725494385" y1="-10.075197219848633" x2="1.2708737850189209" y2="-10.067104339599609" style="stroke:rgb(255,0,0);stroke-width:0.125" />
  <line x1="1.6757311820983887" y1="-10.249649047851563" x2="1.9462052583694458" y2="-10.361408233642578" style="stroke:rgb(255,0,0);stroke-width:0.125" />
  <line x1="1.8788130283355713" y1="-10.222733497619629" x2="1.9462052583694458" y2="-10.361408233642578" style="stroke:rgb(255,0,0);stroke-width:0.125" />
  <line x1="1.8005818128585815" y1="-10.412065505981445" x2="1.9462052583694458" y2="-10.361408233642578" style="stroke:rgb(255,0,0);stroke-width:0.125" />
  <line x1="2.3683304786682129" y1="-10.470977783203125" x2="2.6478233337402344" y2="-10.538902282714844" style="stroke:rgb(255,0,0);stroke-width:0.125" />
  <line x1="2.561537504196167" y1="-10.414332389831543" x2="2.6478233337402344" y2="-10.538902282714844" style="stroke:rgb(255,0,0);stroke-width:0.125" />
  <line x1="2.5139906406402588" y1="-10.609976768493652" x2="2.6478233337402344" y2="-10.538902282714844" style="stroke:rgb(255,0,0);stroke-width:0.125" />
  <line x1="3.0692696571350098" y1="-10.634872436523438" x2="3.3309464454650879" y2="-10.70405387878418" style="stroke:rgb(255,0,0);stroke-width:0.125" />
  <line x1="3.2521164417266846" y1="-10.585225105285645" x2="3.3309464454650879" y2="-10.70405387878418" style="stroke:rgb(255,0,0);stroke-width:0.125" />
  <line x1="3.2036890983581543" y1="-10.768398284912109" x2="3.3309464454650879" y2="-10.70405387878418" style="stroke:rgb(255,0,0);stroke-width:0.125" />
  <line x1="3.4790329933166504" y1="-10.799903869628906" x2="3.5444505214691162" y2="-10.867684364318848" style="stroke:rgb(255,0,0);stroke-width:0.125" />
  <line x1="3.5424134731292725" y1="-10.818097114562988" x2="3.5444505214691162" y2="-10.867684364318848" style="stroke:rgb(255,0,0);stroke-width:0.125" />
  <line x1="3.4949672222137451" y1="-10.863889694213867" x2="3.5444505214691162" y2="-10.867684364318848" style="stroke:rgb(255,0,0);stroke-width:0.125" />
  <line x1="3.4360060691833496" y1="-10.981773376464844" x2="3.3502533435821533" y2="-11.054173469543457" style="stroke:rgb(255,0,0);stroke-width:0.125" />
  <line x1="3.4093613624572754" y1="-11.05567741394043" x2="3.3502533435821533" y2="-11.054173469543457" style="stroke:rgb(255,0,0);stroke-width:0.125" />
  <line x1="3.3586809635162354" y1="-10.995650291442871" x2="3.3502533435821533" y2="-11.054173469543457" style="stroke:rgb(255,0,0);stroke-width:0.125" />
  <line x1="3.187497615814209" y1="-11.144844055175781" x2="3.0964257717132568" y2="-11.200661659240723" style="stroke:rgb(255,0,0);stroke-width:0.125" />
  <line x1="3.1518244743347168" y1="-11.210556983947754" x2="3.0964257717132568" y2="-11.200661659240723" style="stroke:rgb(255,0,0);stroke-width:0.125" />
  <line x1="3.1127521991729736" y1="-11.146806716918945" x2="3.0964257717132568" y2="-11.200661659240723" style="stroke:rgb(255,0,0);stroke-width:0.125" />
  <line x1="3.0818486213684082" y1="-11.246208190917969" x2="3.0998029708862305" y2="-11.266631126403809" style="stroke:rgb(255,0,0);stroke-width:0.125" />
  <line x1="3.0998806953430176" y1="-11.252305030822754" x2="3.0998029708862305" y2="-11.266631126403809" style="stroke:rgb(255,0,0);stroke-width:0.125" />
  <line x1="3.0855848789215088" y1="-11.264872550964355" x2="3.0998029708862305" y2="-11.266631126403809" style="stroke:rgb(255,0,0);stroke-width:0.125" />
  <line x1="3.2868704795837402" y1="-11.236213684082031" x2="3.4188022613525391" y2="-11.211289405822754" style="stroke:rgb(255,0,0);stroke-width:0.125" />
  <line x1="3.3581264019012451" y1="-11.174928665161133" x2="3.4188022613525391" y2="-11.211289405822754" style="stroke:rgb(255,0,0);stroke-width:0.125" />
  <line x1="3.37557315826416" y1="-11.267280578613281" x2="3.4188022613525391" y2="-11.211289405822754" style="stroke:rgb(255,0,0);stroke-width:0.125" />
  <line x1="3.6584649085998535" y1="-11.154365539550781" x2="3.7984204292297363" y2="-11.120583534240723" style="stroke:rgb(255,0,0);stroke-width:0.125" />
  <line x1="3.7314848899841309" y1="-11.084901809692383" x2="3.7984204292297363" y2="-11.120583534240723" style="stroke:rgb(255,0,0);stroke-width:0.125" />
  <line x1="3.7551321983337402" y1="-11.182870864868164" x2="3.7984204292297363" y2="-11.120583534240723" style="stroke:rgb(255,0,0);stroke-width:0.125" />
  <line x1="3.9064068794250488" y1="-11.063087463378906" x2="3.956101655960083" y2="-11.0181884765625" style="stroke:rgb(255,0,0);stroke-width:0.125" />
  <line x1="3.9208180904388428" y1="-11.018475532531738" x2="3.956101655960083" y2="-11.0181884765625" style="stroke:rgb(255,0,0);stroke-width:0.125" />
  <line x1="3.9522476196289063" y1="-11.053261756896973" x2="3.956101655960083" y2="-11.0181884765625" style="stroke:rgb(255,0,0);stroke-width:0.125" />
  <line x1="3.9663634300231934" y1="-10.946479797363281" x2="3.9781050682067871" y2="-10.904131889343262" style="stroke:rgb(255,0,0);stroke-width:0.125" />
  <line x1="3.9586596488952637" y1="-10.91669750213623" x2="3.9781050682067871" y2="-10.904131889343262" style="stroke:rgb(255,0,0);stroke-width:0.125" />
  <line x1="3.9883034229278564" y1="-10.924917221069336" x2="3.9781050682067871" y2="-10.904131889343262" style="stroke:rgb(255,0,0);stroke-width:0.125" />
  <line x1="3.9904494285583496" y1="-10.859611511230469" x2="3.9981825351715088" y2="-10.831643104553223" style="stroke:rgb(255,0,0);stroke-width:0.125" />
  <line x1="3.9853484630584717" y1="-10.839950561523438" x2="3.9981825351715088" y2="-10.831643104553223" style="stroke:rgb(255,0,0);stroke-width:0.125" />
  <line x1="4.0049262046813965" y1="-10.845363616943359" x2="3.9981825351715088" y2="-10.831643104553223" style="stroke:rgb(255,0,0);stroke-width:0.125" />
  <line x1="4.004035472869873" y1="-10.802833557128906" x2="4.0027203559875488" y2="-10.786931037902832" style="stroke:rgb(255,0,0);stroke-width:0.125" />
  <line x1="3.9976725578308105" y1="-10.79365348815918" x2="4.0027203559875488" y2="-10.786931037902832" style="stroke:rgb(255,0,0);stroke-width:0.125" />
  <line x1="4.0088038444519043" y1="-10.792733192443848" x2="4.0027203559875488" y2="-10.786931037902832" style="stroke:rgb(255,0,0);stroke-width:0.125" />
  <line x1="3.9053473472595215" y1="-10.799995422363281" x2="3.8225967884063721" y2="-10.807765007019043" style="stroke:rgb(255,0,0);stroke-width:0.125" />
  <line x1="3.8579018115997314" y1="-10.833667755126953" x2="3.8225967884063721" y2="-10.807765007019043" style="stroke:rgb(255,0,0);stroke-width:0.125" />
  <line x1="3.8524630069732666" y1="-10.775742530822754" x2="3.8225967884063721" y2="-10.807765007019043" style="stroke:rgb(255,0,0);stroke-width:0.125" />
  <line x1="3.66813325881958" y1="-10.806114196777344" x2="3.5807721614837646" y2="-10.803910255432129" style="stroke:rgb(255,0,0);stroke-width:0.125" />
  <line x1="3.6144020557403564" y1="-10.835354804992676" x2="3.5807721614837646" y2="-10.803910255432129" style="stroke:rgb(255,0,0);stroke-width:0.125" />
  <line x1="3.6159448623657227" y1="-10.774201393127441" x2="3.5807721614837646" y2="-10.803910255432129" style="stroke:rgb(255,0,0);stroke-width:0.125" />
  <line x1="3.4934811592102051" y1="-10.805870056152344" x2="3.4488537311553955" y2="-10.812296867370605" style="stroke:rgb(255,0,0);stroke-width:0.125" />
  <line x1="3.4686765670776367" y1="-10.825386047363281" x2="3.4488537311553955" y2="-10.812296867370605" style="stroke:rgb(255,0,0);stroke-width:0.125" />
  <line x1="3.4641778469085693" y1="-10.794146537780762" x2="3.4488537311553955" y2="-10.812296867370605" style="stroke:rgb(255,0,0);stroke-width:0.125" />
  <line x1="3.4869999885559082" y1="-10.866813659667969" x2="3.5322060585021973" y2="-10.914252281188965" style="stroke:rgb(255,0,0);stroke-width:0.125" />
  <line x1="3.531008243560791" y1="-10.879749298095703" x2="3.5322060585021973" y2="-10.914252281188965" style="stroke:rgb(255,0,0);stroke-width:0.125" />
  <line x1="3.4978013038635254" y1="-10.911394119262695" x2="3.5322060585021973" y2="-10.914252281188965" style="stroke:rgb(255,0,0);stroke-width:0.125" />
  <line x1="3.6939206123352051" y1="-11.027565002441406" x2="3.8077991008758545" y2="-11.10037899017334" style="stroke:rgb(255,0,0);stroke-width:0.125" />
  <line x1="3.7884407043457031" y1="-11.031848907470703" x2="3.8077991008758545" y2="-11.10037899017334" style="stroke:rgb(255,0,0);stroke-width:0.125" />
  <line x1="3.7374708652496338" y1="-11.111563682556152" x2="3.8077991008758545" y2="-11.10037899017334" style="stroke:rgb(255,0,0);stroke-width:0.125" />
  <line x1="3.9689669609069824" y1="-11.20574951171875" x2="4.0617170333862305" y2="-11.267345428466797" style="stroke:rgb(255,0,0);stroke-width:0.125" />
  <line x1="4.0467524528503418" y1="-11.210627555847168" x2="4.0617170333862305" y2="-11.267345428466797" style="stroke:rgb(255,0,0);stroke-width:0.125" />
  <line x1="4.0036349296569824" y1="-11.275552749633789" x2="4.0617170333862305" y2="-11.267345428466797" style="stroke:rgb(255,0,0);stroke-width:0.125" />
  <line x1="4.1381592750549316" y1="-11.302688598632813" x2="4.1794228553771973" y2="-11.313321113586426" style="stroke:rgb(255,0,0);stroke-width:0.125" />
  <line x1="4.1668953895568848" y1="-11.294692039489746" x2="4.1794228553771973" y2="-11.313321113586426" style="stroke:rgb(255,0,0);stroke-width:0.125" />
  <line x1="4.1594524383544922" y1="-11.323576927185059" x2="4.1794228553771973" y2="-11.313321113586426" style="stroke:rgb(255,0,0);stroke-width:0.125" />
  <line x1="4.268683910369873" y1="-11.286705017089844" x2="4.3554902076721191" y2="-11.273154258728027" style="stroke:rgb(255,0,0);stroke-width:0.125" />
  <line x1="4.3165645599365234" y1="-11.24810791015625" x2="4.3554902076721191" y2="-11.273154258728027" style="stroke:rgb(255,0,0);stroke-width:0.125" />
  <line x1="4.3260502815246582" y1="-11.308872222900391" x2="4.3554902076721191" y2="-11.273154258728027" style="stroke:rgb(255,0,0);stroke-width:0.125" />
  <line x1="4.5920634269714355" y1="-11.267936706542969" x2="4.755424976348877" y2="-11.271416664123535" style="stroke:rgb(255,0,0);stroke-width:0.125" />
  <line x1="4.6923141479492188" y1="-11.212869644165039" x2="4.755424976348877" y2="-11.271416664123535" style="stroke:rgb(255,0,0);stroke-width:0.125" />
  <line x1="4.689877986907959" y1="-11.32722282409668" x2="4.755424976348877" y2="-11.271416664123535" style="stroke:rgb(255,0,0);stroke-width:0.125" />
  <line x1="5.0682969093322754" y1="-11.306175231933594" x2="5.2784075736999512" y2="-11.338479995727539" style="stroke:rgb(255,0,0);stroke-width:0.125" />
  <line x1="5.2069764137268066" y1="-11.252220153808594" x2="5.2784075736999512" y2="-11.338479995727539" style="stroke:rgb(255,0,0);stroke-width:0.125" />
  <line x1="5.1843628883361816" y1="-11.399297714233398" x2="5.2784075736999512" y2="-11.338479995727539" style="stroke:rgb(255,0,0);stroke-width:0.125" />
  <line x1="5.6168618202209473" y1="-11.459197998046875" x2="5.8392276763916016" y2="-11.549769401550293" style="stroke:rgb(255,0,0);stroke-width:0.125" />
  <line x1="5.7833638191223145" y1="-11.436276435852051" x2="5.8392276763916016" y2="-11.549769401550293" style="stroke:rgb(255,0,0);stroke-width:0.125" />
  <line x1="5.7199640274047852" y1="-11.59193229675293" x2="5.8392276763916016" y2="-11.549769401550293" style="stroke:rgb(255,0,0);stroke-width:0.125" />
  <line x1="6.1689496040344238" y1="-11.764366149902344" x2="6.3842625617980957" y2="-11.9180326461792" style="stroke:rgb(255,0,0);stroke-width:0.125" />
  <line x1="6.3532595634460449" y1="-11.782161712646484" x2="6.3842625617980957" y2="-11.9180326461792" style="stroke:rgb(255,0,0);stroke-width:0.125" />
  <line x1="6.2456927299499512" y1="-11.932881355285645" x2="6.3842625617980957" y2="-11.9180326461792" style="stroke:rgb(255,0,0);stroke-width:0.125" />
  <line x1="6.60973596572876" y1="-12.211395263671875" x2="6.7492995262146" y2="-12.410981178283691" style="stroke:rgb(255,0,0);stroke-width:0.125" />
  <line x1="6.76419734954834" y1="-12.283540725708008" x2="6.7492995262146" y2="-12.410981178283691" style="stroke:rgb(255,0,0);stroke-width:0.125" />
  <line x1="6.6244869232177734" y1="-12.381235122680664" x2="6.7492995262146" y2="-12.410981178283691" style="stroke:rgb(255,0,0);stroke-width:0.125" />
  <line x1="6.876244068145752" y1="-12.75836181640625" x2="6.9556217193603516" y2="-12.991264343261719" style="stroke:rgb(255,0,0);stroke-width:0.125" />
  <line x1="7.0058798789978027" y1="-12.871768951416016" x2="6.9556217193603516" y2="-12.991264343261719" style="stroke:rgb(255,0,0);stroke-width:0.125" />
  <line x1="6.8428487777709961" y1="-12.927333831787109" x2="6.9556217193603516" y2="-12.991264343261719" style="stroke:rgb(255,0,0);stroke-width:0.125" />
  <line x1="7.0285954475402832" y1="-13.369712829589844" x2="7.07284688949585" y2="-13.624139785766602" style="stroke:rgb(255,0,0);stroke-width:0.125" />
  <line x1="7.1444711685180664" y1="-13.508462905883789" x2="7.07284688949585" y2="-13.624139785766602" style="stroke:rgb(255,0,0);stroke-width:0.125" />
  <line x1="6.966372013092041" y1="-13.53943920135498" x2="7.07284688949585" y2="-13.624139785766602" style="stroke:rgb(255,0,0);stroke-width:0.125" />
  <line x1="7.1121430397033691" y1="-14.025291442871094" x2="7.1350970268249512" y2="-14.292020797729492" style="stroke:rgb(255,0,0);stroke-width:0.125" />
  <line x1="7.2194132804870605" y1="-14.178953170776367" x2="7.1350970268249512" y2="-14.292020797729492" style="stroke:rgb(255,0,0);stroke-width:0.125" />
  <line x1="7.0327029228210449" y1="-14.195021629333496" x2="7.1350970268249512" y2="-14.292020797729492" style="stroke:rgb(255,0,0);stroke-width:0.125" />
  <line x1="7.1472630500793457" y1="-14.702659606933594" x2="7.1528348922729492" y2="-14.976452827453613" style="stroke:rgb(255,0,0);stroke-width:0.125" />
  <line x1="7.2464685440063477" y1="-14.866687774658203" x2="7.1528348922729492" y2="-14.976452827453613" style="stroke:rgb(255,0,0);stroke-width:0.125" />
  <line x1="7.0548129081726074" y1="-14.870588302612305" x2="7.1528348922729492" y2="-14.976452827453613" style="stroke:rgb(255,0,0);stroke-width:0.125" />
  <line x1="7.1468186378479" y1="-15.392707824707031" x2="7.1414127349853516" y2="-15.669880867004395" style="stroke:rgb(255,0,0);stroke-width:0.125" />
  <line x1="7.2405519485473633" y1="-15.562626838684082" x2="7.1414127349853516" y2="-15.669880867004395" style="stroke:rgb(255,0,0);stroke-width:0.125" />
  <line x1="7.0465312004089355" y1="-15.558842658996582" x2="7.1414127349853516" y2="-15.669880867004395" style="stroke:rgb(255,0,0);stroke-width:0.125" />
  <line x1="7.1227803230285645" y1="-16.0921630859375" x2="7.1095681190490723" y2="-16.371265411376953" style="stroke:rgb(255,0,0);stroke-width:0.125" />
  <line x1="7.2124567031860352" y1="-16.265983581542969" x2="7.1095681190490723" y2="-16.371265411376953" style="stroke:rgb(255,0,0);stroke-width:0.125" />
  <line x1="7.01708459854126" y1="-16.256736755371094" x2="7.1095681190490723" y2="-16.371265411376953" style="stroke:rgb(255,0,0);stroke-width:0.125" />
  <line x1="7.0827164649963379" y1="-16.795341491699219" x2="7.0638198852539063" y2="-17.075328826904297" style="stroke:rgb(255,0,0);stroke-width:0.125" />
  <line x1="7.1692566871643066" y1="-16.971689224243164" x2="7.0638198852539063" y2="-17.075328826904297" style="stroke:rgb(255,0,0);stroke-width:0.125" />
  <line x1="6.9732651710510254" y1="-16.958461761474609" x2="7.0638198852539063" y2="-17.075328826904297" style="stroke:rgb(255,0,0);stroke-width:0.125" />
  <line x1="7.0260109901428223" y1="-17.514762878417969" x2="7.0004267692565918" y2="-17.80510139465332" style="stroke:rgb(255,0,0);stroke-width:0.125" />
  <line x1="7.1121201515197754" y1="-17.699726104736328" x2="7.0004267692565918" y2="-17.80510139465332" style="stroke:rgb(255,0,0);stroke-width:0.125" />
  <line x1="6.9088830947875977" y1="-17.681816101074219" x2="7.0004267692565918" y2="-17.80510139465332" style="stroke:rgb(255,0,0);stroke-width:0.125" />
  <line x1="6.9573140144348145" y1="-18.238906860351563" x2="6.9284548759460449" y2="-18.525461196899414" style="stroke:rgb(255,0,0);stroke-width:0.125" />
  <line x1="7.0401129722595215" y1="-18.422721862792969" x2="6.9284548759460449" y2="-18.525461196899414" style="stroke:rgb(255,0,0);stroke-width:0.125" />
  <line x1="6.8395247459411621" y1="-18.402521133422852" x2="6.9284548759460449" y2="-18.525461196899414" style="stroke:rgb(255,0,0);stroke-width:0.125" />
  <line x1="6.8809475898742676" y1="-18.954521179199219" x2="6.8487529754638672" y2="-19.238452911376953" style="stroke:rgb(255,0,0);stroke-width:0.125" />
  <line x1="6.9608063697814941" y1="-19.137912750244141" x2="6.8487529754638672" y2="-19.238452911376953" style="stroke:rgb(255,0,0);stroke-width:0.125" />
  <line x1="6.7620549201965332" y1="-19.115377426147461" x2="6.8487529754638672" y2="-19.238452911376953" style="stroke:rgb(255,0,0);stroke-width:0.125" />
  <line x1="6.7939839363098145" y1="-19.666152954101563" x2="6.7569570541381836" y2="-19.948238372802734" style="stroke:rgb(255,0,0);stroke-width:0.125" />
  <line x1="6.870267391204834" y1="-19.850116729736328" x2="6.7569570541381836" y2="-19.948238372802734" style="stroke:rgb(255,0,0);stroke-width:0.125" />
  <line x1="6.6728076934814453" y1="-19.824199676513672" x2="6.7569570541381836" y2="-19.948238372802734" style="stroke:rgb(255,0,0);stroke-width:0.125" />
  <line x1="6.69237756729126" y1="-20.374137878417969" x2="6.6469554901123047" y2="-20.6541805267334" style="stroke:rgb(255,0,0);stroke-width:0.125" />
  <line x1="6.7628569602966309" y1="-20.559803009033203" x2="6.6469554901123047" y2="-20.6541805267334" style="stroke:rgb(255,0,0);stroke-width:0.125" />
  <line x1="6.5668268203735352" y1="-20.528007507324219" x2="6.6469554901123047" y2="-20.6541805267334" style="stroke:rgb(255,0,0);stroke-width:0.125" />
  <line x1="6.4952778816223145" y1="-21.057136535644531" x2="6.3671512603759766" y2="-21.295183181762695" style="stroke:rgb(255,0,0);stroke-width:0.125" />
  <line x1="6.5009212493896484" y1="-21.246288299560547" x2="6.3671512603759766" y2="-21.295183181762695" style="stroke:rgb(255,0,0);stroke-width:0.125" />
  <line x1="6.3342885971069336" y1="-21.156600952148438" x2="6.3671512603759766" y2="-21.295183181762695" style="stroke:rgb(255,0,0);stroke-width:0.125" />
  <line x1="6.075645923614502" y1="-21.513389587402344" x2="5.8770737648010254" y2="-21.650665283203125" style="stroke:rgb(255,0,0);stroke-width:0.125" />
  <line x1="6.00331449508667" y1="-21.666109085083008" x2="5.8770737648010254" y2="-21.650665283203125" style="stroke:rgb(255,0,0);stroke-width:0.125" />
  <line x1="5.90722131729126" y1="-21.527109146118164" x2="5.8770737648010254" y2="-21.650665283203125" style="stroke:rgb(255,0,0);stroke-width:0.125" />
  <line x1="5.5288662910461426" y1="-21.819511413574219" x2="5.2928786277771" y2="-21.9241886138916" style="stroke:rgb(255,0,0);stroke-width:0.125" />
  <line x1="5.4224433898925781" y1="-21.96556282043457" x2="5.2928786277771" y2="-21.9241886138916" style="stroke:rgb(255,0,0);stroke-width:0.125" />
  <line x1="5.3491697311401367" y1="-21.800373077392578" x2="5.2928786277771" y2="-21.9241886138916" style="stroke:rgb(255,0,0);stroke-width:0.125" />
  <line x1="4.8982453346252441" y1="-22.013336181640625" x2="4.6346406936645508" y2="-22.06214714050293" style="stroke:rgb(255,0,0);stroke-width:0.125" />
  <line x1="4.7555274963378906" y1="-22.135187149047852" x2="4.6346406936645508" y2="-22.06214714050293" style="stroke:rgb(255,0,0);stroke-width:0.125" />
  <line x1="4.7213597297668457" y1="-21.950664520263672" x2="4.6346406936645508" y2="-22.06214714050293" style="stroke:rgb(255,0,0);stroke-width:0.125" />
  <line x1="4.2232232093811035" y1="-22.080703735351563" x2="3.949296236038208" y2="-22.092769622802734" style="stroke:rgb(255,0,0);stroke-width:0.125" />
  <line x1="4.0613865852355957" y1="-22.183893203735352" x2="3.949296236038208" y2="-22.092769622802734" style="stroke:rgb(255,0,0);stroke-width:0.125" />
  <line x1="4.052940845489502" y1="-21.992143630981445" x2="3.949296236038208" y2="-22.092769622802734" style="stroke:rgb(255,0,0);stroke-width:0.125" />
  <line x1="3.5334324836730957" y1="-22.096992492675781" x2="3.2560105323791504" y2="-22.09942626953125" style="stroke:rgb(255,0,0);stroke-width:0.125" />
  <line x1="3.3661062717437744" y1="-22.195566177368164" x2="3.2560105323791504" y2="-22.09942626953125" style="stroke:rgb(255,0,0);stroke-width:0.125" />
  <line x1="3.3644025325775146" y1="-22.001369476318359" x2="3.2560105323791504" y2="-22.09942626953125" style="stroke:rgb(255,0,0);stroke-width:0.125" />
  <line x1="2.8356575965881348" y1="-22.104804992675781" x2="2.5562405586242676" y2="-22.113187789916992" style="stroke:rgb(255,0,0);stroke-width:0.125" />
  <line x1="2.6692037582397461" y1="-22.207681655883789" x2="2.5562405586242676" y2="-22.113187789916992" style="stroke:rgb(255,0,0);stroke-width:0.125" />
  <line x1="2.6633362770080566" y1="-22.0120906829834" x2="2.5562405586242676" y2="-22.113187789916992" style="stroke:rgb(255,0,0);stroke-width:0.125" />
  <line x1="2.1361970901489258" y1="-22.151115417480469" x2="1.8565353155136108" y2="-22.181495666503906" style="stroke:rgb(255,0,0);stroke-width:0.125" />
  <line x1="1.9772942066192627" y1="-22.267414093017578" x2="1.8565353155136108" y2="-22.181495666503906" style="stroke:rgb(255,0,0);stroke-width:0.125" />
  <line x1="1.9560279846191406" y1="-22.071651458740234" x2="1.8565353155136108" y2="-22.181495666503906" style="stroke:rgb(255,0,0);stroke-width:0.125" />
  <line x1="1.4023022651672363" y1="-22.254653930664063" x2="1.1124273538589478" y2="-22.299222946166992" style="stroke:rgb(255,0,0);stroke-width:0.125" />
  <line x1="1.2421743869781494" y1="-22.383129119873047" x2="1.1124273538589478" y2="-22.299222946166992" style="stroke:rgb(255,0,0);stroke-width:0.125" />
  <line x1="1.2109756469726563" y1="-22.180215835571289" x2="1.1124273538589478" y2="-22.299222946166992" style="stroke:rgb(255,0,0);stroke-width:0.125" />
  <line x1="0.68335962295532227" y1="-22.366188049316406" x2="0.39914202690124512" y2="-22.41944694519043" style="stroke:rgb(255,0,0);stroke-width:0.125" />
  <line x1="0.52970230579376221" y1="-22.497949600219727" x2="0.39914202690124512" y2="-22.41944694519043" style="stroke:rgb(255,0,0);stroke-width:0.125" />
  <line x1="0.49242138862609863" y1="-22.29899787902832" x2="0.39914202690124512" y2="-22.41944694519043" style="stroke:rgb(255,0,0);stroke-width:0.125" />
  <line x1="-0.0021986961364746094" y1="-22.512954711914063" x2="-0.22015821933746338" y2="-22.554248809814453" style="stroke:rgb(255,0,0);stroke-width:0.125" />
  <line x1="-0.11987636983394623" y1="-22.614274978637695" x2="-0.22015821933746338" y2="-22.554248809814453" style="stroke:rgb(255,0,0);stroke-width:0.125" />
  <line x1="-0.148782879114151" y1="-22.461702346801758" x2="-0.22015821933746338" y2="-22.554248809814453" style="stroke:rgb(255,0,0);stroke-width:0.125" />
  <line x1="-0.33305263519287109" y1="-22.532073974609375" x2="-0.39123684167861938" y2="-22.520969390869141" style="stroke:rgb(255,0,0);stroke-width:0.125" />
  <line x1="-0.37221124768257141" y1="-22.545707702636719" x2="-0.39123684167861938" y2="-22.520969390869141" style="stroke:rgb(255,0,0);stroke-width:0.125" />
  <line x1="-0.36443862318992615" y1="-22.504978179931641" x2="-0.39123684167861938" y2="-22.520969390869141" style="stroke:rgb(255,0,0);stroke-width:0.125" />
  <line x1="-0.32554817199707031" y1="-22.491409301757813" x2="-0.28507453203201294" y2="-22.472755432128906" style="stroke:rgb(255,0,0);stroke-width:0.125" />
  <line x1="-0.30754142999649048" y1="-22.465934753417969" x2="-0.28507453203201294" y2="-22.472755432128906" style="stroke:rgb(255,0,0);stroke-width:0.125" />
  <line x1="-0.2944832444190979" y1="-22.494266510009766" x2="-0.28507453203201294" y2="-22.472755432128906" style="stroke:rgb(255,0,0);stroke-width:0.125" />
  <line x1="-0.22742366790771484" y1="-22.460357666015625" x2="-0.20846071839332581" y2="-22.468711853027344" style="stroke:rgb(255,0,0);stroke-width:0.125" />
  <line x1="-0.21300414204597473" y1="-22.458784103393555" x2="-0.20846071839332581" y2="-22.468711853027344" style="stroke:rgb(255,0,0);stroke-width:0.125" />
  <line x1="-0.21885184943675995" y1="-22.47205924987793" x2="-0.20846071839332581" y2="-22.468711853027344" style="stroke:rgb(255,0,0);stroke-width:0.125" />
  <line x1="-0.26564931869506836" y1="-22.581573486328125" x2="-0.31821617484092712" y2="-22.672914505004883" style="stroke:rgb(255,0,0);stroke-width:0.125" />
  <line x1="-0.26554712653160095" y1="-22.655344009399414" x2="-0.31821617484092712" y2="-22.672914505004883" style="stroke:rgb(255,0,0);stroke-width:0.125" />
  <line x1="-0.3294854462146759" y1="-22.618547439575195" x2="-0.31821617484092712" y2="-22.672914505004883" style="stroke:rgb(255,0,0);stroke-width:0.125" />
  <line x1="-0.48013448715209961" y1="-22.916610717773438" x2="-0.58259552717208862" y2="-23.077882766723633" style="stroke:rgb(255,0,0);stroke-width:0.125" />
  <line x1="-0.48580285906791687" y1="-23.050237655639648" x2="-0.58259552717208862" y2="-23.077882766723633" style="stroke:rgb(255,0,0);stroke-width:0.125" />
  <line x1="-0.59869349002838135" y1="-22.978515625" x2="-0.58259552717208862" y2="-23.077882766723633" style="stroke:rgb(255,0,0);stroke-width:0.125" />
  <line x1="-0.72390604019165039" y1="-23.380958557128906" x2="-0.80672287940979" y2="-23.592098236083984" style="stroke:rgb(255,0,0);stroke-width:0.125" />
  <line x1="-0.70021224021911621" y1="-23.537940979003906" x2="-0.80672287940979" y2="-23.592098236083984" style="stroke:rgb(255,0,0);stroke-width:0.125" />
  <line x1="-0.84800988435745239" y1="-23.479969024658203" x2="-0.80672287940979" y2="-23.592098236083984" style="stroke:rgb(255,0,0);stroke-width:0.125" />
  <line x1="-0.87489604949951172" y1="-23.960746765136719" x2="-0.91223692893981934" y2="-24.208051681518555" style="stroke:rgb(255,0,0);stroke-width:0.125" />
  <line x1="-0.81097620725631714" y1="-24.123735427856445" x2="-0.91223692893981934" y2="-24.208051681518555" style="stroke:rgb(255,0,0);stroke-width:0.125" />
  <line x1="-0.98408925533294678" y1="-24.097597122192383" x2="-0.91223692893981934" y2="-24.208051681518555" style="stroke:rgb(255,0,0);stroke-width:0.125" />
  <line x1="-0.92276763916015625" y1="-24.601570129394531" x2="-0.923672080039978" y2="-24.864334106445313" style="stroke:rgb(255,0,0);stroke-width:0.125" />
  <line x1="-0.83134841918945313" y1="-24.761178970336914" x2="-0.923672080039978" y2="-24.864334106445313" style="stroke:rgb(255,0,0);stroke-width:0.125" />
  <line x1="-1.015283465385437" y1="-24.76054573059082" x2="-0.923672080039978" y2="-24.864334106445313" style="stroke:rgb(255,0,0);stroke-width:0.125" />
  <line x1="-0.87978792190551758" y1="-25.263565063476563" x2="-0.84477025270462036" y2="-25.531341552734375" style="stroke:rgb(255,0,0);stroke-width:0.125" />
  <line x1="-0.76483798027038574" y1="-25.413639068603516" x2="-0.84477025270462036" y2="-25.531341552734375" style="stroke:rgb(255,0,0);stroke-width:0.125" />
  <line x1="-0.95228123664855957" y1="-25.438152313232422" x2="-0.84477025270462036" y2="-25.531341552734375" style="stroke:rgb(255,0,0);stroke-width:0.125" />
  <line x1="-0.75266361236572266" y1="-25.933586120605469" x2="-0.68630701303482056" y2="-26.200464248657227" style="stroke:rgb(255,0,0);stroke-width:0.125" />
  <line x1="-0.61902976036071777" y1="-26.072147369384766" x2="-0.68630701303482056" y2="-26.200464248657227" style="stroke:rgb(255,0,0);stroke-width:0.125" />
  <line x1="-0.80584442615509033" y1="-26.118597030639648" x2="-0.68630701303482056" y2="-26.200464248657227" style="stroke:rgb(255,0,0);stroke-width:0.125" />
  <line x1="-0.54894208908081055" y1="-26.598258972167969" x2="-0.45484021306037903" y2="-26.86004638671875" style="stroke:rgb(255,0,0);stroke-width:0.125" />
  <line x1="-0.40027007460594177" y1="-26.724023818969727" x2="-0.45484021306037903" y2="-26.86004638671875" style="stroke:rgb(255,0,0);stroke-width:0.125" />
  <line x1="-0.58352166414260864" y1="-26.789896011352539" x2="-0.45484021306037903" y2="-26.86004638671875" style="stroke:rgb(255,0,0);stroke-width:0.125" />
</svg>