<?xml version="1.0" encoding="utf-8"?>
<svg version="1.0" width="600pt" height="800pt" viewBox="-20 0 40 64" preserveAspectRatio="xMidYMid meet" xmlns="http://www.w3.org/2000/svg">
  <line x1="-0.5" y1="0" x2="-0.5" y2="0.5" style="stroke:rgb(0,0,0);stroke-width:0.125" />
  <line x1="-0.5" y1="0.5" x2="-12" y2="0.5" style="stroke:rgb(0,0,0);stroke-width:0.125" />
  <line x1="-12" y1="0.5" x2="-12" y2="31.5" style="stroke:rgb(0,0,0);stroke-width:0.125" />
  <line x1="-12" y1="31.5" x2="-0.5" y2="31.5" style="stroke:rgb(0,0,0);stroke-width:0.125" />
  <line x1="-0.5" y1="31.5" x2="-0.5" y2="32" style="stroke:rgb(0,0,0);stroke-width:0.125" />
  <line x1="0.5" y1="0" x2="0.5" y2="0.5" style="stroke:rgb(0,0,0);stroke-width:0.125" />
  <line x1="0.5" y1="0.5" x2="12" y2="0.5" style="stroke:rgb(0,0,0);stroke-width:0.125" />
  <line x1="12" y1="0.5" x2="12" y2="31.5" style="stroke:rgb(0,0,0);stroke-width:0.125" />
  <line x1="12" y1="31.5" x2="0.5" y2="31.5" style="stroke:rgb(0,0,0);stroke-width:0.125" />
  <line x1="0.5" y1="31.5" x2="0.5" y2="32" style="stroke:rgb(0,0,0);stroke-width:0.125" />
  <line x1="0" y1="4" x2="0" y2="6" style="stroke:rgb(0,0,255);stroke-width:0.125" />
  <line x1="0" y1="6" x2="8" y2="6" style="stroke:rgb(0,0,255);stroke-width:0.125" />
  <line x1="8" y1="6" x2="8" y2="14" style="stroke:rgb(0,0,255);stroke-width:0.125" />
  <line x1="8" y1="14" x2="-8" y2="14" style="stroke:rgb(0,0,255);stroke-width:0.125" />
  <line x1="-8" y1="14" x2="-8" y2="24" style="stroke:rgb(0,0,255);stroke-width:0.125" />
  <line x1="-8" y1="24" x2="0" y2="24" style="stroke:rgb(0,0,255);stroke-width:0.125" />
  <line x1="0" y1="24" x2="0" y2="30" style="stroke:rgb(0,0,255);stroke-width:0.125" />
  <line x1="8.4583806625460056E-09" y1="2.2184238433837891" x2="1.2237007851467752E-08" y2="2.9491267204284668" style="stroke:rgb(0,0,0);stroke-width:0.125" />
  <line x1="0.65763247013092041" y1="2.2184238433837891" x2="1.2237007851467752E-08" y2="2.9491267204284668" style="stroke:rgb(0,0,0);stroke-width:0.125" />
  <line x1="-0.65763247013092041" y1="2.2184238433837891" x2="1.2237007851467752E-08" y2="2.9491267204284668" style="stroke:rgb(0,0,0);stroke-width:0.125" />
  <line x1="2.5827215921481184E-08" y1="3.9485912322998047" x2="4.384212104469043E-08" y2="4.6677341461181641" style="stroke:rgb(0,0,0);stroke-width:0.125" />
  <line x1="0.64722871780395508" y1="3.9485912322998047" x2="4.384212104469043E-08" y2="4.6677341461181641" style="stroke:rgb(0,0,0);stroke-width:0.125" />
  <line x1="-0.64722871780395508" y1="3.9485912322998047" x2="4.384212104469043E-08" y2="4.6677341461181641" style="stroke:rgb(0,0,0);stroke-width:0.125" />
</svg>