<?xml version="1.0" encoding="utf-8"?>
<svg version="1.0" width="600pt" height="800pt" viewBox="-20 -64 40 64" preserveAspectRatio="xMidYMid meet" xmlns="http://www.w3.org/2000/svg">
  <line x1="-0.5" y1="0" x2="-0.5" y2="-0.5" style="stroke:rgb(0,0,0);stroke-width:0.125" />
  <line x1="-0.5" y1="-0.5" x2="-12" y2="-0.5" style="stroke:rgb(0,0,0);stroke-width:0.125" />
  <line x1="-12" y1="-0.5" x2="-12" y2="-31.5" style="stroke:rgb(0,0,0);stroke-width:0.125" />
  <line x1="-12" y1="-31.5" x2="-0.5" y2="-31.5" style="stroke:rgb(0,0,0);stroke-width:0.125" />
  <line x1="-0.5" y1="-31.5" x2="-0.5" y2="-32" style="stroke:rgb(0,0,0);stroke-width:0.125" />
  <line x1="0.5" y1="0" x2="0.5" y2="-0.5" style="stroke:rgb(0,0,0);stroke-width:0.125" />
  <line x1="0.5" y1="-0.5" x2="12" y2="-0.5" style="stroke:rgb(0,0,0);stroke-width:0.125" />
  <line x1="12" y1="-0.5" x2="12" y2="-31.5" style="stroke:rgb(0,0,0);stroke-width:0.125" />
  <line x1="12" y1="-31.5" x2="0.5" y2="-31.5" style="stroke:rgb(0,0,0);stroke-width:0.125" />
  <line x1="0.5" y1="-31.5" x2="0.5" y2="-32" style="stroke:rgb(0,0,0);stroke-width:0.125" />
  <line x1="0" y1="-4" x2="0" y2="-6" style="stroke:rgb(0,0,255);stroke-width:0.125" />
  <line x1="0" y1="-6" x2="8" y2="-6" style="stroke:rgb(0,0,255);stroke-width:0.125" />
  <line x1="8" y1="-6" x2="8" y2="-14" style="stroke:rgb(0,0,255);stroke-width:0.125" />
  <line x1="8" y1="-14" x2="-8" y2="-14" style="stroke:rgb(0,0,255);stroke-width:0.125" />
  <line x1="-8" y1="-14" x2="-8" y2="-24" style="stroke:rgb(0,0,255);stroke-width:0.125" />
  <line x1="-8" y1="-24" x2="0" y2="-24" style="stroke:rgb(0,0,255);stroke-width:0.125" />
  <line x1="0" y1="-24" x2="0" y2="-30" style="stroke:rgb(0,0,255);stroke-width:0.125" />
  <line x1="-0.40475249290466309" y1="-2.3327999114990234" x2="-0.21044574677944183" y2="-3.0374233722686768" style="stroke:rgb(255,0,0);stroke-width:0.125" />
  <line x1="-0.040342122316360474" y1="-2.6919476985931396" x2="-0.21044574677944183" y2="-3.0374233722686768" style="stroke:rgb(255,0,0);stroke-width:0.125" />
  <line x1="-0.53357845544815063" y1="-2.8279623985290527" x2="-0.21044574677944183" y2="-3.0374233722686768" style="stroke:rgb(255,0,0);stroke-width:0.125" />
  <line x1="0.29056033492088318" y1="-4.1222629547119141" x2="0.59871715307235718" y2="-4.7979507446289063" style="stroke:rgb(255,0,0);stroke-width:0.125" />
  <line x1="0.71386116743087769" y1="-4.4240217208862305" x2="0.59871715307235718" y2="-4.7979507446289063" style="stroke:rgb(255,0,0);stroke-width:0.125" />
  <line x1="0.24087977409362793" y1="-4.6397318840026855" x2="0.59871715307235718" y2="-4.7979507446289063" style="stroke:rgb(255,0,0);stroke-width:0.125" />
</svg>