<?xml version="1.0" encoding="utf-8"?>
<svg version="1.0" width="450pt" height="720pt" viewBox="-20 -64 40 64" preserveAspectRatio="xMidYMid meet" xmlns="http://www.w3.org/2000/svg">
  <line x1="-0.5" y1="0" x2="-0.5" y2="-0.5" style="stroke:rgb(0,0,0);stroke-width:0.125" />
  <line x1="-0.5" y1="-0.5" x2="-12" y2="-0.5" style="stroke:rgb(0,0,0);stroke-width:0.125" />
  <line x1="-12" y1="-0.5" x2="-12" y2="-31.5" style="stroke:rgb(0,0,0);stroke-width:0.125" />
  <line x1="-12" y1="-31.5" x2="-0.5" y2="-31.5" style="stroke:rgb(0,0,0);stroke-width:0.125" />
  <line x1="-0.5" y1="-31.5" x2="-0.5" y2="-32" style="stroke:rgb(0,0,0);stroke-width:0.125" />
  <line x1="0.5" y1="0" x2="0.5" y2="-0.5" style="stroke:rgb(0,0,0);stroke-width:0.125" />
  <line x1="0.5" y1="-0.5" x2="12" y2="-0.5" style="stroke:rgb(0,0,0);stroke-width:0.125" />
  <line x1="12" y1="-0.5" x2="12" y2="-31.5" style="stroke:rgb(0,0,0);stroke-width:0.125" />
  <line x1="12" y1="-31.5" x2="0.5" y2="-31.5" style="stroke:rgb(0,0,0);stroke-width:0.125" />
  <line x1="0.5" y1="-31.5" x2="0.5" y2="-32" style="stroke:rgb(0,0,0);stroke-width:0.125" />
  <line x1="0" y1="-4" x2="0" y2="-6" style="stroke:rgb(0,0,255);stroke-width:0.125" />
  <line x1="0" y1="-6" x2="8" y2="-6" style="stroke:rgb(0,0,255);stroke-width:0.125" />
  <line x1="8" y1="-6" x2="8" y2="-14" style="stroke:rgb(0,0,255);stroke-width:0.125" />
  <line x1="8" y1="-14" x2="-8" y2="-14" style="stroke:rgb(0,0,255);stroke-width:0.125" />
  <line x1="-8" y1="-14" x2="-8" y2="-24" style="stroke:rgb(0,0,255);stroke-width:0.125" />
  <line x1="-8" y1="-24" x2="0" y2="-24" style="stroke:rgb(0,0,255);stroke-width:0.125" />
  <line x1="0" y1="-24" x2="0" y2="-30" style="stroke:rgb(0,0,255);stroke-width:0.125" />
  <line x1="0.4561747610569" y1="-2.2234878540039063" x2="0.47217315435409546" y2="-2.8438315391540527" style="stroke:rgb(255,0,0);stroke-width:0.125" />
  <line x1="0.68299353122711182" y1="-2.59395170211792" x2="0.47217315435409546" y2="-2.8438315391540527" style="stroke:rgb(255,0,0);stroke-width:0.125" />
  <line x1="0.24875299632549286" y1="-2.6051506996154785" x2="0.47217315435409546" y2="-2.8438315391540527" style="stroke:rgb(255,0,0);stroke-width:0.125" />
  <line x1="0.49293601512908936" y1="-3.5650634765625" x2="0.51071316003799438" y2="-4.0722851753234863" style="stroke:rgb(255,0,0);stroke-width:0.125" />
  <line x1="0.681240439414978" y1="-3.866328239440918" x2="0.51071316003799438" y2="-4.0722851753234863" style="stroke:rgb(255,0,0);stroke-width:0.125" />
  <line x1="0.3261851966381073" y1="-3.8787722587585449" x2="0.51071316003799438" y2="-4.0722851753234863" style="stroke:rgb(255,0,0);stroke-width:0.125" />
  <line x1="0.62305974960327148" y1="-4.6580276489257813" x2="0.72342562675476074" y2="-4.99624490737915" style="stroke:rgb(255,0,0);stroke-width:0.125" />
  <line x1="0.80227929353713989" y1="-4.8279328346252441" x2="0.72342562675476074" y2="-4.99624490737915" style="stroke:rgb(255,0,0);stroke-width:0.125" />
  <line x1="0.56552737951278687" y1="-4.8981890678405762" x2="0.72342562675476074" y2="-4.99624490737915" style="stroke:rgb(255,0,0);stroke-width:0.125" />
  <line x1="1.1362602710723877" y1="-5.29962158203125" x2="1.4197548627853394" y2="-5.4761323928833008" style="stroke:rgb(255,0,0);stroke-width:0.125" />
  <line x1="1.3698985576629639" y1="-5.3074026107788086" x2="1.4197548627853394" y2="-5.4761323928833008" style="stroke:rgb(255,0,0);stroke-width:0.125" />
  <line x1="1.2463408708572388" y1="-5.5058488845825195" x2="1.4197548627853394" y2="-5.4761323928833008" style="stroke:rgb(255,0,0);stroke-width:0.125" />
  <line x1="2.0216498374938965" y1="-5.5674591064453125" x2="2.4568436145782471" y2="-5.6321220397949219" style="stroke:rgb(255,0,0);stroke-width:0.125" />
  <line x1="2.3081040382385254" y1="-5.454340934753418" x2="2.4568436145782471" y2="-5.6321220397949219" style="stroke:rgb(255,0,0);stroke-width:0.125" />
  <line x1="2.2628400325775146" y1="-5.7589764595031738" x2="2.4568436145782471" y2="-5.6321220397949219" style="stroke:rgb(255,0,0);stroke-width:0.125" />
  <line x1="3.3098664283752441" y1="-5.7048721313476563" x2="3.8503201007843018" y2="-5.7704992294311523" style="stroke:rgb(255,0,0);stroke-width:0.125" />
  <line x1="3.660468578338623" y1="-5.5554976463317871" x2="3.8503201007843018" y2="-5.7704992294311523" style="stroke:rgb(255,0,0);stroke-width:0.125" />
  <line x1="3.6145296096801758" y1="-5.9338150024414063" x2="3.8503201007843018" y2="-5.7704992294311523" style="stroke:rgb(255,0,0);stroke-width:0.125" />
  <line x1="4.7913532257080078" y1="-5.8933334350585938" x2="5.3729729652404785" y2="-5.9855103492736816" style="stroke:rgb(255,0,0);stroke-width:0.125" />
  <line x1="5.17620325088501" y1="-5.7456459999084473" x2="5.3729729652404785" y2="-5.9855103492736816" style="stroke:rgb(255,0,0);stroke-width:0.125" />
  <line x1="5.1116795539855957" y1="-6.1527795791625977" x2="5.3729729652404785" y2="-5.9855103492736816" style="stroke:rgb(255,0,0);stroke-width:0.125" />
  <line x1="6.110506534576416" y1="-6.1644821166992188" x2="6.6373834609985352" y2="-6.2977466583251953" style="stroke:rgb(255,0,0);stroke-width:0.125" />
  <line x1="6.4765515327453613" y1="-6.0608625411987305" x2="6.6373834609985352" y2="-6.2977466583251953" style="stroke:rgb(255,0,0);stroke-width:0.125" />
  <line x1="6.3832659721374512" y1="-6.4296765327453613" x2="6.6373834609985352" y2="-6.2977466583251953" style="stroke:rgb(255,0,0);stroke-width:0.125" />
  <line x1="7.3153724670410156" y1="-6.7049636840820313" x2="7.6942591667175293" y2="-6.981684684753418" style="stroke:rgb(255,0,0);stroke-width:0.125" />
  <line x1="7.6419129371643066" y1="-6.7401065826416016" x2="7.6942591667175293" y2="-6.981684684753418" style="stroke:rgb(255,0,0);stroke-width:0.125" />
  <line x1="7.4482078552246094" y1="-7.0053272247314453" x2="7.6942591667175293" y2="-6.981684684753418" style="stroke:rgb(255,0,0);stroke-width:0.125" />
  <line x1="7.9388999938964844" y1="-7.5145797729492188" x2="8.0985279083251953" y2="-7.8949298858642578" style="stroke:rgb(255,0,0);stroke-width:0.125" />
  <line x1="8.1687917709350586" y1="-7.6892852783203125" x2="8.0985279083251953" y2="-7.8949298858642578" style="stroke:rgb(255,0,0);stroke-width:0.125" />
  <line x1="7.9025464057922363" y1="-7.8010244369506836" x2="8.0985279083251953" y2="-7.8949298858642578" style="stroke:rgb(255,0,0);stroke-width:0.125" />
  <line x1="8.05446720123291" y1="-8.61944580078125" x2="8.01577091217041" y2="-9.0808906555175781" style="stroke:rgb(255,0,0);stroke-width:0.125" />
  <line x1="8.1925144195556641" y1="-8.9127254486083984" x2="8.01577091217041" y2="-9.0808906555175781" style="stroke:rgb(255,0,0);stroke-width:0.125" />
  <line x1="7.8695030212402344" y1="-8.8856382369995117" x2="8.01577091217041" y2="-9.0808906555175781" style="stroke:rgb(255,0,0);stroke-width:0.125" />
  <line x1="7.8469367027282715" y1="-9.9214401245117188" x2="7.7535576820373535" y2="-10.45667552947998" style="stroke:rgb(255,0,0);stroke-width:0.125" />
  <line x1="7.9776611328125" y1="-10.278592109680176" x2="7.7535576820373535" y2="-10.45667552947998" style="stroke:rgb(255,0,0);stroke-width:0.125" />
  <line x1="7.6029963493347168" y1="-10.213226318359375" x2="7.7535576820373535" y2="-10.45667552947998" style="stroke:rgb(255,0,0);stroke-width:0.125" />
  <line x1="7.5708713531494141" y1="-11.312095642089844" x2="7.4536118507385254" y2="-11.816824913024902" style="stroke:rgb(255,0,0);stroke-width:0.125" />
  <line x1="7.6764416694641113" y1="-11.659111976623535" x2="7.4536118507385254" y2="-11.816824913024902" style="stroke:rgb(255,0,0);stroke-width:0.125" />
  <line x1="7.3231310844421387" y1="-11.577030181884766" x2="7.4536118507385254" y2="-11.816824913024902" style="stroke:rgb(255,0,0);stroke-width:0.125" />
  <line x1="7.3119010925292969" y1="-12.429695129394531" x2="7.206061840057373" y2="-12.858922004699707" style="stroke:rgb(255,0,0);stroke-width:0.125" />
  <line x1="7.3979687690734863" y1="-12.726943969726563" x2="7.206061840057373" y2="-12.858922004699707" style="stroke:rgb(255,0,0);stroke-width:0.125" />
  <line x1="7.0975098609924316" y1="-12.652856826782227" x2="7.206061840057373" y2="-12.858922004699707" style="stroke:rgb(255,0,0);stroke-width:0.125" />
  <line x1="6.9042854309082031" y1="-13.3875732421875" x2="6.6801447868347168" y2="-13.694856643676758" style="stroke:rgb(255,0,0);stroke-width:0.125" />
  <line x1="6.8759565353393555" y1="-13.652303695678711" x2="6.6801447868347168" y2="-13.694856643676758" style="stroke:rgb(255,0,0);stroke-width:0.125" />
  <line x1="6.660858154296875" y1="-13.495405197143555" x2="6.6801447868347168" y2="-13.694856643676758" style="stroke:rgb(255,0,0);stroke-width:0.125" />
  <line x1="6.0651464462280273" y1="-13.975173950195313" x2="5.6634793281555176" y2="-14.13504695892334" style="stroke:rgb(255,0,0);stroke-width:0.125" />
  <line x1="5.8776044845581055" y1="-14.212675094604492" x2="5.6634793281555176" y2="-14.13504695892334" style="stroke:rgb(255,0,0);stroke-width:0.125" />
  <line x1="5.765693187713623" y1="-13.93150806427002" x2="5.6634793281555176" y2="-14.13504695892334" style="stroke:rgb(255,0,0);stroke-width:0.125" />
  <line x1="4.9203372001647949" y1="-14.205131530761719" x2="4.38238000869751" y2="-14.246114730834961" style="stroke:rgb(255,0,0);stroke-width:0.125" />
  <line x1="4.6085619926452637" y1="-14.418261528015137" x2="4.38238000869751" y2="-14.246114730834961" style="stroke:rgb(255,0,0);stroke-width:0.125" />
  <line x1="4.5798740386962891" y1="-14.041690826416016" x2="4.38238000869751" y2="-14.246114730834961" style="stroke:rgb(255,0,0);stroke-width:0.125" />
  <line x1="3.3558320999145508" y1="-14.166290283203125" x2="2.7015447616577148" y2="-14.105666160583496" style="stroke:rgb(255,0,0);stroke-width:0.125" />
  <line x1="2.9379732608795166" y1="-14.358539581298828" x2="2.7015447616577148" y2="-14.105666160583496" style="stroke:rgb(255,0,0);stroke-width:0.125" />
  <line x1="2.9804098606109619" y1="-13.900538444519043" x2="2.7015447616577148" y2="-14.105666160583496" style="stroke:rgb(255,0,0);stroke-width:0.125" />
  <line x1="1.5405579805374146" y1="-13.92681884765625" x2="0.82997602224349976" y2="-13.833471298217773" style="stroke:rgb(255,0,0);stroke-width:0.125" />
  <line x1="1.0771188735961914" y1="-14.11893367767334" x2="0.82997602224349976" y2="-13.833471298217773" style="stroke:rgb(255,0,0);stroke-width:0.125" />
  <line x1="1.1424622535705566" y1="-13.621525764465332" x2="0.82997602224349976" y2="-13.833471298217773" style="stroke:rgb(255,0,0);stroke-width:0.125" />
  <line x1="-0.16470341384410858" y1="-13.809837341308594" x2="-0.87308394908905029" y2="-13.806642532348633" style="stroke:rgb(255,0,0);stroke-width:0.125" />
  <line x1="-0.59525460004806519" y1="-14.05583381652832" x2="-0.87308394908905029" y2="-13.806642532348633" style="stroke:rgb(255,0,0);stroke-width:0.125" />
  <line x1="-0.59301793575286865" y1="-13.559967041015625" x2="-0.87308394908905029" y2="-13.806642532348633" style="stroke:rgb(255,0,0);stroke-width:0.125" />
  <line x1="-2.0153706073760986" y1="-13.916290283203125" x2="-2.7327778339385986" y2="-13.979098320007324" style="stroke:rgb(255,0,0);stroke-width:0.125" />
  <line x1="-2.428292989730835" y1="-14.20545768737793" x2="-2.7327778339385986" y2="-13.979098320007324" style="stroke:rgb(255,0,0);stroke-width:0.125" />
  <line x1="-2.4722583293914795" y1="-13.703272819519043" x2="-2.7327778339385986" y2="-13.979098320007324" style="stroke:rgb(255,0,0);stroke-width:0.125" />
  <line x1="-3.8255894184112549" y1="-14.113792419433594" x2="-4.4958295822143555" y2="-14.205418586730957" style="stroke:rgb(255,0,0);stroke-width:0.125" />
  <line x1="-4.1998319625854492" y1="-14.403922080993652" x2="-4.4958295822143555" y2="-14.205418586730957" style="stroke:rgb(255,0,0);stroke-width:0.125" />
  <line x1="-4.263969898223877" y1="-13.93475341796875" x2="-4.4958295822143555" y2="-14.205418586730957" style="stroke:rgb(255,0,0);stroke-width:0.125" />
  <line x1="-5.4004793167114258" y1="-14.3563232421875" x2="-5.9364323616027832" y2="-14.455812454223633" style="stroke:rgb(255,0,0);stroke-width:0.125" />
  <line x1="-5.6905622482299805" y1="-14.604219436645508" x2="-5.9364323616027832" y2="-14.455812454223633" style="stroke:rgb(255,0,0);stroke-width:0.125" />
  <line x1="-5.7602047920227051" y1="-14.22905158996582" x2="-5.9364323616027832" y2="-14.455812454223633" style="stroke:rgb(255,0,0);stroke-width:0.125" />
  <line x1="-6.5323953628540039" y1="-14.713729858398438" x2="-6.9288148880004883" y2="-14.926216125488281" style="stroke:rgb(255,0,0);stroke-width:0.125" />
  <line x1="-6.6983418464660645" y1="-14.981289863586426" x2="-6.9288148880004883" y2="-14.926216125488281" style="stroke:rgb(255,0,0);stroke-width:0.125" />
  <line x1="-6.8470821380615234" y1="-14.70379638671875" x2="-6.9288148880004883" y2="-14.926216125488281" style="stroke:rgb(255,0,0);stroke-width:0.125" />
  <line x1="-7.2726426124572754" y1="-15.497817993164063" x2="-7.4619460105896" y2="-15.865180015563965" style="stroke:rgb(255,0,0);stroke-width:0.125" />
  <line x1="-7.2588253021240234" y1="-15.786775588989258" x2="-7.4619460105896" y2="-15.865180015563965" style="stroke:rgb(255,0,0);stroke-width:0.125" />
  <line x1="-7.5159783363342285" y1="-15.654262542724609" x2="-7.4619460105896" y2="-15.865180015563965" style="stroke:rgb(255,0,0);stroke-width:0.125" />
  <line x1="-7.5273323059082031" y1="-16.5086669921875" x2="-7.5826516151428223" y2="-16.970922470092773" style="stroke:rgb(255,0,0);stroke-width:0.125" />
  <line x1="-7.399078369140625" y1="-16.808256149291992" x2="-7.5826516151428223" y2="-16.970922470092773" style="stroke:rgb(255,0,0);stroke-width:0.125" />
  <line x1="-7.7226576805114746" y1="-16.769533157348633" x2="-7.5826516151428223" y2="-16.970922470092773" style="stroke:rgb(255,0,0);stroke-width:0.125" />
  <line x1="-7.6208987236022949" y1="-17.830604553222656" x2="-7.6482973098754883" y2="-18.375129699707031" style="stroke:rgb(255,0,0);stroke-width:0.125" />
  <line x1="-7.4469242095947266" y1="-18.170295715332031" x2="-7.6482973098754883" y2="-18.375129699707031" style="stroke:rgb(255,0,0);stroke-width:0.125" />
  <line x1="-7.828092098236084" y1="-18.1511173248291" x2="-7.6482973098754883" y2="-18.375129699707031" style="stroke:rgb(255,0,0);stroke-width:0.125" />
  <line x1="-7.6711869239807129" y1="-19.349258422851563" x2="-7.68322229385376" y2="-19.968124389648438" style="stroke:rgb(255,0,0);stroke-width:0.125" />
  <line x1="-7.4618797302246094" y1="-19.7286376953125" x2="-7.68322229385376" y2="-19.968124389648438" style="stroke:rgb(255,0,0);stroke-width:0.125" />
  <line x1="-7.8950862884521484" y1="-19.72021484375" x2="-7.68322229385376" y2="-19.968124389648438" style="stroke:rgb(255,0,0);stroke-width:0.125" />
  <line x1="-7.644193172454834" y1="-21.000205993652344" x2="-7.6021485328674316" y2="-21.630229949951172" style="stroke:rgb(255,0,0);stroke-width:0.125" />
  <line x1="-7.3981966972351074" y1="-21.367422103881836" x2="-7.6021485328674316" y2="-21.630229949951172" style="stroke:rgb(255,0,0);stroke-width:0.125" />
  <line x1="-7.8392128944396973" y1="-21.396852493286133" x2="-7.6021485328674316" y2="-21.630229949951172" style="stroke:rgb(255,0,0);stroke-width:0.125" />
  <line x1="-7.48321533203125" y1="-22.517807006835938" x2="-7.41647481918335" y2="-23.053014755249023" style="stroke:rgb(255,0,0);stroke-width:0.125" />
  <line x1="-7.2554335594177246" y1="-22.818899154663086" x2="-7.41647481918335" y2="-23.053014755249023" style="stroke:rgb(255,0,0);stroke-width:0.125" />
  <line x1="-7.6300787925720215" y1="-22.865617752075195" x2="-7.41647481918335" y2="-23.053014755249023" style="stroke:rgb(255,0,0);stroke-width:0.125" />
  <line x1="-7.2270197868347168" y1="-23.600601196289063" x2="-7.06926965713501" y2="-23.971956253051758" style="stroke:rgb(255,0,0);stroke-width:0.125" />
  <line x1="-7.0014147758483887" y1="-23.770509719848633" x2="-7.06926965713501" y2="-23.971956253051758" style="stroke:rgb(255,0,0);stroke-width:0.125" />
  <line x1="-7.2613630294799805" y1="-23.880935668945313" x2="-7.06926965713501" y2="-23.971956253051758" style="stroke:rgb(255,0,0);stroke-width:0.125" />
  <line x1="-6.5912656784057617" y1="-24.267204284667969" x2="-6.2762150764465332" y2="-24.430398941040039" style="stroke:rgb(255,0,0);stroke-width:0.125" />
  <line x1="-6.34315824508667" y1="-24.255867004394531" x2="-6.2762150764465332" y2="-24.430398941040039" style="stroke:rgb(255,0,0);stroke-width:0.125" />
  <line x1="-6.4573945999145508" y1="-24.476404190063477" x2="-6.2762150764465332" y2="-24.430398941040039" style="stroke:rgb(255,0,0);stroke-width:0.125" />
  <line x1="-5.5819859504699707" y1="-24.442375183105469" x2="-5.1350679397583008" y2="-24.433012008666992" style="stroke:rgb(255,0,0);stroke-width:0.125" />
  <line x1="-5.3143339157104492" y1="-24.280277252197266" x2="-5.1350679397583008" y2="-24.433012008666992" style="stroke:rgb(255,0,0);stroke-width:0.125" />
  <line x1="-5.3077788352966309" y1="-24.593120574951172" x2="-5.1350679397583008" y2="-24.433012008666992" style="stroke:rgb(255,0,0);stroke-width:0.125" />
  <line x1="-4.273709774017334" y1="-24.28753662109375" x2="-3.7301268577575684" y2="-24.212121963500977" style="stroke:rgb(255,0,0);stroke-width:0.125" />
  <line x1="-3.9705753326416016" y1="-24.051565170288086" x2="-3.7301268577575684" y2="-24.212121963500977" style="stroke:rgb(255,0,0);stroke-width:0.125" />
  <line x1="-3.9177849292755127" y1="-24.432073593139648" x2="-3.7301268577575684" y2="-24.212121963500977" style="stroke:rgb(255,0,0);stroke-width:0.125" />
  <line x1="-2.9053909778594971" y1="-24.2042236328125" x2="-2.3328900337219238" y2="-24.2247371673584" style="stroke:rgb(255,0,0);stroke-width:0.125" />
  <line x1="-2.5511512756347656" y1="-24.01628303527832" x2="-2.3328900337219238" y2="-24.2247371673584" style="stroke:rgb(255,0,0);stroke-width:0.125" />
  <line x1="-2.5655102729797363" y1="-24.417034149169922" x2="-2.3328900337219238" y2="-24.2247371673584" style="stroke:rgb(255,0,0);stroke-width:0.125" />
  <line x1="-1.530447244644165" y1="-24.395401000976563" x2="-1.0541161298751831" y2="-24.514204025268555" style="stroke:rgb(255,0,0);stroke-width:0.125" />
  <line x1="-1.2001059055328369" y1="-24.300704956054688" x2="-1.0541161298751831" y2="-24.514204025268555" style="stroke:rgb(255,0,0);stroke-width:0.125" />
  <line x1="-1.2832678556442261" y1="-24.634138107299805" x2="-1.0541161298751831" y2="-24.514204025268555" style="stroke:rgb(255,0,0);stroke-width:0.125" />
  <line x1="-0.56047922372817993" y1="-24.920127868652344" x2="-0.28827783465385437" y2="-25.190853118896484" style="stroke:rgb(255,0,0);stroke-width:0.125" />
  <line x1="-0.30071178078651428" y1="-24.988975524902344" x2="-0.28827783465385437" y2="-25.190853118896484" style="stroke:rgb(255,0,0);stroke-width:0.125" />
  <line x1="-0.49022004008293152" y1="-25.17951774597168" x2="-0.28827783465385437" y2="-25.190853118896484" style="stroke:rgb(255,0,0);stroke-width:0.125" />
  <line x1="-0.15884557366371155" y1="-25.726066589355469" x2="-0.0733867660164833" y2="-26.115200042724609" style="stroke:rgb(255,0,0);stroke-width:0.125" />
  <line x1="0.02915799617767334" y1="-25.932056427001953" x2="-0.0733867660164833" y2="-26.115200042724609" style="stroke:rgb(255,0,0);stroke-width:0.125" />
  <line x1="-0.24323584139347076" y1="-25.991876602172852" x2="-0.0733867660164833" y2="-26.115200042724609" style="stroke:rgb(255,0,0);stroke-width:0.125" />
  <line x1="-0.085516162216663361" y1="-26.889228820800781" x2="-0.083284370601177216" y2="-27.382164001464844" style="stroke:rgb(255,0,0);stroke-width:0.125" />
  <line x1="0.088364101946353912" y1="-27.187273025512695" x2="-0.083284370601177216" y2="-27.382164001464844" style="stroke:rgb(255,0,0);stroke-width:0.125" />
  <line x1="-0.25669053196907043" y1="-27.188835144042969" x2="-0.083284370601177216" y2="-27.382164001464844" style="stroke:rgb(255,0,0);stroke-width:0.125" />
</svg>