<?xml version="1.0" encoding="utf-8"?>
<svg version="1.0" width="270pt" height="360pt" viewBox="-20 -64 40 64" preserveAspectRatio="xMidYMid meet" xmlns="http://www.w3.org/2000/svg">
  <line x1="-0.5" y1="0" x2="-0.5" y2="-0.5" style="stroke:rgb(0,0,0);stroke-width:0.125" />
  <line x1="-0.5" y1="-0.5" x2="-12" y2="-0.5" style="stroke:rgb(0,0,0);stroke-width:0.125" />
  <line x1="-12" y1="-0.5" x2="-12" y2="-31.5" style="stroke:rgb(0,0,0);stroke-width:0.125" />
  <line x1="-12" y1="-31.5" x2="-0.5" y2="-31.5" style="stroke:rgb(0,0,0);stroke-width:0.125" />
  <line x1="-0.5" y1="-31.5" x2="-0.5" y2="-32" style="stroke:rgb(0,0,0);stroke-width:0.125" />
  <line x1="0.5" y1="0" x2="0.5" y2="-0.5" style="stroke:rgb(0,0,0);stroke-width:0.125" />
  <line x1="0.5" y1="-0.5" x2="12" y2="-0.5" style="stroke:rgb(0,0,0);stroke-width:0.125" />
  <line x1="12" y1="-0.5" x2="12" y2="-31.5" style="stroke:rgb(0,0,0);stroke-width:0.125" />
  <line x1="12" y1="-31.5" x2="0.5" y2="-31.5" style="stroke:rgb(0,0,0);stroke-width:0.125" />
  <line x1="0.5" y1="-31.5" x2="0.5" y2="-32" style="stroke:rgb(0,0,0);stroke-width:0.125" />
  <line x1="0" y1="-4" x2="0" y2="-6" style="stroke:rgb(0,0,255);stroke-width:0.125" />
  <line x1="0" y1="-6" x2="8" y2="-6" style="stroke:rgb(0,0,255);stroke-width:0.125" />
  <line x1="8" y1="-6" x2="8" y2="-14" style="stroke:rgb(0,0,255);stroke-width:0.125" />
  <line x1="8" y1="-14" x2="-8" y2="-14" style="stroke:rgb(0,0,255);stroke-width:0.125" />
  <line x1="-8" y1="-14" x2="-8" y2="-24" style="stroke:rgb(0,0,255);stroke-width:0.125" />
  <line x1="-8" y1="-24" x2="0" y2="-24" style="stroke:rgb(0,0,255);stroke-width:0.125" />
  <line x1="0" y1="-24" x2="0" y2="-30" style="stroke:rgb(0,0,255);stroke-width:0.125" />
  <line x1="-0.19205918908119202" y1="-2.2219314575195313" x2="-0.12533439695835114" y2="-2.7661385536193848" style="stroke:rgb(255,0,0);stroke-width:0.125" />
  <line x1="0.038863047957420349" y1="-2.5284857749938965" x2="-0.12533439695835114" y2="-2.7661385536193848" style="stroke:rgb(255,0,0);stroke-width:0.125" />
  <line x1="-0.34208190441131592" y1="-2.5751931667327881" x2="-0.12533439695835114" y2="-2.7661385536193848" style="stroke:rgb(255,0,0);stroke-width:0.125" />
  <line x1="-0.02102317288517952" y1="-3.3598785400390625" x2="0.046986695379018784" y2="-3.7893385887145996" style="stroke:rgb(255,0,0);stroke-width:0.125" />
  <line x1="0.17051661014556885" y1="-3.5964212417602539" x2="0.046986695379018784" y2="-3.7893385887145996" style="stroke:rgb(255,0,0);stroke-width:0.125" />
  <line x1="-0.13010537624359131" y1="-3.6440281867980957" x2="0.046986695379018784" y2="-3.7893385887145996" style="stroke:rgb(255,0,0);stroke-width:0.125" />
  <line x1="0.13877275586128235" y1="-4.3688430786132813" x2="0.19500404596328735" y2="-4.7234559059143066" style="stroke:rgb(255,0,0);stroke-width:0.125" />
  <line x1="0.29697561264038086" y1="-4.56413459777832" x2="0.19500404596328735" y2="-4.7234559059143066" style="stroke:rgb(255,0,0);stroke-width:0.125" />
  <line x1="0.048746697604656219" y1="-4.6034965515136719" x2="0.19500404596328735" y2="-4.7234559059143066" style="stroke:rgb(255,0,0);stroke-width:0.125" />
  <line x1="0.32063430547714233" y1="-5.087127685546875" x2="0.43270370364189148" y2="-5.3260278701782227" style="stroke:rgb(255,0,0);stroke-width:0.125" />
  <line x1="0.47218790650367737" y1="-5.1927289962768555" x2="0.43270370364189148" y2="-5.3260278701782227" style="stroke:rgb(255,0,0);stroke-width:0.125" />
  <line x1="0.30495762825012207" y1="-5.2711777687072754" x2="0.43270370364189148" y2="-5.3260278701782227" style="stroke:rgb(255,0,0);stroke-width:0.125" />
  <line x1="0.83662408590316772" y1="-5.460540771484375" x2="1.1118940114974976" y2="-5.5247039794921875" style="stroke:rgb(255,0,0);stroke-width:0.125" />
  <line x1="1.0259547233581543" y1="-5.4030928611755371" x2="1.1118940114974976" y2="-5.5247039794921875" style="stroke:rgb(255,0,0);stroke-width:0.125" />
  <line x1="0.98104053735733032" y1="-5.5957822799682617" x2="1.1118940114974976" y2="-5.5247039794921875" style="stroke:rgb(255,0,0);stroke-width:0.125" />
  <line x1="1.663182258605957" y1="-5.4982833862304688" x2="2.0614526271820068" y2="-5.4961404800415039" style="stroke:rgb(255,0,0);stroke-width:0.125" />
  <line x1="1.903870701789856" y1="-5.3575897216796875" x2="2.0614526271820068" y2="-5.4961404800415039" style="stroke:rgb(255,0,0);stroke-width:0.125" />
  <line x1="1.905370831489563" y1="-5.6363787651062012" x2="2.0614526271820068" y2="-5.4961404800415039" style="stroke:rgb(255,0,0);stroke-width:0.125" />
  <line x1="2.8289110660552979" y1="-5.5543441772460938" x2="3.3101181983947754" y2="-5.6130189895629883" style="stroke:rgb(255,0,0);stroke-width:0.125" />
  <line x1="3.1411635875701904" y1="-5.4214916229248047" x2="3.3101181983947754" y2="-5.6130189895629883" style="stroke:rgb(255,0,0);stroke-width:0.125" />
  <line x1="3.1000912189483643" y1="-5.7583365440368652" x2="3.3101181983947754" y2="-5.6130189895629883" style="stroke:rgb(255,0,0);stroke-width:0.125" />
  <line x1="4.0029182434082031" y1="-5.8057785034179688" x2="4.4839057922363281" y2="-5.9407286643981934" style="stroke:rgb(255,0,0);stroke-width:0.125" />
  <line x1="4.3417339324951172" y1="-5.7192420959472656" x2="4.4839057922363281" y2="-5.9407286643981934" style="stroke:rgb(255,0,0);stroke-width:0.125" />
  <line x1="4.2472686767578125" y1="-6.0559329986572266" x2="4.4839057922363281" y2="-5.9407286643981934" style="stroke:rgb(255,0,0);stroke-width:0.125" />
  <line x1="5.15233850479126" y1="-6.1627578735351563" x2="5.5545740127563477" y2="-6.2913455963134766" style="stroke:rgb(255,0,0);stroke-width:0.125" />
  <line x1="5.4411864280700684" y1="-6.0999274253845215" x2="5.5545740127563477" y2="-6.2913455963134766" style="stroke:rgb(255,0,0);stroke-width:0.125" />
  <line x1="5.3511748313903809" y1="-6.3814921379089355" x2="5.5545740127563477" y2="-6.2913455963134766" style="stroke:rgb(255,0,0);stroke-width:0.125" />
  <line x1="6.0301761627197266" y1="-6.4433975219726563" x2="6.3671455383300781" y2="-6.5511212348937988" style="stroke:rgb(255,0,0);stroke-width:0.125" />
  <line x1="6.2721562385559082" y1="-6.3907623291015625" x2="6.3671455383300781" y2="-6.5511212348937988" style="stroke:rgb(255,0,0);stroke-width:0.125" />
  <line x1="6.1967496871948242" y1="-6.626640796661377" x2="6.3671455383300781" y2="-6.5511212348937988" style="stroke:rgb(255,0,0);stroke-width:0.125" />
  <line x1="6.82186222076416" y1="-6.6979217529296875" x2="7.1001043319702148" y2="-6.79128360748291" style="stroke:rgb(255,0,0);stroke-width:0.125" />
  <line x1="7.0232143402099609" y1="-6.6571345329284668" x2="7.1001043319702148" y2="-6.79128360748291" style="stroke:rgb(255,0,0);stroke-width:0.125" />
  <line x1="6.9578609466552734" y1="-6.8519039154052734" x2="7.1001043319702148" y2="-6.79128360748291" style="stroke:rgb(255,0,0);stroke-width:0.125" />
  <line x1="7.4585003852844238" y1="-7.0292739868164063" x2="7.6755380630493164" y2="-7.2046875953674316" style="stroke:rgb(255,0,0);stroke-width:0.125" />
  <line x1="7.6514673233032227" y1="-7.05964994430542" x2="7.6755380630493164" y2="-7.2046875953674316" style="stroke:rgb(255,0,0);stroke-width:0.125" />
  <line x1="7.5286774635314941" y1="-7.211575984954834" x2="7.6755380630493164" y2="-7.2046875953674316" style="stroke:rgb(255,0,0);stroke-width:0.125" />
  <line x1="7.9099249839782715" y1="-7.6183700561523438" x2="8.0749797821044922" y2="-7.9196720123291016" style="stroke:rgb(255,0,0);stroke-width:0.125" />
  <line x1="8.1154394149780273" y1="-7.743255615234375" x2="8.0749797821044922" y2="-7.9196720123291016" style="stroke:rgb(255,0,0);stroke-width:0.125" />
  <line x1="7.9045281410217285" y1="-7.85879373550415" x2="8.0749797821044922" y2="-7.9196720123291016" style="stroke:rgb(255,0,0);stroke-width:0.125" />
  <line x1="8.2672891616821289" y1="-8.5645828247070313" x2="8.3748111724853516" y2="-8.9769287109375" style="stroke:rgb(255,0,0);stroke-width:0.125" />
  <line x1="8.4767923355102539" y1="-8.776921272277832" x2="8.3748111724853516" y2="-8.9769287109375" style="stroke:rgb(255,0,0);stroke-width:0.125" />
  <line x1="8.1881494522094727" y1="-8.8521871566772461" x2="8.3748111724853516" y2="-8.9769287109375" style="stroke:rgb(255,0,0);stroke-width:0.125" />
  <line x1="8.3947601318359375" y1="-9.6349868774414063" x2="8.3992395401000977" y2="-10.10445499420166" style="stroke:rgb(255,0,0);stroke-width:0.125" />
  <line x1="8.5617895126342773" y1="-9.91801929473877" x2="8.3992395401000977" y2="-10.10445499420166" style="stroke:rgb(255,0,0);stroke-width:0.125" />
  <line x1="8.2331619262695313" y1="-9.9211549758911133" x2="8.3992395401000977" y2="-10.10445499420166" style="stroke:rgb(255,0,0);stroke-width:0.125" />
  <line x1="8.23315143585205" y1="-10.884483337402344" x2="8.1232814788818359" y2="-11.359601020812988" style="stroke:rgb(255,0,0);stroke-width:0.125" />
  <line x1="8.3328371047973633" y1="-11.210962295532227" x2="8.1232814788818359" y2="-11.359601020812988" style="stroke:rgb(255,0,0);stroke-width:0.125" />
  <line x1="8.0002555847167969" y1="-11.134053230285645" x2="8.1232814788818359" y2="-11.359601020812988" style="stroke:rgb(255,0,0);stroke-width:0.125" />
  <line x1="7.9342222213745117" y1="-11.935600280761719" x2="7.8129734992980957" y2="-12.341464996337891" style="stroke:rgb(255,0,0);stroke-width:0.125" />
  <line x1="8.0027713775634766" y1="-12.224079132080078" x2="7.8129734992980957" y2="-12.341464996337891" style="stroke:rgb(255,0,0);stroke-width:0.125" />
  <line x1="7.7186665534973145" y1="-12.139204978942871" x2="7.8129734992980957" y2="-12.341464996337891" style="stroke:rgb(255,0,0);stroke-width:0.125" />
  <line x1="7.6176161766052246" y1="-12.880470275878906" x2="7.4739913940429688" y2="-13.200522422790527" style="stroke:rgb(255,0,0);stroke-width:0.125" />
  <line x1="7.6425666809082031" y1="-13.124760627746582" x2="7.4739913940429688" y2="-13.200522422790527" style="stroke:rgb(255,0,0);stroke-width:0.125" />
  <line x1="7.4185299873352051" y1="-13.024223327636719" x2="7.4739913940429688" y2="-13.200522422790527" style="stroke:rgb(255,0,0);stroke-width:0.125" />
  <line x1="7.0406241416931152" y1="-13.506301879882813" x2="6.74211311340332" y2="-13.673221588134766" style="stroke:rgb(255,0,0);stroke-width:0.125" />
  <line x1="6.918083667755127" y1="-13.711970329284668" x2="6.74211311340332" y2="-13.673221588134766" style="stroke:rgb(255,0,0);stroke-width:0.125" />
  <line x1="6.8012399673461914" y1="-13.503012657165527" x2="6.74211311340332" y2="-13.673221588134766" style="stroke:rgb(255,0,0);stroke-width:0.125" />
  <line x1="6.1576128005981445" y1="-13.692642211914063" x2="5.7357144355773926" y2="-13.696853637695313" style="stroke:rgb(255,0,0);stroke-width:0.125" />
  <line x1="5.9033246040344238" y1="-13.842859268188477" x2="5.7357144355773926" y2="-13.696853637695313" style="stroke:rgb(255,0,0);stroke-width:0.125" />
  <line x1="5.9003763198852539" y1="-13.547531127929688" x2="5.7357144355773926" y2="-13.696853637695313" style="stroke:rgb(255,0,0);stroke-width:0.125" />
  <line x1="4.9080228805541992" y1="-13.530998229980469" x2="4.3821673393249512" y2="-13.435178756713867" style="stroke:rgb(255,0,0);stroke-width:0.125" />
  <line x1="4.5557031631469727" y1="-13.656959533691406" x2="4.3821673393249512" y2="-13.435178756713867" style="stroke:rgb(255,0,0);stroke-width:0.125" />
  <line x1="4.622776985168457" y1="-13.288861274719238" x2="4.3821673393249512" y2="-13.435178756713867" style="stroke:rgb(255,0,0);stroke-width:0.125" />
  <line x1="3.5573160648345947" y1="-13.329170227050781" x2="2.9661428928375244" y2="-13.271883964538574" style="stroke:rgb(255,0,0);stroke-width:0.125" />
  <line x1="3.1788859367370605" y1="-13.501352310180664" x2="2.9661428928375244" y2="-13.271883964538574" style="stroke:rgb(255,0,0);stroke-width:0.125" />
  <line x1="3.2189867496490479" y1="-13.087531089782715" x2="2.9661428928375244" y2="-13.271883964538574" style="stroke:rgb(255,0,0);stroke-width:0.125" />
  <line x1="1.949074387550354" y1="-13.341880798339844" x2="1.3094477653503418" y2="-13.380620956420898" style="stroke:rgb(255,0,0);stroke-width:0.125" />
  <line x1="1.5748803615570068" y1="-13.589235305786133" x2="1.3094477653503418" y2="-13.380620956420898" style="stroke:rgb(255,0,0);stroke-width:0.125" />
  <line x1="1.547762393951416" y1="-13.141496658325195" x2="1.3094477653503418" y2="-13.380620956420898" style="stroke:rgb(255,0,0);stroke-width:0.125" />
  <line x1="0.347644180059433" y1="-13.452117919921875" x2="-0.34639069437980652" y2="-13.503289222717285" style="stroke:rgb(255,0,0);stroke-width:0.125" />
  <line x1="-0.055182218551635742" y1="-13.726051330566406" x2="-0.34639069437980652" y2="-13.503289222717285" style="stroke:rgb(255,0,0);stroke-width:0.125" />
  <line x1="-0.091001987457275391" y1="-13.240226745605469" x2="-0.34639069437980652" y2="-13.503289222717285" style="stroke:rgb(255,0,0);stroke-width:0.125" />
  <line x1="-1.478502631187439" y1="-13.5914306640625" x2="-2.1887073516845703" y2="-13.647979736328125" style="stroke:rgb(255,0,0);stroke-width:0.125" />
  <line x1="-1.8892490863800049" y1="-13.874283790588379" x2="-2.1887073516845703" y2="-13.647979736328125" style="stroke:rgb(255,0,0);stroke-width:0.125" />
  <line x1="-1.9288337230682373" y1="-13.377140045166016" x2="-2.1887073516845703" y2="-13.647979736328125" style="stroke:rgb(255,0,0);stroke-width:0.125" />
  <line x1="-3.1130008697509766" y1="-13.732917785644531" x2="-3.7487120628356934" y2="-13.792718887329102" style="stroke:rgb(255,0,0);stroke-width:0.125" />
  <line x1="-3.4774501323699951" y1="-13.991668701171875" x2="-3.7487120628356934" y2="-13.792718887329102" style="stroke:rgb(255,0,0);stroke-width:0.125" />
  <line x1="-3.519310474395752" y1="-13.546670913696289" x2="-3.7487120628356934" y2="-13.792718887329102" style="stroke:rgb(255,0,0);stroke-width:0.125" />
  <line x1="-4.6036291122436523" y1="-13.872886657714844" x2="-5.1307539939880371" y2="-13.922338485717773" style="stroke:rgb(255,0,0);stroke-width:0.125" />
  <line x1="-4.9058732986450195" y1="-14.087358474731445" x2="-5.1307539939880371" y2="-13.922338485717773" style="stroke:rgb(255,0,0);stroke-width:0.125" />
  <line x1="-4.9404897689819336" y1="-13.718371391296387" x2="-5.1307539939880371" y2="-13.922338485717773" style="stroke:rgb(255,0,0);stroke-width:0.125" />
  <line x1="-5.8305349349975586" y1="-13.989166259765625" x2="-6.2607264518737793" y2="-14.030019760131836" style="stroke:rgb(255,0,0);stroke-width:0.125" />
  <line x1="-6.0770258903503418" y1="-14.164499282836914" x2="-6.2607264518737793" y2="-14.030019760131836" style="stroke:rgb(255,0,0);stroke-width:0.125" />
  <line x1="-6.1056232452392578" y1="-13.863365173339844" x2="-6.2607264518737793" y2="-14.030019760131836" style="stroke:rgb(255,0,0);stroke-width:0.125" />
  <line x1="-6.7415876388549805" y1="-14.129112243652344" x2="-7.0653419494628906" y2="-14.220959663391113" style="stroke:rgb(255,0,0);stroke-width:0.125" />
  <line x1="-6.9057064056396484" y1="-14.29810619354248" x2="-7.0653419494628906" y2="-14.220959663391113" style="stroke:rgb(255,0,0);stroke-width:0.125" />
  <line x1="-6.96999979019165" y1="-14.071477890014648" x2="-7.0653419494628906" y2="-14.220959663391113" style="stroke:rgb(255,0,0);stroke-width:0.125" />
  <line x1="-7.317939281463623" y1="-14.578582763671875" x2="-7.4558725357055664" y2="-14.823650360107422" style="stroke:rgb(255,0,0);stroke-width:0.125" />
  <line x1="-7.3157835006713867" y1="-14.775424003601074" x2="-7.4558725357055664" y2="-14.823650360107422" style="stroke:rgb(255,0,0);stroke-width:0.125" />
  <line x1="-7.4873309135437012" y1="-14.67887020111084" x2="-7.4558725357055664" y2="-14.823650360107422" style="stroke:rgb(255,0,0);stroke-width:0.125" />
  <line x1="-7.5409674644470215" y1="-15.3243408203125" x2="-7.6071062088012695" y2="-15.686132431030273" style="stroke:rgb(255,0,0);stroke-width:0.125" />
  <line x1="-7.454434871673584" y1="-15.566814422607422" x2="-7.6071062088012695" y2="-15.686132431030273" style="stroke:rgb(255,0,0);stroke-width:0.125" />
  <line x1="-7.70768928527832" y1="-15.520517349243164" x2="-7.6071062088012695" y2="-15.686132431030273" style="stroke:rgb(255,0,0);stroke-width:0.125" />
  <line x1="-7.6160969734191895" y1="-16.422492980957031" x2="-7.6323485374450684" y2="-16.892107009887695" style="stroke:rgb(255,0,0);stroke-width:0.125" />
  <line x1="-7.4615845680236816" y1="-16.712869644165039" x2="-7.6323485374450684" y2="-16.892107009887695" style="stroke:rgb(255,0,0);stroke-width:0.125" />
  <line x1="-7.790313720703125" y1="-16.701492309570313" x2="-7.6323485374450684" y2="-16.892107009887695" style="stroke:rgb(255,0,0);stroke-width:0.125" />
  <line x1="-7.6687464714050293" y1="-17.648017883300781" x2="-7.695225715637207" y2="-18.190776824951172" style="stroke:rgb(255,0,0);stroke-width:0.125" />
  <line x1="-7.4948329925537109" y1="-17.986316680908203" x2="-7.695225715637207" y2="-18.190776824951172" style="stroke:rgb(255,0,0);stroke-width:0.125" />
  <line x1="-7.8747644424438477" y1="-17.967781066894531" x2="-7.695225715637207" y2="-18.190776824951172" style="stroke:rgb(255,0,0);stroke-width:0.125" />
  <line x1="-7.7508602142333984" y1="-19.157180786132813" x2="-7.786736011505127" y2="-19.759029388427734" style="stroke:rgb(255,0,0);stroke-width:0.125" />
  <line x1="-7.5619621276855469" y1="-19.534587860107422" x2="-7.786736011505127" y2="-19.759029388427734" style="stroke:rgb(255,0,0);stroke-width:0.125" />
  <line x1="-7.9832553863525391" y1="-19.509475708007813" x2="-7.786736011505127" y2="-19.759029388427734" style="stroke:rgb(255,0,0);stroke-width:0.125" />
  <line x1="-7.8238224983215332" y1="-20.666618347167969" x2="-7.843841552734375" y2="-21.209239959716797" style="stroke:rgb(255,0,0);stroke-width:0.125" />
  <line x1="-7.6460404396057129" y1="-21.002573013305664" x2="-7.843841552734375" y2="-21.209239959716797" style="stroke:rgb(255,0,0);stroke-width:0.125" />
  <line x1="-8.02587604522705" y1="-20.988559722900391" x2="-7.843841552734375" y2="-21.209239959716797" style="stroke:rgb(255,0,0);stroke-width:0.125" />
  <line x1="-7.865379810333252" y1="-21.842277526855469" x2="-7.8768877983093262" y2="-22.296421051025391" style="stroke:rgb(255,0,0);stroke-width:0.125" />
  <line x1="-7.7134060859680176" y1="-22.121614456176758" x2="-7.8768877983093262" y2="-22.296421051025391" style="stroke:rgb(255,0,0);stroke-width:0.125" />
  <line x1="-8.031306266784668" y1="-22.113559722900391" x2="-7.8768877983093262" y2="-22.296421051025391" style="stroke:rgb(255,0,0);stroke-width:0.125" />
  <line x1="-7.7691683769226074" y1="-22.90972900390625" x2="-7.6676855087280273" y2="-23.267963409423828" style="stroke:rgb(255,0,0);stroke-width:0.125" />
  <line x1="-7.5822653770446777" y1="-23.091379165649414" x2="-7.6676855087280273" y2="-23.267963409423828" style="stroke:rgb(255,0,0);stroke-width:0.125" />
  <line x1="-7.8330297470092773" y1="-23.162416458129883" x2="-7.6676855087280273" y2="-23.267963409423828" style="stroke:rgb(255,0,0);stroke-width:0.125" />
  <line x1="-7.3129081726074219" y1="-23.548263549804688" x2="-7.0509662628173828" y2="-23.7343692779541" style="stroke:rgb(255,0,0);stroke-width:0.125" />
  <line x1="-7.0889773368835449" y1="-23.569404602050781" x2="-7.0509662628173828" y2="-23.7343692779541" style="stroke:rgb(255,0,0);stroke-width:0.125" />
  <line x1="-7.2192511558532715" y1="-23.752763748168945" x2="-7.0509662628173828" y2="-23.7343692779541" style="stroke:rgb(255,0,0);stroke-width:0.125" />
  <line x1="-6.4254841804504395" y1="-23.794662475585938" x2="-6.0210652351379395" y2="-23.8244571685791" style="stroke:rgb(255,0,0);stroke-width:0.125" />
  <line x1="-6.1698899269104" y1="-23.671178817749023" x2="-6.0210652351379395" y2="-23.8244571685791" style="stroke:rgb(255,0,0);stroke-width:0.125" />
  <line x1="-6.1907463073730469" y1="-23.95427131652832" x2="-6.0210652351379395" y2="-23.8244571685791" style="stroke:rgb(255,0,0);stroke-width:0.125" />
  <line x1="-5.3225646018981934" y1="-23.80804443359375" x2="-4.82220458984375" y2="-23.812078475952148" style="stroke:rgb(255,0,0);stroke-width:0.125" />
  <line x1="-5.0178251266479492" y1="-23.635364532470703" x2="-4.82220458984375" y2="-23.812078475952148" style="stroke:rgb(255,0,0);stroke-width:0.125" />
  <line x1="-5.0206494331359863" y1="-23.985616683959961" x2="-4.82220458984375" y2="-23.812078475952148" style="stroke:rgb(255,0,0);stroke-width:0.125" />
  <line x1="-3.9519703388214111" y1="-23.883758544921875" x2="-3.4290437698364258" y2="-23.943897247314453" style="stroke:rgb(255,0,0);stroke-width:0.125" />
  <line x1="-3.6139147281646729" y1="-23.737190246582031" x2="-3.4290437698364258" y2="-23.943897247314453" style="stroke:rgb(255,0,0);stroke-width:0.125" />
  <line x1="-3.6560111045837402" y1="-24.103239059448242" x2="-3.4290437698364258" y2="-23.943897247314453" style="stroke:rgb(255,0,0);stroke-width:0.125" />
  <line x1="-2.7126860618591309" y1="-24.0706787109375" x2="-2.2789838314056396" y2="-24.14006233215332" style="stroke:rgb(255,0,0);stroke-width:0.125" />
  <line x1="-2.4254837036132813" y1="-23.960945129394531" x2="-2.2789838314056396" y2="-24.14006233215332" style="stroke:rgb(255,0,0);stroke-width:0.125" />
  <line x1="-2.4740524291992188" y1="-24.264535903930664" x2="-2.2789838314056396" y2="-24.14006233215332" style="stroke:rgb(255,0,0);stroke-width:0.125" />
  <line x1="-1.7654439210891724" y1="-24.222213745117188" x2="-1.4018261432647705" y2="-24.280385971069336" style="stroke:rgb(255,0,0);stroke-width:0.125" />
  <line x1="-1.5246522426605225" y1="-24.130212783813477" x2="-1.4018261432647705" y2="-24.280385971069336" style="stroke:rgb(255,0,0);stroke-width:0.125" />
  <line x1="-1.5653724670410156" y1="-24.384744644165039" x2="-1.4018261432647705" y2="-24.280385971069336" style="stroke:rgb(255,0,0);stroke-width:0.125" />
  <line x1="-0.94270211458206177" y1="-24.389801025390625" x2="-0.683805525302887" y2="-24.477861404418945" style="stroke:rgb(255,0,0);stroke-width:0.125" />
  <line x1="-0.75493347644805908" y1="-24.352571487426758" x2="-0.683805525302887" y2="-24.477861404418945" style="stroke:rgb(255,0,0);stroke-width:0.125" />
  <line x1="-0.81657534837722778" y1="-24.533798217773438" x2="-0.683805525302887" y2="-24.477861404418945" style="stroke:rgb(255,0,0);stroke-width:0.125" />
  <line x1="-0.51971840858459473" y1="-24.754035949707031" x2="-0.4007713794708252" y2="-24.967184066772461" style="stroke:rgb(255,0,0);stroke-width:0.125" />
  <line x1="-0.37300854921340942" y1="-24.841619491577148" x2="-0.4007713794708252" y2="-24.967184066772461" style="stroke:rgb(255,0,0);stroke-width:0.125" />
  <line x1="-0.5222126841545105" y1="-24.924882888793945" x2="-0.4007713794708252" y2="-24.967184066772461" style="stroke:rgb(255,0,0);stroke-width:0.125" />
  <line x1="-0.27373367547988892" y1="-25.491180419921875" x2="-0.18910279870033264" y2="-25.832015991210938" style="stroke:rgb(255,0,0);stroke-width:0.125" />
  <line x1="-0.10313645005226135" y1="-25.668180465698242" x2="-0.18910279870033264" y2="-25.832015991210938" style="stroke:rgb(255,0,0);stroke-width:0.125" />
  <line x1="-0.34172141551971436" y1="-25.7274227142334" x2="-0.18910279870033264" y2="-25.832015991210938" style="stroke:rgb(255,0,0);stroke-width:0.125" />
  <line x1="-0.074886947870254517" y1="-26.532615661621094" x2="-0.0049580037593841553" y2="-26.981147766113281" style="stroke:rgb(255,0,0);stroke-width:0.125" />
  <line x1="0.12449167668819427" y1="-26.780048370361328" x2="-0.0049580037593841553" y2="-26.981147766113281" style="stroke:rgb(255,0,0);stroke-width:0.125" />
  <line x1="-0.1894812285900116" y1="-26.828998565673828" x2="-0.0049580037593841553" y2="-26.981147766113281" style="stroke:rgb(255,0,0);stroke-width:0.125" />
  <line x1="0.054660625755786896" y1="-27.711944580078125" x2="0.09166930615901947" y2="-28.237724304199219" style="stroke:rgb(255,0,0);stroke-width:0.125" />
  <line x1="0.26111891865730286" y1="-28.017728805541992" x2="0.09166930615901947" y2="-28.237724304199219" style="stroke:rgb(255,0,0);stroke-width:0.125" />
  <line x1="-0.10692701488733292" y1="-28.043634414672852" x2="0.09166930615901947" y2="-28.237724304199219" style="stroke:rgb(255,0,0);stroke-width:0.125" />
</svg>