<?xml version="1.0" encoding="utf-8"?>
<svg version="1.0" width="270pt" height="360pt" viewBox="-20 -64 40 64" preserveAspectRatio="xMidYMid meet" xmlns="http://www.w3.org/2000/svg">
  <line x1="-0.5" y1="0" x2="-0.5" y2="-0.5" style="stroke:rgb(0,0,0);stroke-width:0.125" />
  <line x1="-0.5" y1="-0.5" x2="-12" y2="-0.5" style="stroke:rgb(0,0,0);stroke-width:0.125" />
  <line x1="-12" y1="-0.5" x2="-12" y2="-31.5" style="stroke:rgb(0,0,0);stroke-width:0.125" />
  <line x1="-12" y1="-31.5" x2="-0.5" y2="-31.5" style="stroke:rgb(0,0,0);stroke-width:0.125" />
  <line x1="-0.5" y1="-31.5" x2="-0.5" y2="-32" style="stroke:rgb(0,0,0);stroke-width:0.125" />
  <line x1="0.5" y1="0" x2="0.5" y2="-0.5" style="stroke:rgb(0,0,0);stroke-width:0.125" />
  <line x1="0.5" y1="-0.5" x2="12" y2="-0.5" style="stroke:rgb(0,0,0);stroke-width:0.125" />
  <line x1="12" y1="-0.5" x2="12" y2="-31.5" style="stroke:rgb(0,0,0);stroke-width:0.125" />
  <line x1="12" y1="-31.5" x2="0.5" y2="-31.5" style="stroke:rgb(0,0,0);stroke-width:0.125" />
  <line x1="0.5" y1="-31.5" x2="0.5" y2="-32" style="stroke:rgb(0,0,0);stroke-width:0.125" />
  <line x1="0" y1="-4" x2="0" y2="-6" style="stroke:rgb(0,0,255);stroke-width:0.125" />
  <line x1="0" y1="-6" x2="8" y2="-6" style="stroke:rgb(0,0,255);stroke-width:0.125" />
  <line x1="8" y1="-6" x2="8" y2="-14" style="stroke:rgb(0,0,255);stroke-width:0.125" />
  <line x1="8" y1="-14" x2="-8" y2="-14" style="stroke:rgb(0,0,255);stroke-width:0.125" />
  <line x1="-8" y1="-14" x2="-8" y2="-24" style="stroke:rgb(0,0,255);stroke-width:0.125" />
  <line x1="-8" y1="-24" x2="0" y2="-24" style="stroke:rgb(0,0,255);stroke-width:0.125" />
  <line x1="0" y1="-24" x2="0" y2="-30" style="stroke:rgb(0,0,255);stroke-width:0.125" />
  <line x1="-0.29498735070228577" y1="-2.1997051239013672" x2="-0.29018053412437439" y2="-2.6628456115722656" style="stroke:rgb(255,0,0);stroke-width:0.125" />
  <line x1="-0.12997423112392426" y1="-2.4787867069244385" x2="-0.29018053412437439" y2="-2.6628456115722656" style="stroke:rgb(255,0,0);stroke-width:0.125" />
  <line x1="-0.45417249202728271" y1="-2.4821515083312988" x2="-0.29018053412437439" y2="-2.6628456115722656" style="stroke:rgb(255,0,0);stroke-width:0.125" />
  <line x1="-0.25914299488067627" y1="-3.2191295623779297" x2="-0.22157488763332367" y2="-3.6177065372467041" style="stroke:rgb(255,0,0);stroke-width:0.125" />
  <line x1="-0.096866562962532043" y1="-3.4476051330566406" x2="-0.22157488763332367" y2="-3.6177065372467041" style="stroke:rgb(255,0,0);stroke-width:0.125" />
  <line x1="-0.37587049603462219" y1="-3.4739029407501221" x2="-0.22157488763332367" y2="-3.6177065372467041" style="stroke:rgb(255,0,0);stroke-width:0.125" />
  <line x1="0.010430619120597839" y1="-4.2325820922851563" x2="0.17962081730365753" y2="-4.6163778305053711" style="stroke:rgb(255,0,0);stroke-width:0.125" />
  <line x1="0.24732528626918793" y1="-4.406029224395752" x2="0.17962081730365753" y2="-4.6163778305053711" style="stroke:rgb(255,0,0);stroke-width:0.125" />
  <line x1="-0.021331846714019775" y1="-4.5244626998901367" x2="0.17962081730365753" y2="-4.6163778305053711" style="stroke:rgb(255,0,0);stroke-width:0.125" />
  <line x1="0.59171551465988159" y1="-5.0635299682617188" x2="0.89710712432861328" y2="-5.3575410842895508" style="stroke:rgb(255,0,0);stroke-width:0.125" />
  <line x1="0.87975317239761353" y1="-5.1348776817321777" x2="0.89710712432861328" y2="-5.3575410842895508" style="stroke:rgb(255,0,0);stroke-width:0.125" />
  <line x1="0.67394554615020752" y1="-5.3486518859863281" x2="0.89710712432861328" y2="-5.3575410842895508" style="stroke:rgb(255,0,0);stroke-width:0.125" />
  <line x1="1.5727579593658447" y1="-5.5862979888916016" x2="2.0108375549316406" y2="-5.7045097351074219" style="stroke:rgb(255,0,0);stroke-width:0.125" />
  <line x1="1.8797037601470947" y1="-5.5046324729919434" x2="2.0108375549316406" y2="-5.7045097351074219" style="stroke:rgb(255,0,0);stroke-width:0.125" />
  <line x1="1.7969553470611572" y1="-5.8112878799438477" x2="2.0108375549316406" y2="-5.7045097351074219" style="stroke:rgb(255,0,0);stroke-width:0.125" />
  <line x1="2.8801615238189697" y1="-5.6709156036376953" x2="3.4359550476074219" y2="-5.64229679107666" style="stroke:rgb(255,0,0);stroke-width:0.125" />
  <line x1="3.2070770263671875" y1="-5.4590387344360352" x2="3.4359550476074219" y2="-5.64229679107666" style="stroke:rgb(255,0,0);stroke-width:0.125" />
  <line x1="3.2271101474761963" y1="-5.8480939865112305" x2="3.4359550476074219" y2="-5.64229679107666" style="stroke:rgb(255,0,0);stroke-width:0.125" />
  <line x1="4.2518901824951172" y1="-5.71673583984375" x2="4.8116822242736816" y2="-5.8042545318603516" style="stroke:rgb(255,0,0);stroke-width:0.125" />
  <line x1="4.6218776702880859" y1="-5.5738639831542969" x2="4.8116822242736816" y2="-5.8042545318603516" style="stroke:rgb(255,0,0);stroke-width:0.125" />
  <line x1="4.5606145858764648" y1="-5.9657182693481445" x2="4.8116822242736816" y2="-5.8042545318603516" style="stroke:rgb(255,0,0);stroke-width:0.125" />
  <line x1="5.5680904388427734" y1="-6.1974143981933594" x2="6.0270037651062012" y2="-6.4364242553710938" style="stroke:rgb(255,0,0);stroke-width:0.125" />
  <line x1="5.92994499206543" y1="-6.1816868782043457" x2="6.0270037651062012" y2="-6.4364242553710938" style="stroke:rgb(255,0,0);stroke-width:0.125" />
  <line x1="5.7626385688781738" y1="-6.5029258728027344" x2="6.0270037651062012" y2="-6.4364242553710938" style="stroke:rgb(255,0,0);stroke-width:0.125" />
  <line x1="6.4761309623718262" y1="-6.7954349517822266" x2="6.7701201438903809" y2="-7.0537657737731934" style="stroke:rgb(255,0,0);stroke-width:0.125" />
  <line x1="6.7447681427001953" y1="-6.8491435050964355" x2="6.7701201438903809" y2="-7.0537657737731934" style="stroke:rgb(255,0,0);stroke-width:0.125" />
  <line x1="6.563936710357666" y1="-7.0549359321594238" x2="6.7701201438903809" y2="-7.0537657737731934" style="stroke:rgb(255,0,0);stroke-width:0.125" />
  <line x1="6.9551420211791992" y1="-7.6044292449951172" x2="7.0669384002685547" y2="-7.9713544845581055" style="stroke:rgb(255,0,0);stroke-width:0.125" />
  <line x1="7.1513385772705078" y1="-7.7877368927001953" x2="7.0669384002685547" y2="-7.9713544845581055" style="stroke:rgb(255,0,0);stroke-width:0.125" />
  <line x1="6.8944911956787109" y1="-7.8659944534301758" x2="7.0669384002685547" y2="-7.9713544845581055" style="stroke:rgb(255,0,0);stroke-width:0.125" />
  <line x1="7.1786708831787109" y1="-8.6181106567382813" x2="7.2672905921936035" y2="-9.0830469131469727" style="stroke:rgb(255,0,0);stroke-width:0.125" />
  <line x1="7.3951210975646973" y1="-8.8689460754394531" x2="7.2672905921936035" y2="-9.0830469131469727" style="stroke:rgb(255,0,0);stroke-width:0.125" />
  <line x1="7.0696663856506348" y1="-8.93097972869873" x2="7.2672905921936035" y2="-9.0830469131469727" style="stroke:rgb(255,0,0);stroke-width:0.125" />
  <line x1="7.3745088577270508" y1="-9.9207344055175781" x2="7.4394569396972656" y2="-10.436418533325195" style="stroke:rgb(255,0,0);stroke-width:0.125" />
  <line x1="7.5943708419799805" y1="-10.210619926452637" x2="7.4394569396972656" y2="-10.436418533325195" style="stroke:rgb(255,0,0);stroke-width:0.125" />
  <line x1="7.2333922386169434" y1="-10.256083488464355" x2="7.4394569396972656" y2="-10.436418533325195" style="stroke:rgb(255,0,0);stroke-width:0.125" />
  <line x1="7.5003862380981445" y1="-11.091159820556641" x2="7.5460619926452637" y2="-11.538739204406738" style="stroke:rgb(255,0,0);stroke-width:0.125" />
  <line x1="7.6847286224365234" y1="-11.346504211425781" x2="7.5460619926452637" y2="-11.538739204406738" style="stroke:rgb(255,0,0);stroke-width:0.125" />
  <line x1="7.37142276763916" y1="-11.378477096557617" x2="7.5460619926452637" y2="-11.538739204406738" style="stroke:rgb(255,0,0);stroke-width:0.125" />
  <line x1="7.6086483001708984" y1="-12.145839691162109" x2="7.6465020179748535" y2="-12.516772270202637" style="stroke:rgb(255,0,0);stroke-width:0.125" />
  <line x1="7.7614221572875977" y1="-12.357457160949707" x2="7.6465020179748535" y2="-12.516772270202637" style="stroke:rgb(255,0,0);stroke-width:0.125" />
  <line x1="7.5017695426940918" y1="-12.383954048156738" x2="7.6465020179748535" y2="-12.516772270202637" style="stroke:rgb(255,0,0);stroke-width:0.125" />
  <line x1="7.6168279647827148" y1="-13.010673522949219" x2="7.5694069862365723" y2="-13.29879093170166" style="stroke:rgb(255,0,0);stroke-width:0.125" />
  <line x1="7.6889214515686035" y1="-13.201932907104492" x2="7.5694069862365723" y2="-13.29879093170166" style="stroke:rgb(255,0,0);stroke-width:0.125" />
  <line x1="7.4872393608093262" y1="-13.16873836517334" x2="7.5694069862365723" y2="-13.29879093170166" style="stroke:rgb(255,0,0);stroke-width:0.125" />
  <line x1="7.302365779876709" y1="-13.520687103271484" x2="7.1020231246948242" y2="-13.66972541809082" style="stroke:rgb(255,0,0);stroke-width:0.125" />
  <line x1="7.2330775260925293" y1="-13.681157112121582" x2="7.1020231246948242" y2="-13.66972541809082" style="stroke:rgb(255,0,0);stroke-width:0.125" />
  <line x1="7.1287508010864258" y1="-13.540916442871094" x2="7.1020231246948242" y2="-13.66972541809082" style="stroke:rgb(255,0,0);stroke-width:0.125" />
  <line x1="6.5850176811218262" y1="-13.761280059814453" x2="6.246708869934082" y2="-13.792685508728027" style="stroke:rgb(255,0,0);stroke-width:0.125" />
  <line x1="6.3909206390380859" y1="-13.898726463317871" x2="6.246708869934082" y2="-13.792685508728027" style="stroke:rgb(255,0,0);stroke-width:0.125" />
  <line x1="6.3689370155334473" y1="-13.661910057067871" x2="6.246708869934082" y2="-13.792685508728027" style="stroke:rgb(255,0,0);stroke-width:0.125" />
  <line x1="5.5321412086486816" y1="-13.635841369628906" x2="5.0749287605285645" y2="-13.539128303527832" style="stroke:rgb(255,0,0);stroke-width:0.125" />
  <line x1="5.2211213111877441" y1="-13.737236022949219" x2="5.0749287605285645" y2="-13.539128303527832" style="stroke:rgb(255,0,0);stroke-width:0.125" />
  <line x1="5.288820743560791" y1="-13.417187690734863" x2="5.0749287605285645" y2="-13.539128303527832" style="stroke:rgb(255,0,0);stroke-width:0.125" />
  <line x1="4.3305892944335938" y1="-13.434158325195313" x2="3.7990927696228027" y2="-13.386157035827637" style="stroke:rgb(255,0,0);stroke-width:0.125" />
  <line x1="3.9915859699249268" y1="-13.591082572937012" x2="3.7990927696228027" y2="-13.386157035827637" style="stroke:rgb(255,0,0);stroke-width:0.125" />
  <line x1="4.0251874923706055" y1="-13.219035148620605" x2="3.7990927696228027" y2="-13.386157035827637" style="stroke:rgb(255,0,0);stroke-width:0.125" />
  <line x1="2.8586199283599854" y1="-13.530719757080078" x2="2.2657461166381836" y2="-13.64564323425293" style="stroke:rgb(255,0,0);stroke-width:0.125" />
  <line x1="2.5394325256347656" y1="-13.807894706726074" x2="2.2657461166381836" y2="-13.64564323425293" style="stroke:rgb(255,0,0);stroke-width:0.125" />
  <line x1="2.4589858055114746" y1="-13.392882347106934" x2="2.2657461166381836" y2="-13.64564323425293" style="stroke:rgb(255,0,0);stroke-width:0.125" />
  <line x1="1.367580771446228" y1="-13.882270812988281" x2="0.72145408391952515" y2="-14.02833080291748" style="stroke:rgb(255,0,0);stroke-width:0.125" />
  <line x1="1.0270084142684937" y1="-14.196959495544434" x2="0.72145408391952515" y2="-14.02833080291748" style="stroke:rgb(255,0,0);stroke-width:0.125" />
  <line x1="0.9247661828994751" y1="-13.744670867919922" x2="0.72145408391952515" y2="-14.02833080291748" style="stroke:rgb(255,0,0);stroke-width:0.125" />
  <line x1="-0.39525938034057617" y1="-14.117176055908203" x2="-1.0995689630508423" y2="-14.146755218505859" style="stroke:rgb(255,0,0);stroke-width:0.125" />
  <line x1="-0.81187176704406738" y1="-14.38161563873291" x2="-1.0995689630508423" y2="-14.146755218505859" style="stroke:rgb(255,0,0);stroke-width:0.125" />
  <line x1="-0.83257699012756348" y1="-13.888599395751953" x2="-1.0995689630508423" y2="-14.146755218505859" style="stroke:rgb(255,0,0);stroke-width:0.125" />
  <line x1="-2.1261823177337646" y1="-14.048347473144531" x2="-2.8494453430175781" y2="-14.000301361083984" style="stroke:rgb(255,0,0);stroke-width:0.125" />
  <line x1="-2.5814533233642578" y1="-14.272363662719727" x2="-2.8494453430175781" y2="-14.000301361083984" style="stroke:rgb(255,0,0);stroke-width:0.125" />
  <line x1="-2.5478212833404541" y1="-13.766078948974609" x2="-2.8494453430175781" y2="-14.000301361083984" style="stroke:rgb(255,0,0);stroke-width:0.125" />
  <line x1="-3.897697925567627" y1="-13.957122802734375" x2="-4.53791618347168" y2="-13.93535041809082" style="stroke:rgb(255,0,0);stroke-width:0.125" />
  <line x1="-4.2934298515319824" y1="-14.168000221252441" x2="-4.53791618347168" y2="-13.93535041809082" style="stroke:rgb(255,0,0);stroke-width:0.125" />
  <line x1="-4.2781891822814941" y1="-13.719847679138184" x2="-4.53791618347168" y2="-13.93535041809082" style="stroke:rgb(255,0,0);stroke-width:0.125" />
  <line x1="-5.3087935447692871" y1="-13.957298278808594" x2="-5.7567362785339355" y2="-13.98353385925293" style="stroke:rgb(255,0,0);stroke-width:0.125" />
  <line x1="-5.571162223815918" y1="-14.129982948303223" x2="-5.7567362785339355" y2="-13.98353385925293" style="stroke:rgb(255,0,0);stroke-width:0.125" />
  <line x1="-5.5895266532897949" y1="-13.816422462463379" x2="-5.7567362785339355" y2="-13.98353385925293" style="stroke:rgb(255,0,0);stroke-width:0.125" />
  <line x1="-6.0994954109191895" y1="-14.095199584960938" x2="-6.3309769630432129" y2="-14.170869827270508" style="stroke:rgb(255,0,0);stroke-width:0.125" />
  <line x1="-6.2133388519287109" y1="-14.222090721130371" x2="-6.3309769630432129" y2="-14.170869827270508" style="stroke:rgb(255,0,0);stroke-width:0.125" />
  <line x1="-6.2663083076477051" y1="-14.060053825378418" x2="-6.3309769630432129" y2="-14.170869827270508" style="stroke:rgb(255,0,0);stroke-width:0.125" />
  <line x1="-6.4336056709289551" y1="-14.408988952636719" x2="-6.4943270683288574" y2="-14.584770202636719" style="stroke:rgb(255,0,0);stroke-width:0.125" />
  <line x1="-6.4088926315307617" y1="-14.536803245544434" x2="-6.4943270683288574" y2="-14.584770202636719" style="stroke:rgb(255,0,0);stroke-width:0.125" />
  <line x1="-6.5319395065307617" y1="-14.494297981262207" x2="-6.4943270683288574" y2="-14.584770202636719" style="stroke:rgb(255,0,0);stroke-width:0.125" />
  <line x1="-6.5603623390197754" y1="-15.066905975341797" x2="-6.6305484771728516" y2="-15.377435684204102" style="stroke:rgb(255,0,0);stroke-width:0.125" />
  <line x1="-6.494225025177002" y1="-15.279720306396484" x2="-6.6305484771728516" y2="-15.377435684204102" style="stroke:rgb(255,0,0);stroke-width:0.125" />
  <line x1="-6.7115960121154785" y1="-15.230589866638184" x2="-6.6305484771728516" y2="-15.377435684204102" style="stroke:rgb(255,0,0);stroke-width:0.125" />
  <line x1="-6.83010721206665" y1="-15.928577423095703" x2="-6.9789447784423828" y2="-16.318527221679688" style="stroke:rgb(255,0,0);stroke-width:0.125" />
  <line x1="-6.7838530540466309" y1="-16.217063903808594" x2="-6.9789447784423828" y2="-16.318527221679688" style="stroke:rgb(255,0,0);stroke-width:0.125" />
  <line x1="-7.0568170547485352" y1="-16.112878799438477" x2="-6.9789447784423828" y2="-16.318527221679688" style="stroke:rgb(255,0,0);stroke-width:0.125" />
  <line x1="-7.3756685256958008" y1="-17.063014984130859" x2="-7.6122908592224121" y2="-17.541191101074219" style="stroke:rgb(255,0,0);stroke-width:0.125" />
  <line x1="-7.3517518043518066" y1="-17.435710906982422" x2="-7.6122908592224121" y2="-17.541191101074219" style="stroke:rgb(255,0,0);stroke-width:0.125" />
  <line x1="-7.6864748001098633" y1="-17.270074844360352" x2="-7.6122908592224121" y2="-17.541191101074219" style="stroke:rgb(255,0,0);stroke-width:0.125" />
  <line x1="-7.8889169692993164" y1="-18.306388854980469" x2="-8.07680892944336" y2="-18.858097076416016" style="stroke:rgb(255,0,0);stroke-width:0.125" />
  <line x1="-7.8097219467163086" y1="-18.706605911254883" x2="-8.07680892944336" y2="-18.858097076416016" style="stroke:rgb(255,0,0);stroke-width:0.125" />
  <line x1="-8.195918083190918" y1="-18.575082778930664" x2="-8.07680892944336" y2="-18.858097076416016" style="stroke:rgb(255,0,0);stroke-width:0.125" />
  <line x1="-8.23175048828125" y1="-19.829715728759766" x2="-8.3147268295288086" y2="-20.437776565551758" style="stroke:rgb(255,0,0);stroke-width:0.125" />
  <line x1="-8.0692310333251953" y1="-20.227375030517578" x2="-8.3147268295288086" y2="-20.437776565551758" style="stroke:rgb(255,0,0);stroke-width:0.125" />
  <line x1="-8.4948740005493164" y1="-20.169290542602539" x2="-8.3147268295288086" y2="-20.437776565551758" style="stroke:rgb(255,0,0);stroke-width:0.125" />
  <line x1="-8.26392650604248" y1="-21.432765960693359" x2="-8.1918344497680664" y2="-22.035293579101563" style="stroke:rgb(255,0,0);stroke-width:0.125" />
  <line x1="-8.00933837890625" y1="-21.772796630859375" x2="-8.1918344497680664" y2="-22.035293579101563" style="stroke:rgb(255,0,0);stroke-width:0.125" />
  <line x1="-8.4311075210571289" y1="-21.823261260986328" x2="-8.1918344497680664" y2="-22.035293579101563" style="stroke:rgb(255,0,0);stroke-width:0.125" />
  <line x1="-7.9404458999633789" y1="-22.749362945556641" x2="-7.736732006072998" y2="-23.230165481567383" style="stroke:rgb(255,0,0);stroke-width:0.125" />
  <line x1="-7.6486701965332031" y1="-22.969533920288086" x2="-7.736732006072998" y2="-23.230165481567383" style="stroke:rgb(255,0,0);stroke-width:0.125" />
  <line x1="-7.9852313995361328" y1="-23.112133026123047" x2="-7.736732006072998" y2="-23.230165481567383" style="stroke:rgb(255,0,0);stroke-width:0.125" />
  <line x1="-7.18658447265625" y1="-23.684864044189453" x2="-6.8292922973632813" y2="-23.946226119995117" style="stroke:rgb(255,0,0);stroke-width:0.125" />
  <line x1="-6.8785104751586914" y1="-23.718254089355469" x2="-6.8292922973632813" y2="-23.946226119995117" style="stroke:rgb(255,0,0);stroke-width:0.125" />
  <line x1="-7.0614643096923828" y1="-23.968358993530273" x2="-6.8292922973632813" y2="-23.946226119995117" style="stroke:rgb(255,0,0);stroke-width:0.125" />
  <line x1="-6.1744494438171387" y1="-24.080497741699219" x2="-5.7004914283752441" y2="-24.170005798339844" style="stroke:rgb(255,0,0);stroke-width:0.125" />
  <line x1="-5.8558001518249512" y1="-23.968873977661133" x2="-5.7004914283752441" y2="-24.170005798339844" style="stroke:rgb(255,0,0);stroke-width:0.125" />
  <line x1="-5.9184551239013672" y1="-24.300643920898438" x2="-5.7004914283752441" y2="-24.170005798339844" style="stroke:rgb(255,0,0);stroke-width:0.125" />
  <line x1="-4.791529655456543" y1="-24.115478515625" x2="-4.2140965461730957" y2="-24.08238410949707" style="stroke:rgb(255,0,0);stroke-width:0.125" />
  <line x1="-4.4530625343322754" y1="-23.893314361572266" x2="-4.2140965461730957" y2="-24.08238410949707" style="stroke:rgb(255,0,0);stroke-width:0.125" />
  <line x1="-4.429896354675293" y1="-24.297517776489258" x2="-4.2140965461730957" y2="-24.08238410949707" style="stroke:rgb(255,0,0);stroke-width:0.125" />
  <line x1="-3.2915399074554443" y1="-24.065570831298828" x2="-2.7395553588867188" y2="-24.067277908325195" style="stroke:rgb(255,0,0);stroke-width:0.125" />
  <line x1="-2.9563195705413818" y1="-23.873411178588867" x2="-2.7395553588867188" y2="-24.067277908325195" style="stroke:rgb(255,0,0);stroke-width:0.125" />
  <line x1="-2.9575145244598389" y1="-24.259799957275391" x2="-2.7395553588867188" y2="-24.067277908325195" style="stroke:rgb(255,0,0);stroke-width:0.125" />
  <line x1="-2.0969853401184082" y1="-24.074794769287109" x2="-1.6387510299682617" y2="-24.078731536865234" style="stroke:rgb(255,0,0);stroke-width:0.125" />
  <line x1="-1.8178179264068604" y1="-23.916799545288086" x2="-1.6387510299682617" y2="-24.078731536865234" style="stroke:rgb(255,0,0);stroke-width:0.125" />
  <line x1="-1.8205732107162476" y1="-24.23756217956543" x2="-1.6387510299682617" y2="-24.078731536865234" style="stroke:rgb(255,0,0);stroke-width:0.125" />
  <line x1="-1.0432726144790649" y1="-24.114444732666016" x2="-0.69888615608215332" y2="-24.156782150268555" style="stroke:rgb(255,0,0);stroke-width:0.125" />
  <line x1="-0.81968146562576294" y1="-24.019575119018555" x2="-0.69888615608215332" y2="-24.156782150268555" style="stroke:rgb(255,0,0);stroke-width:0.125" />
  <line x1="-0.84931743144989014" y1="-24.260644912719727" x2="-0.69888615608215332" y2="-24.156782150268555" style="stroke:rgb(255,0,0);stroke-width:0.125" />
  <line x1="-0.47845086455345154" y1="-24.353935241699219" x2="-0.34249615669250488" y2="-24.508705139160156" style="stroke:rgb(255,0,0);stroke-width:0.125" />
  <line x1="-0.34186303615570068" y1="-24.400175094604492" x2="-0.34249615669250488" y2="-24.508705139160156" style="stroke:rgb(255,0,0);stroke-width:0.125" />
  <line x1="-0.45020237565040588" y1="-24.495344161987305" x2="-0.34249615669250488" y2="-24.508705139160156" style="stroke:rgb(255,0,0);stroke-width:0.125" />
  <line x1="-0.36057993769645691" y1="-24.935001373291016" x2="-0.36621773242950439" y2="-25.215414047241211" style="stroke:rgb(255,0,0);stroke-width:0.125" />
  <line x1="-0.2658534049987793" y1="-25.106966018676758" x2="-0.36621773242950439" y2="-25.215414047241211" style="stroke:rgb(255,0,0);stroke-width:0.125" />
  <line x1="-0.46214193105697632" y1="-25.103019714355469" x2="-0.36621773242950439" y2="-25.215414047241211" style="stroke:rgb(255,0,0);stroke-width:0.125" />
  <line x1="-0.40619826316833496" y1="-25.827297210693359" x2="-0.42316657304763794" y2="-26.223167419433594" style="stroke:rgb(255,0,0);stroke-width:0.125" />
  <line x1="-0.2779298722743988" y1="-26.073219299316406" x2="-0.42316657304763794" y2="-26.223167419433594" style="stroke:rgb(255,0,0);stroke-width:0.125" />
  <line x1="-0.555039644241333" y1="-26.061342239379883" x2="-0.42316657304763794" y2="-26.223167419433594" style="stroke:rgb(255,0,0);stroke-width:0.125" />
  <line x1="-0.42407965660095215" y1="-26.898445129394531" x2="-0.41560542583465576" y2="-27.383998870849609" style="stroke:rgb(255,0,0);stroke-width:0.125" />
  <line x1="-0.24899880588054657" y1="-27.189830780029297" x2="-0.41560542583465576" y2="-27.383998870849609" style="stroke:rgb(255,0,0);stroke-width:0.125" />
  <line x1="-0.5888860821723938" y1="-27.195762634277344" x2="-0.41560542583465576" y2="-27.383998870849609" style="stroke:rgb(255,0,0);stroke-width:0.125" />
</svg>