<?xml version="1.0" encoding="utf-8"?>
<svg version="1.0" width="600pt" height="800pt" viewBox="-20 0 40 64" preserveAspectRatio="xMidYMid meet" xmlns="http://www.w3.org/2000/svg">
  <line x1="-0.5" y1="0" x2="-0.5" y2="0.5" style="stroke:rgb(0,0,0);stroke-width:0.125" />
  <line x1="-0.5" y1="0.5" x2="-12" y2="0.5" style="stroke:rgb(0,0,0);stroke-width:0.125" />
  <line x1="-12" y1="0.5" x2="-12" y2="31.5" style="stroke:rgb(0,0,0);stroke-width:0.125" />
  <line x1="-12" y1="31.5" x2="-0.5" y2="31.5" style="stroke:rgb(0,0,0);stroke-width:0.125" />
  <line x1="-0.5" y1="31.5" x2="-0.5" y2="32" style="stroke:rgb(0,0,0);stroke-width:0.125" />
  <line x1="0.5" y1="0" x2="0.5" y2="0.5" style="stroke:rgb(0,0,0);stroke-width:0.125" />
  <line x1="0.5" y1="0.5" x2="12" y2="0.5" style="stroke:rgb(0,0,0);stroke-width:0.125" />
  <line x1="12" y1="0.5" x2="12" y2="31.5" style="stroke:rgb(0,0,0);stroke-width:0.125" />
  <line x1="12" y1="31.5" x2="0.5" y2="31.5" style="stroke:rgb(0,0,0);stroke-width:0.125" />
  <line x1="0.5" y1="31.5" x2="0.5" y2="32" style="stroke:rgb(0,0,0);stroke-width:0.125" />
  <line x1="0" y1="4" x2="0" y2="6" style="stroke:rgb(0,0,255);stroke-width:0.125" />
  <line x1="0" y1="6" x2="8" y2="6" style="stroke:rgb(0,0,255);stroke-width:0.125" />
  <line x1="8" y1="6" x2="8" y2="14" style="stroke:rgb(0,0,255);stroke-width:0.125" />
  <line x1="8" y1="14" x2="-8" y2="14" style="stroke:rgb(0,0,255);stroke-width:0.125" />
  <line x1="-8" y1="14" x2="-8" y2="24" style="stroke:rgb(0,0,255);stroke-width:0.125" />
  <line x1="-8" y1="24" x2="0" y2="24" style="stroke:rgb(0,0,255);stroke-width:0.125" />
  <line x1="0" y1="24" x2="0" y2="30" style="stroke:rgb(0,0,255);stroke-width:0.125" />
  <line x1="4.6862789204737965E-09" y1="2.1583938598632813" x2="7.3742509876240092E-09" y2="2.8498086929321289" style="stroke:rgb(0,0,0);stroke-width:0.125" />
  <line x1="7.1054540029535929E-09" y1="2.7806670665740967" x2="7.3742509876240092E-09" y2="2.8498086929321289" style="stroke:rgb(0,0,0);stroke-width:0.125" />
  <line x1="7.1054540029535929E-09" y1="2.7806670665740967" x2="7.3742509876240092E-09" y2="2.8498086929321289" style="stroke:rgb(0,0,0);stroke-width:0.125" />
  <line x1="2.9140265311866642E-08" y1="3.6731319427490234" x2="4.1005694839668649E-08" y2="4.2554206848144531" style="stroke:rgb(0,0,0);stroke-width:0.125" />
  <line x1="3.98191524197955E-08" y1="4.1971917152404785" x2="4.1005694839668649E-08" y2="4.2554206848144531" style="stroke:rgb(0,0,0);stroke-width:0.125" />
  <line x1="3.98191524197955E-08" y1="4.1971917152404785" x2="4.1005694839668649E-08" y2="4.2554206848144531" style="stroke:rgb(0,0,0);stroke-width:0.125" />
</svg>