<?xml version="1.0" encoding="utf-8"?>
<svg version="1.0" width="450pt" height="720pt" viewBox="-20 -64 40 64" preserveAspectRatio="xMidYMid meet" xmlns="http://www.w3.org/2000/svg">
  <line x1="-0.5" y1="0" x2="-0.5" y2="-0.5" style="stroke:rgb(0,0,0);stroke-width:0.125" />
  <line x1="-0.5" y1="-0.5" x2="-12" y2="-0.5" style="stroke:rgb(0,0,0);stroke-width:0.125" />
  <line x1="-12" y1="-0.5" x2="-12" y2="-31.5" style="stroke:rgb(0,0,0);stroke-width:0.125" />
  <line x1="-12" y1="-31.5" x2="-0.5" y2="-31.5" style="stroke:rgb(0,0,0);stroke-width:0.125" />
  <line x1="-0.5" y1="-31.5" x2="-0.5" y2="-32" style="stroke:rgb(0,0,0);stroke-width:0.125" />
  <line x1="0.5" y1="0" x2="0.5" y2="-0.5" style="stroke:rgb(0,0,0);stroke-width:0.125" />
  <line x1="0.5" y1="-0.5" x2="12" y2="-0.5" style="stroke:rgb(0,0,0);stroke-width:0.125" />
  <line x1="12" y1="-0.5" x2="12" y2="-31.5" style="stroke:rgb(0,0,0);stroke-width:0.125" />
  <line x1="12" y1="-31.5" x2="0.5" y2="-31.5" style="stroke:rgb(0,0,0);stroke-width:0.125" />
  <line x1="0.5" y1="-31.5" x2="0.5" y2="-32" style="stroke:rgb(0,0,0);stroke-width:0.125" />
  <line x1="0" y1="-4" x2="0" y2="-6" style="stroke:rgb(0,0,255);stroke-width:0.125" />
  <line x1="0" y1="-6" x2="8" y2="-6" style="stroke:rgb(0,0,255);stroke-width:0.125" />
  <line x1="8" y1="-6" x2="8" y2="-14" style="stroke:rgb(0,0,255);stroke-width:0.125" />
  <line x1="8" y1="-14" x2="-8" y2="-14" style="stroke:rgb(0,0,255);stroke-width:0.125" />
  <line x1="-8" y1="-14" x2="-8" y2="-24" style="stroke:rgb(0,0,255);stroke-width:0.125" />
  <line x1="-8" y1="-24" x2="0" y2="-24" style="stroke:rgb(0,0,255);stroke-width:0.125" />
  <line x1="0" y1="-24" x2="0" y2="-30" style="stroke:rgb(0,0,255);stroke-width:0.125" />
  <line x1="-0.23438280820846558" y1="-2.0619049072265625" x2="-0.21748726069927216" y2="-2.5785293579101563" style="stroke:rgb(255,0,0);stroke-width:0.125" />
  <line x1="-0.043321818113327026" y1="-2.3691785335540771" x2="-0.21748726069927216" y2="-2.5785293579101563" style="stroke:rgb(255,0,0);stroke-width:0.125" />
  <line x1="-0.40495902299880981" y1="-2.38100528717041" x2="-0.21748726069927216" y2="-2.5785293579101563" style="stroke:rgb(255,0,0);stroke-width:0.125" />
  <line x1="-0.19617536664009094" y1="-3.2135086059570313" x2="-0.18033477663993835" y2="-3.6168289184570313" style="stroke:rgb(255,0,0);stroke-width:0.125" />
  <line x1="-0.045410439372062683" y1="-3.4524643421173096" x2="-0.18033477663993835" y2="-3.6168289184570313" style="stroke:rgb(255,0,0);stroke-width:0.125" />
  <line x1="-0.32773458957672119" y1="-3.463552713394165" x2="-0.18033477663993835" y2="-3.6168289184570313" style="stroke:rgb(255,0,0);stroke-width:0.125" />
  <line x1="-0.09001593291759491" y1="-4.1645221710205078" x2="-0.00018799304962158203" y2="-4.516904354095459" style="stroke:rgb(255,0,0);stroke-width:0.125" />
  <line x1="0.087773174047470093" y1="-4.346703052520752" x2="-0.00018799304962158203" y2="-4.516904354095459" style="stroke:rgb(255,0,0);stroke-width:0.125" />
  <line x1="-0.15889444947242737" y1="-4.4095821380615234" x2="-0.00018799304962158203" y2="-4.516904354095459" style="stroke:rgb(255,0,0);stroke-width:0.125" />
  <line x1="0.2952420711517334" y1="-4.9446601867675781" x2="0.51106840372085571" y2="-5.20043420791626" style="stroke:rgb(255,0,0);stroke-width:0.125" />
  <line x1="0.51560074090957642" y1="-5.0241756439208984" x2="0.51106840372085571" y2="-5.20043420791626" style="stroke:rgb(255,0,0);stroke-width:0.125" />
  <line x1="0.33655893802642822" y1="-5.1752543449401855" x2="0.51106840372085571" y2="-5.20043420791626" style="stroke:rgb(255,0,0);stroke-width:0.125" />
  <line x1="0.98242688179016113" y1="-5.3748073577880859" x2="1.3071296215057373" y2="-5.4578633308410645" style="stroke:rgb(255,0,0);stroke-width:0.125" />
  <line x1="1.2083370685577393" y1="-5.3115110397338867" x2="1.3071296215057373" y2="-5.4578633308410645" style="stroke:rgb(255,0,0);stroke-width:0.125" />
  <line x1="1.1501979827880859" y1="-5.5388031005859375" x2="1.3071296215057373" y2="-5.4578633308410645" style="stroke:rgb(255,0,0);stroke-width:0.125" />
  <line x1="1.9122707843780518" y1="-5.4219818115234375" x2="2.3252408504486084" y2="-5.4046859741210938" style="stroke:rgb(255,0,0);stroke-width:0.125" />
  <line x1="2.1565670967102051" y1="-5.2669572830200195" x2="2.3252408504486084" y2="-5.4046859741210938" style="stroke:rgb(255,0,0);stroke-width:0.125" />
  <line x1="2.1686742305755615" y1="-5.5560359954833984" x2="2.3252408504486084" y2="-5.4046859741210938" style="stroke:rgb(255,0,0);stroke-width:0.125" />
  <line x1="3.0256173610687256" y1="-5.3952007293701172" x2="3.4876437187194824" y2="-5.3991250991821289" style="stroke:rgb(255,0,0);stroke-width:0.125" />
  <line x1="3.3070793151855469" y1="-5.235870361328125" x2="3.4876437187194824" y2="-5.3991250991821289" style="stroke:rgb(255,0,0);stroke-width:0.125" />
  <line x1="3.3043322563171387" y1="-5.55928897857666" x2="3.4876437187194824" y2="-5.3991250991821289" style="stroke:rgb(255,0,0);stroke-width:0.125" />
  <line x1="4.25590705871582" y1="-5.4665069580078125" x2="4.7558784484863281" y2="-5.530850887298584" style="stroke:rgb(255,0,0);stroke-width:0.125" />
  <line x1="4.58151912689209" y1="-5.3305234909057617" x2="4.7558784484863281" y2="-5.530850887298584" style="stroke:rgb(255,0,0);stroke-width:0.125" />
  <line x1="4.5364785194396973" y1="-5.6805033683776855" x2="4.7558784484863281" y2="-5.530850887298584" style="stroke:rgb(255,0,0);stroke-width:0.125" />
  <line x1="5.503962516784668" y1="-5.7463264465332031" x2="5.9855060577392578" y2="-5.9058794975280762" style="stroke:rgb(255,0,0);stroke-width:0.125" />
  <line x1="5.8517265319824219" y1="-5.6745100021362305" x2="5.9855060577392578" y2="-5.9058794975280762" style="stroke:rgb(255,0,0);stroke-width:0.125" />
  <line x1="5.7400393486022949" y1="-6.0115904808044434" x2="5.9855060577392578" y2="-5.9058794975280762" style="stroke:rgb(255,0,0);stroke-width:0.125" />
  <line x1="6.6520137786865234" y1="-6.2729701995849609" x2="7.0476546287536621" y2="-6.5410337448120117" style="stroke:rgb(255,0,0);stroke-width:0.125" />
  <line x1="6.98568058013916" y1="-6.2970008850097656" x2="7.0476546287536621" y2="-6.5410337448120117" style="stroke:rgb(255,0,0);stroke-width:0.125" />
  <line x1="6.7980360984802246" y1="-6.5739493370056152" x2="7.0476546287536621" y2="-6.5410337448120117" style="stroke:rgb(255,0,0);stroke-width:0.125" />
  <line x1="7.4078445434570313" y1="-7.0827789306640625" x2="7.6098017692565918" y2="-7.4511184692382813" style="stroke:rgb(255,0,0);stroke-width:0.125" />
  <line x1="7.6591935157775879" y1="-7.2353882789611816" x2="7.6098017692565918" y2="-7.4511184692382813" style="stroke:rgb(255,0,0);stroke-width:0.125" />
  <line x1="7.4013557434082031" y1="-7.3767580986022949" x2="7.6098017692565918" y2="-7.4511184692382813" style="stroke:rgb(255,0,0);stroke-width:0.125" />
  <line x1="7.6702985763549805" y1="-8.1319084167480469" x2="7.6859984397888184" y2="-8.5775775909423828" style="stroke:rgb(255,0,0);stroke-width:0.125" />
  <line x1="7.8358001708984375" y1="-8.3965864181518555" x2="7.6859984397888184" y2="-8.5775775909423828" style="stroke:rgb(255,0,0);stroke-width:0.125" />
  <line x1="7.523831844329834" y1="-8.4075756072998047" x2="7.6859984397888184" y2="-8.5775775909423828" style="stroke:rgb(255,0,0);stroke-width:0.125" />
  <line x1="7.5913305282592773" y1="-9.3010711669921875" x2="7.5366792678833008" y2="-9.7885942459106445" style="stroke:rgb(255,0,0);stroke-width:0.125" />
  <line x1="7.7288327217102051" y1="-9.6157436370849609" x2="7.5366792678833008" y2="-9.7885942459106445" style="stroke:rgb(255,0,0);stroke-width:0.125" />
  <line x1="7.3875670433044434" y1="-9.57748794555664" x2="7.5366792678833008" y2="-9.7885942459106445" style="stroke:rgb(255,0,0);stroke-width:0.125" />
  <line x1="7.4633474349975586" y1="-10.579933166503906" x2="7.4233474731445313" y2="-11.109546661376953" style="stroke:rgb(255,0,0);stroke-width:0.125" />
  <line x1="7.6244635581970215" y1="-10.914994239807129" x2="7.4233474731445313" y2="-11.109546661376953" style="stroke:rgb(255,0,0);stroke-width:0.125" />
  <line x1="7.2537336349487305" y1="-10.886994361877441" x2="7.4233474731445313" y2="-11.109546661376953" style="stroke:rgb(255,0,0);stroke-width:0.125" />
  <line x1="7.3202018737792969" y1="-11.946647644042969" x2="7.2309222221374512" y2="-12.468890190124512" style="stroke:rgb(255,0,0);stroke-width:0.125" />
  <line x1="7.4488639831542969" y1="-12.294487953186035" x2="7.2309222221374512" y2="-12.468890190124512" style="stroke:rgb(255,0,0);stroke-width:0.125" />
  <line x1="7.0832939147949219" y1="-12.231992721557617" x2="7.2309222221374512" y2="-12.468890190124512" style="stroke:rgb(255,0,0);stroke-width:0.125" />
  <line x1="7.0172085762023926" y1="-13.086513519287109" x2="6.8504972457885742" y2="-13.466110229492188" style="stroke:rgb(255,0,0);stroke-width:0.125" />
  <line x1="7.049004077911377" y1="-13.374980926513672" x2="6.8504972457885742" y2="-13.466110229492188" style="stroke:rgb(255,0,0);stroke-width:0.125" />
  <line x1="6.7832865715026855" y1="-13.258282661437988" x2="6.8504972457885742" y2="-13.466110229492188" style="stroke:rgb(255,0,0);stroke-width:0.125" />
  <line x1="6.3901767730712891" y1="-13.805583953857422" x2="6.0688996315002441" y2="-14.005640029907227" style="stroke:rgb(255,0,0);stroke-width:0.125" />
  <line x1="6.2654328346252441" y1="-14.039308547973633" x2="6.0688996315002441" y2="-14.005640029907227" style="stroke:rgb(255,0,0);stroke-width:0.125" />
  <line x1="6.1253929138183594" y1="-13.814414978027344" x2="6.0688996315002441" y2="-14.005640029907227" style="stroke:rgb(255,0,0);stroke-width:0.125" />
  <line x1="5.4292092323303223" y1="-14.112033843994141" x2="4.991671085357666" y2="-14.157193183898926" style="stroke:rgb(255,0,0);stroke-width:0.125" />
  <line x1="5.179771900177002" y1="-14.292549133300781" x2="4.991671085357666" y2="-14.157193183898926" style="stroke:rgb(255,0,0);stroke-width:0.125" />
  <line x1="5.1481599807739258" y1="-13.986271858215332" x2="4.991671085357666" y2="-14.157193183898926" style="stroke:rgb(255,0,0);stroke-width:0.125" />
  <line x1="4.2411556243896484" y1="-14.081680297851563" x2="3.7326514720916748" y2="-14.022575378417969" style="stroke:rgb(255,0,0);stroke-width:0.125" />
  <line x1="3.9122045040130615" y1="-14.22382640838623" x2="3.7326514720916748" y2="-14.022575378417969" style="stroke:rgb(255,0,0);stroke-width:0.125" />
  <line x1="3.9535782337188721" y1="-13.867873191833496" x2="3.7326514720916748" y2="-14.022575378417969" style="stroke:rgb(255,0,0);stroke-width:0.125" />
  <line x1="2.9065968990325928" y1="-13.919898986816406" x2="2.3685259819030762" y2="-13.863858222961426" style="stroke:rgb(255,0,0);stroke-width:0.125" />
  <line x1="2.5607943534851074" y1="-14.074250221252441" x2="2.3685259819030762" y2="-13.863858222961426" style="stroke:rgb(255,0,0);stroke-width:0.125" />
  <line x1="2.6000232696533203" y1="-13.697601318359375" x2="2.3685259819030762" y2="-13.863858222961426" style="stroke:rgb(255,0,0);stroke-width:0.125" />
  <line x1="1.5138314962387085" y1="-13.848762512207031" x2="0.94584548473358154" y2="-13.842040061950684" style="stroke:rgb(255,0,0);stroke-width:0.125" />
  <line x1="1.167155385017395" y1="-14.043481826782227" x2="0.94584548473358154" y2="-13.842040061950684" style="stroke:rgb(255,0,0);stroke-width:0.125" />
  <line x1="1.1718611717224121" y1="-13.645892143249512" x2="0.94584548473358154" y2="-13.842040061950684" style="stroke:rgb(255,0,0);stroke-width:0.125" />
  <line x1="0.068971715867519379" y1="-13.8348388671875" x2="-0.52526849508285522" y2="-13.809969902038574" style="stroke:rgb(255,0,0);stroke-width:0.125" />
  <line x1="-0.299971342086792" y1="-14.02774715423584" x2="-0.52526849508285522" y2="-13.809969902038574" style="stroke:rgb(255,0,0);stroke-width:0.125" />
  <line x1="-0.28256309032440186" y1="-13.61177921295166" x2="-0.52526849508285522" y2="-13.809969902038574" style="stroke:rgb(255,0,0);stroke-width:0.125" />
  <line x1="-1.444551944732666" y1="-13.759700775146484" x2="-2.0398750305175781" y2="-13.731653213500977" style="stroke:rgb(255,0,0);stroke-width:0.125" />
  <line x1="-1.8152639865875244" y1="-13.951061248779297" x2="-2.0398750305175781" y2="-13.731653213500977" style="stroke:rgb(255,0,0);stroke-width:0.125" />
  <line x1="-1.7956305742263794" y1="-13.534335136413574" x2="-2.0398750305175781" y2="-13.731653213500977" style="stroke:rgb(255,0,0);stroke-width:0.125" />
  <line x1="-2.9935598373413086" y1="-13.771614074707031" x2="-3.6025853157043457" y2="-13.793944358825684" style="stroke:rgb(255,0,0);stroke-width:0.125" />
  <line x1="-3.3549463748931885" y1="-13.998310089111328" x2="-3.6025853157043457" y2="-13.793944358825684" style="stroke:rgb(255,0,0);stroke-width:0.125" />
  <line x1="-3.370577335357666" y1="-13.571991920471191" x2="-3.6025853157043457" y2="-13.793944358825684" style="stroke:rgb(255,0,0);stroke-width:0.125" />
  <line x1="-4.51310920715332" y1="-13.886501312255859" x2="-5.0962581634521484" y2="-13.951578140258789" style="stroke:rgb(255,0,0);stroke-width:0.125" />
  <line x1="-4.8438477516174316" y1="-14.130054473876953" x2="-5.0962581634521484" y2="-13.951578140258789" style="stroke:rgb(255,0,0);stroke-width:0.125" />
  <line x1="-4.8894014358520508" y1="-13.721850395202637" x2="-5.0962581634521484" y2="-13.951578140258789" style="stroke:rgb(255,0,0);stroke-width:0.125" />
  <line x1="-5.8553409576416016" y1="-14.06884765625" x2="-6.3361005783081055" y2="-14.163473129272461" style="stroke:rgb(255,0,0);stroke-width:0.125" />
  <line x1="-6.1136670112609863" y1="-14.294477462768555" x2="-6.3361005783081055" y2="-14.163473129272461" style="stroke:rgb(255,0,0);stroke-width:0.125" />
  <line x1="-6.1799049377441406" y1="-13.957945823669434" x2="-6.3361005783081055" y2="-14.163473129272461" style="stroke:rgb(255,0,0);stroke-width:0.125" />
  <line x1="-6.8509445190429688" y1="-14.467399597167969" x2="-7.14136266708374" y2="-14.696988105773926" style="stroke:rgb(255,0,0);stroke-width:0.125" />
  <line x1="-6.9466452598571777" y1="-14.708226203918457" x2="-7.14136266708374" y2="-14.696988105773926" style="stroke:rgb(255,0,0);stroke-width:0.125" />
  <line x1="-7.1073570251464844" y1="-14.50493335723877" x2="-7.14136266708374" y2="-14.696988105773926" style="stroke:rgb(255,0,0);stroke-width:0.125" />
  <line x1="-7.3257241249084473" y1="-15.189517974853516" x2="-7.4209198951721191" y2="-15.523847579956055" style="stroke:rgb(255,0,0);stroke-width:0.125" />
  <line x1="-7.2664179801940918" y1="-15.42551326751709" x2="-7.4209198951721191" y2="-15.523847579956055" style="stroke:rgb(255,0,0);stroke-width:0.125" />
  <line x1="-7.5004491806030273" y1="-15.35887622833252" x2="-7.4209198951721191" y2="-15.523847579956055" style="stroke:rgb(255,0,0);stroke-width:0.125" />
  <line x1="-7.3934850692749023" y1="-16.140022277832031" x2="-7.3799691200256348" y2="-16.55430793762207" style="stroke:rgb(255,0,0);stroke-width:0.125" />
  <line x1="-7.2402911186218262" y1="-16.386440277099609" x2="-7.3799691200256348" y2="-16.55430793762207" style="stroke:rgb(255,0,0);stroke-width:0.125" />
  <line x1="-7.5302915573120117" y1="-16.395900726318359" x2="-7.3799691200256348" y2="-16.55430793762207" style="stroke:rgb(255,0,0);stroke-width:0.125" />
  <line x1="-7.345191478729248" y1="-17.250835418701172" x2="-7.3244948387146" y2="-17.720205307006836" style="stroke:rgb(255,0,0);stroke-width:0.125" />
  <line x1="-7.168365478515625" y1="-17.528131484985352" x2="-7.3244948387146" y2="-17.720205307006836" style="stroke:rgb(255,0,0);stroke-width:0.125" />
  <line x1="-7.49692440032959" y1="-17.542619705200195" x2="-7.3244948387146" y2="-17.720205307006836" style="stroke:rgb(255,0,0);stroke-width:0.125" />
  <line x1="-7.3539400100708008" y1="-18.489013671875" x2="-7.3991975784301758" y2="-19.005470275878906" style="stroke:rgb(255,0,0);stroke-width:0.125" />
  <line x1="-7.2006163597106934" y1="-18.817937850952148" x2="-7.3991975784301758" y2="-19.005470275878906" style="stroke:rgb(255,0,0);stroke-width:0.125" />
  <line x1="-7.5621352195739746" y1="-18.786258697509766" x2="-7.3991975784301758" y2="-19.005470275878906" style="stroke:rgb(255,0,0);stroke-width:0.125" />
  <line x1="-7.5363922119140625" y1="-19.831512451171875" x2="-7.6146931648254395" y2="-20.380733489990234" style="stroke:rgb(255,0,0);stroke-width:0.125" />
  <line x1="-7.3916325569152832" y1="-20.191865921020508" x2="-7.6146931648254395" y2="-20.380733489990234" style="stroke:rgb(255,0,0);stroke-width:0.125" />
  <line x1="-7.7760868072509766" y1="-20.137054443359375" x2="-7.6146931648254395" y2="-20.380733489990234" style="stroke:rgb(255,0,0);stroke-width:0.125" />
  <line x1="-7.682837963104248" y1="-21.187602996826172" x2="-7.7251505851745605" y2="-21.709165573120117" style="stroke:rgb(255,0,0);stroke-width:0.125" />
  <line x1="-7.5259413719177246" y1="-21.518592834472656" x2="-7.7251505851745605" y2="-21.709165573120117" style="stroke:rgb(255,0,0);stroke-width:0.125" />
  <line x1="-7.8910355567932129" y1="-21.488973617553711" x2="-7.7251505851745605" y2="-21.709165573120117" style="stroke:rgb(255,0,0);stroke-width:0.125" />
  <line x1="-7.731806755065918" y1="-22.358993530273438" x2="-7.717860221862793" y2="-22.775569915771484" style="stroke:rgb(255,0,0);stroke-width:0.125" />
  <line x1="-7.5775504112243652" y1="-22.606647491455078" x2="-7.717860221862793" y2="-22.775569915771484" style="stroke:rgb(255,0,0);stroke-width:0.125" />
  <line x1="-7.86915397644043" y1="-22.616411209106445" x2="-7.717860221862793" y2="-22.775569915771484" style="stroke:rgb(255,0,0);stroke-width:0.125" />
  <line x1="-7.5233316421508789" y1="-23.246799468994141" x2="-7.3678441047668457" y2="-23.529804229736328" style="stroke:rgb(255,0,0);stroke-width:0.125" />
  <line x1="-7.3300209045410156" y1="-23.363941192626953" x2="-7.3678441047668457" y2="-23.529804229736328" style="stroke:rgb(255,0,0);stroke-width:0.125" />
  <line x1="-7.5281243324279785" y1="-23.472782135009766" x2="-7.3678441047668457" y2="-23.529804229736328" style="stroke:rgb(255,0,0);stroke-width:0.125" />
  <line x1="-6.9302387237548828" y1="-23.713676452636719" x2="-6.6289377212524414" y2="-23.814109802246094" style="stroke:rgb(255,0,0);stroke-width:0.125" />
  <line x1="-6.7124333381652832" y1="-23.669105529785156" x2="-6.6289377212524414" y2="-23.814109802246094" style="stroke:rgb(255,0,0);stroke-width:0.125" />
  <line x1="-6.7827358245849609" y1="-23.880016326904297" x2="-6.6289377212524414" y2="-23.814109802246094" style="stroke:rgb(255,0,0);stroke-width:0.125" />
  <line x1="-6.0247330665588379" y1="-23.783313751220703" x2="-5.6098618507385254" y2="-23.744333267211914" style="stroke:rgb(255,0,0);stroke-width:0.125" />
  <line x1="-5.7868738174438477" y1="-23.614479064941406" x2="-5.6098618507385254" y2="-23.744333267211914" style="stroke:rgb(255,0,0);stroke-width:0.125" />
  <line x1="-5.75958776473999" y1="-23.904888153076172" x2="-5.6098618507385254" y2="-23.744333267211914" style="stroke:rgb(255,0,0);stroke-width:0.125" />
  <line x1="-4.8941316604614258" y1="-23.627666473388672" x2="-4.42831563949585" y2="-23.559305191040039" style="stroke:rgb(255,0,0);stroke-width:0.125" />
  <line x1="-4.6356725692749023" y1="-23.423189163208008" x2="-4.42831563949585" y2="-23.559305191040039" style="stroke:rgb(255,0,0);stroke-width:0.125" />
  <line x1="-4.5878190994262695" y1="-23.749259948730469" x2="-4.42831563949585" y2="-23.559305191040039" style="stroke:rgb(255,0,0);stroke-width:0.125" />
  <line x1="-3.6631975173950195" y1="-23.565380096435547" x2="-3.1587538719177246" y2="-23.583791732788086" style="stroke:rgb(255,0,0);stroke-width:0.125" />
  <line x1="-3.3509507179260254" y1="-23.399986267089844" x2="-3.1587538719177246" y2="-23.583791732788086" style="stroke:rgb(255,0,0);stroke-width:0.125" />
  <line x1="-3.3638389110565186" y1="-23.753097534179688" x2="-3.1587538719177246" y2="-23.583791732788086" style="stroke:rgb(255,0,0);stroke-width:0.125" />
  <line x1="-2.4129881858825684" y1="-23.733219146728516" x2="-1.9468860626220703" y2="-23.860818862915039" style="stroke:rgb(255,0,0);stroke-width:0.125" />
  <line x1="-2.0857686996459961" y1="-23.647436141967773" x2="-1.9468860626220703" y2="-23.860818862915039" style="stroke:rgb(255,0,0);stroke-width:0.125" />
  <line x1="-2.1750888824462891" y1="-23.973709106445313" x2="-1.9468860626220703" y2="-23.860818862915039" style="stroke:rgb(255,0,0);stroke-width:0.125" />
  <line x1="-1.4197037220001221" y1="-24.222751617431641" x2="-1.106320858001709" y2="-24.479881286621094" style="stroke:rgb(255,0,0);stroke-width:0.125" />
  <line x1="-1.1397303342819214" y1="-24.268943786621094" x2="-1.106320858001709" y2="-24.479881286621094" style="stroke:rgb(255,0,0);stroke-width:0.125" />
  <line x1="-1.3197206258773804" y1="-24.488311767578125" x2="-1.106320858001709" y2="-24.479881286621094" style="stroke:rgb(255,0,0);stroke-width:0.125" />
  <line x1="-0.8875119686126709" y1="-24.998455047607422" x2="-0.77095502614974976" y2="-25.349275588989258" style="stroke:rgb(255,0,0);stroke-width:0.125" />
  <line x1="-0.69406610727310181" y1="-25.170333862304688" x2="-0.77095502614974976" y2="-25.349275588989258" style="stroke:rgb(255,0,0);stroke-width:0.125" />
  <line x1="-0.93964004516601563" y1="-25.251922607421875" x2="-0.77095502614974976" y2="-25.349275588989258" style="stroke:rgb(255,0,0);stroke-width:0.125" />
  <line x1="-0.71814578771591187" y1="-25.978355407714844" x2="-0.65185272693634033" y2="-26.403709411621094" style="stroke:rgb(255,0,0);stroke-width:0.125" />
  <line x1="-0.52908366918563843" y1="-26.213010787963867" x2="-0.65185272693634033" y2="-26.403709411621094" style="stroke:rgb(255,0,0);stroke-width:0.125" />
  <line x1="-0.82683181762695313" y1="-26.259414672851563" x2="-0.65185272693634033" y2="-26.403709411621094" style="stroke:rgb(255,0,0);stroke-width:0.125" />
  <line x1="-0.515667736530304" y1="-27.114402770996094" x2="-0.43660080432891846" y2="-27.59092903137207" style="stroke:rgb(255,0,0);stroke-width:0.125" />
  <line x1="-0.30095154047012329" y1="-27.375608444213867" x2="-0.43660080432891846" y2="-27.59092903137207" style="stroke:rgb(255,0,0);stroke-width:0.125" />
  <line x1="-0.634520411491394" y1="-27.43095588684082" x2="-0.43660080432891846" y2="-27.59092903137207" style="stroke:rgb(255,0,0);stroke-width:0.125" />
</svg>